<?xml version="1.0" encoding="utf-8"?>
<!-- Generator: Adobe Illustrator 23.0.1, SVG Export Plug-In . SVG Version: 6.00 Build 0)  -->
<svg version="1.1" xmlns="http://www.w3.org/2000/svg" xmlns:xlink="http://www.w3.org/1999/xlink" x="0px" y="0px"
	 viewBox="0 0 113 251.3" style="enable-background:new 0 0 113 251.3;" xml:space="preserve">
<style type="text/css">
	.st0{display:none;}
	.st1{display:inline;fill:#407777;}
	.st2{display:inline;}
	.st3{fill:#905B63;}
	.st4{fill:#FFFFFF;}
	.st5{fill:#F28E67;}
	.st6{fill:#EFB556;}
	.st7{fill:#BFBF88;}
	.st8{opacity:0.34;fill:#407777;enable-background:new    ;}
	.st9{fill:#407777;}
	.st10{fill:#4B565F;}
	.st11{fill:#FFFFFF;stroke:#FFFFFF;stroke-width:0.25;stroke-miterlimit:10;}
	.st12{fill:#FFFFFF;stroke:#FFFFFF;stroke-width:0.5;stroke-miterlimit:10;}
	.st13{display:inline;fill:#EFB556;}
	.st14{display:inline;fill:#FFFFFF;}
	.st15{display:inline;fill:#F28E67;}
</style>
<g id="Calque_1" class="st0">
	<path class="st1" d="M93.2,244.1H19.8c-6.6,0-12-5.4-12-12V19.2c0-6.6,5.4-12,12-12h73.3c6.6,0,12,5.4,12,12v212.9
		C105.2,238.7,99.8,244.1,93.2,244.1z"/>
	<g>
		<g class="st2">
			<path class="st3" d="M80.9,92.9H19.1c-6.6,0-12-5.4-12-12V19.1c0-6.6,5.4-12,12-12h61.7c6.6,0,12,5.4,12,12v61.7
				C92.9,87.5,87.5,92.9,80.9,92.9z"/>
			<g>
				<g>
					<path class="st4" d="M66.7,45.6C67,45.3,67.4,45,68,45s1.1,0,1.7,0h0.2c0.5,0,1-0.4,1-1c0-0.5-0.4-1-1-1h-4.3h-2.9v-3.5
						l0.6-0.1c0.3-0.1,0.6-0.1,0.9-0.2c0.7-0.1,1.3-0.2,1.9-0.4c2.5-0.7,4-2.4,4.5-5.1c0.2-1.1,0.2-2.2,0.2-3.4
						c0-0.4-0.1-0.9-1.1-1.1c-0.1,0-0.2,0-0.3-0.1h-2.1l-0.4,0.1c-0.4,0.1-0.7,0.1-1.1,0.2c-1.7,0.4-2.2,0.7-3.8,2.2l-0.6,0.5
						l-0.5-0.6c-0.8-1-1.9-1.7-3.4-2.1c-0.4-0.1-0.8-0.2-1.3-0.3L56,29.4h-2.1c-0.1,0-0.2,0-0.4,0.1c-0.3,0.1-0.7,0.3-0.8,0.9
						c-0.1,2,0.1,3.7,0.7,5.1c0.8,1.9,2.4,3.1,4.7,3.6c0.4,0.1,0.9,0.2,1.3,0.2l1.3,0.2V43H39.1v-3.5l1.3-0.2
						c0.5-0.1,0.9-0.1,1.4-0.2c3.2-0.6,4.8-2.4,5.4-5.7c0.1-0.9,0.2-1.8,0.2-2.7v-0.2c0-0.7-0.3-1.1-1.1-1.1c-0.1,0-0.2,0-0.3-0.1
						h-2l-0.4,0.1c-0.4,0.1-0.7,0.1-1.1,0.2c-1.6,0.4-2.8,1.1-3.7,2.2l-0.6,0.7l-0.6-0.7c-1.1-1.3-2.5-2-4.5-2.4l-0.7-0.1h-2.1
						c-0.1,0-0.3,0-0.4,0.1c-0.3,0.1-0.6,0.2-0.8,0.9v2.2l0.1,0.6c0.1,0.5,0.2,0.9,0.3,1.4c0.7,2.6,2.3,4.1,5.1,4.6
						c0.4,0.1,0.9,0.2,1.3,0.2l1.3,0.2V43l-0.7,0.1c-0.2,0-0.3,0-0.4,0h-1.6c-1.3,0-2.7,0-4,0c-0.9,0-1.2,0.2-1.4,0.7v0.5
						c0.3,0.5,0.5,0.6,0.7,0.7c0.4,0,0.7,0,1.1,0c0.2,0,0.4,0,0.6,0H32l0.3,0.9L32,46.4L31.4,47c-0.5,0.5-1,1-1.5,1.5
						c-0.2,0.2-0.4,0.5-0.6,0.8l-0.2,0.2V50c0,0,0,0,0,0.1c0.2,0.4,0.4,0.6,0.7,0.7c0.3,0.1,0.6-0.1,0.9-0.3
						c1.6-1.6,3.2-3.2,4.8-4.8c0.3-0.4,0.7-0.5,1.2-0.5c1.2,0,2.3,0,3.6,0h3l-4.2,4.2c-3.1,3.1-6.3,6.3-9.4,9.4
						c-0.2,0.2-0.4,0.5-0.6,0.7c-0.1,0.1-0.1,0.2-0.2,0.2v0.4c0.2,0.4,0.5,0.7,0.8,0.7c0.3,0.1,0.7-0.1,1-0.4l12.8-12.8
						c0.7-0.7,1.4-1.4,2.1-2.1c0.2-0.2,0.6-0.4,1-0.4c1.4,0,2.9,0,4.3,0H52l1.2,0.3l-0.9,1.1c-0.1,0.1-0.2,0.2-0.2,0.3l-4.9,4.9
						c-5.9,5.9-11.7,11.7-17.6,17.6c-0.2,0.2-0.4,0.5-0.6,0.8c-0.1,0.1-0.1,0.1-0.2,0.2v0.4c0,0.1,0.1,0.1,0.1,0.1
						c0.1,0.3,0.4,0.5,0.7,0.6c0.3,0.1,0.6,0,0.9-0.3c0.1-0.1,0.1-0.1,0.2-0.2l2.6-2.6c7.5-7.5,15.1-15.1,22.6-22.6
						c0.4-0.4,0.9-0.5,1.3-0.5c1.2,0,2.4,0,3.5,0h3.4l-1.5,1.7L58.5,51c-6,6-12.2,12.3-18.4,18.5c-0.5,0.5-0.5,0.8-0.4,1.1
						c0.1,0.3,0.3,0.6,0.6,0.7s0.7,0,0.9-0.2c0.1-0.1,0.2-0.2,0.3-0.2l2.6-2.6C51.6,60.7,59.2,53.1,66.7,45.6z M62.9,36.7
						c0-3.5,1.7-5.2,5.3-5.3H69v0.8c0,3.5-1.8,5.3-5.3,5.3h-0.8L62.9,36.7z M40.4,33c1-1.1,2.6-1.8,4.2-1.7h0.7V32
						c-0.1,3.6-1.7,5.1-5.3,5.3h-0.7l-0.1-0.6C39,35.5,39.5,34.1,40.4,33z M37.1,37.5h-0.7c-3.6-0.2-5.1-1.8-5.3-5.3v-0.6l0.6-0.1
						c1.4-0.2,2.8,0.2,3.8,1.1c1.2,1.1,1.8,2.6,1.7,4.2L37.1,37.5z M60,37.4c-3.5,0-5.2-1.7-5.4-5.3v-0.8h0.8
						c3.5,0.1,5.3,1.8,5.4,5.3v0.8H60z"/>
					<path class="st4" d="M69.9,28.7L69.9,28.7L69.9,28.7z"/>
				</g>
				<path class="st4" d="M70.3,50.5c-0.1,0-0.3-0.1-0.4-0.1c-0.3,0-0.5,0.1-0.8,0.4c-3.7,3.7-7.3,7.4-11,11.1l-4.5,4.5
					c-1,1-2.1,2.1-3.1,3.1c-0.3,0.3-0.4,0.7-0.3,1c0.1,0.3,0.4,0.6,0.7,0.7s0.6,0.1,1.1-0.4c2.4-2.4,4.8-4.8,7.2-7.3l11.2-11.3
					c0.3-0.3,0.4-0.5,0.4-1l0,0C70.9,51,70.7,50.7,70.3,50.5z"/>
				<path class="st4" d="M61.7,71.3c0.3,0,0.6-0.1,0.8-0.4c1.2-1.2,2.4-2.4,3.6-3.7l2.6-2.6c0.6-0.7,1.3-1.3,1.9-2
					c0.3-0.3,0.4-0.7,0.2-1.1c-0.1-0.3-0.5-0.6-0.8-0.6l0,0l0,0l0,0c-0.3,0-0.5,0.1-0.7,0.3l-8.1,8.2c-0.4,0.4-0.5,0.9-0.1,1.4
					C61.2,71.1,61.4,71.3,61.7,71.3z"/>
			</g>
		</g>
	</g>
	<g id="Calque_5">
		<g class="st2">
			<path class="st5" d="M80.9,92.9H19.1c-6.6,0-12-5.4-12-12V19.1c0-6.6,5.4-12,12-12h61.7c6.6,0,12,5.4,12,12v61.7
				C92.9,87.5,87.5,92.9,80.9,92.9z"/>
			<g>
				<path class="st4" d="M30.9,38.1h38.3c0.7,0,1.2-0.6,1.2-1.2s-0.6-1.2-1.2-1.2H30.9c-0.7,0-1.2,0.6-1.2,1.2S30.2,38.1,30.9,38.1z
					"/>
				<path class="st4" d="M69.1,44.4H30.9c-0.7,0-1.2,0.6-1.2,1.2s0.6,1.2,1.2,1.2h38.3c0.7,0,1.2-0.6,1.2-1.2S69.8,44.4,69.1,44.4z"
					/>
				<path class="st4" d="M69.1,53.1H30.9c-0.7,0-1.2,0.6-1.2,1.2s0.6,1.2,1.2,1.2h38.3c0.7,0,1.2-0.6,1.2-1.2S69.8,53.1,69.1,53.1z"
					/>
				<path class="st4" d="M69.1,61.9H30.9c-0.7,0-1.2,0.6-1.2,1.2s0.6,1.2,1.2,1.2h38.3c0.7,0,1.2-0.6,1.2-1.2S69.8,61.9,69.1,61.9z"
					/>
			</g>
		</g>
	</g>
	<g id="Calque_4">
		<g class="st2">
			<path class="st6" d="M80.9,92.9H19.1c-6.6,0-12-5.4-12-12V19.1c0-6.6,5.4-12,12-12h61.7c6.6,0,12,5.4,12,12v61.7
				C92.9,87.5,87.5,92.9,80.9,92.9z"/>
			<path class="st4" d="M66.9,34.8c-3.1-3.5-6.9-5.8-11.4-6.9c-0.8-0.2-1.7-0.3-2.5-0.4c-0.4-0.1-0.8-0.1-1.2-0.2
				c-0.1,0-0.2,0-0.3-0.1h-3.1l-0.6,0.1c-0.4,0.1-0.8,0.1-1.3,0.2c-5.4,0.9-10,3.4-13.7,7.5c-3,3.4-4.8,7.3-5.3,11.7
				c-0.8,6.4,0.7,12.1,4.7,17.1c3.5,4.4,8.1,7.2,13.5,8.2c6.7,1.2,12.9-0.3,18.2-4.5c4.3-3.4,7.1-8,8.2-13.5c0.1-0.5,0.2-1,0.2-1.5
				c0-0.3,0.1-0.5,0.1-0.8c0-0.1,0-0.2,0.1-0.3v-3.1l-0.1-0.7c-0.1-0.6-0.2-1.1-0.3-1.7C71.6,41.8,69.8,38,66.9,34.8z M51,29.7
				c0-0.1,0.1-0.3,0.2-0.4c0.1-0.1,0.2-0.1,0.4-0.1c4.5,0.4,8.5,2,12,5c0.1,0.1,0.2,0.2,0.2,0.4c0,0.1,0,0.3-0.1,0.4l-7.3,7
				c-0.1,0.1-0.2,0.1-0.4,0.1c-0.1,0-0.2,0-0.3-0.1c-1.3-1-2.8-1.6-4.4-1.8c-0.2,0-0.4-0.3-0.4-0.5v-10H51z M36.5,34.2
				c3.4-2.9,7.5-4.6,12-4.9c0.1,0,0.3,0,0.4,0.1c0.1,0.1,0.2,0.2,0.2,0.4v10c0,0.2-0.1,0.4-0.4,0.5c-0.3,0.1-0.5,0.2-0.8,0.2
				c-0.6,0.2-1.1,0.3-1.6,0.5s-1,0.5-1.5,0.8c-0.2,0.1-0.4,0.3-0.7,0.4c-0.1,0-0.2,0.1-0.2,0.1c-0.1,0-0.3-0.1-0.4-0.1l-7-7.1
				c-0.1-0.1-0.2-0.2-0.1-0.4S36.4,34.3,36.5,34.2z M34.3,36.4c0.1-0.1,0.2-0.2,0.4-0.2c0.1,0,0.3,0,0.4,0.1l7.1,7
				c0.2,0.2,0.2,0.4,0.1,0.6c-0.1,0.2-0.2,0.4-0.4,0.7c-0.3,0.5-0.6,1-0.8,1.5s-0.4,1-0.5,1.6c-0.1,0.3-0.1,0.5-0.2,0.8
				c-0.1,0.2-0.3,0.4-0.5,0.4h-10c-0.1,0-0.3-0.1-0.4-0.2c-0.1-0.1-0.1-0.2-0.1-0.4C29.7,43.9,31.4,39.8,34.3,36.4z M34.6,63.5
				L34.6,63.5c-0.2,0-0.3-0.1-0.4-0.2c-2.9-3.4-4.6-7.5-4.9-12c0-0.1,0-0.3,0.1-0.4c0.1-0.1,0.2-0.2,0.4-0.2h10
				c0.2,0,0.5,0.2,0.5,0.4c0.3,1.6,0.9,3.1,1.8,4.3c0.1,0.2,0.1,0.5,0,0.7L35,63.4C34.9,63.5,34.8,63.5,34.6,63.5z M49,70
				c0,0.1-0.1,0.3-0.2,0.4c-0.1,0.1-0.2,0.1-0.3,0.1l0,0c-4.5-0.4-8.5-2-12-4.9c-0.1-0.1-0.2-0.2-0.2-0.4c0-0.1,0-0.3,0.1-0.4
				l7.1-7.1c0.2-0.2,0.4-0.2,0.6-0.1c0.2,0.1,0.4,0.2,0.6,0.4c0.5,0.3,1,0.6,1.5,0.8s1,0.4,1.6,0.5c0.3,0.1,0.5,0.1,0.8,0.2
				c0.2,0.1,0.4,0.3,0.4,0.5C49,60,49,70,49,70z M49.9,57.7L49.9,57.7c-2.1,0-4-0.8-5.5-2.3s-2.3-3.4-2.3-5.5c0-4.5,3.5-7.8,8-7.8
				c0,0,0,0,0.1,0c4.1,0,7.6,3.6,7.6,7.8l0,0C57.8,54.3,54.3,57.7,49.9,57.7z M63.5,65.6c-3.4,2.9-7.4,4.6-12,5l0,0
				c-0.1,0-0.2,0-0.3-0.1C51,70.3,51,70.2,51,70V60c0-0.2,0.2-0.5,0.4-0.5c1.6-0.2,3.1-0.9,4.4-1.8c0.2-0.1,0.5-0.1,0.7,0.1l7.1,7.1
				c0.1,0.1,0.2,0.2,0.1,0.4C63.7,65.4,63.6,65.5,63.5,65.6z M65.6,63.5c-0.1,0.1-0.2,0.1-0.4,0.1c-0.1,0-0.3-0.1-0.4-0.1l-7-7.1
				c-0.2-0.2-0.2-0.5,0-0.7c1-1.4,1.6-2.8,1.8-4.5c0-0.2,0.2-0.4,0.5-0.4h10c0.3,0,0.5,0.2,0.5,0.4C71,54.2,68.3,60.8,65.6,63.5z
				 M70.5,48.8c-0.1,0.1-0.2,0.2-0.4,0.2h-10c-0.2,0-0.5-0.2-0.5-0.4c-0.3-1.6-0.9-3.1-1.8-4.4c-0.1-0.2-0.1-0.5,0-0.7l7.1-7.1
				c0.1-0.1,0.2-0.2,0.4-0.1c0.1,0,0.3,0.1,0.4,0.2c2.9,3.4,4.6,7.5,4.9,12C70.7,48.5,70.6,48.7,70.5,48.8z"/>
		</g>
	</g>
	<g id="Calque_3">
		<g class="st2">
			<path class="st7" d="M80.9,92.9H19.1c-6.6,0-12-5.4-12-12V19.1c0-6.6,5.4-12,12-12h61.7c6.6,0,12,5.4,12,12v61.7
				C92.9,87.5,87.5,92.9,80.9,92.9z"/>
			<g>
				<circle class="st4" cx="31.9" cy="35.5" r="3"/>
				<circle class="st4" cx="43.8" cy="35.5" r="3"/>
				<circle class="st4" cx="56" cy="35.5" r="3"/>
				<circle class="st4" cx="68.1" cy="35.5" r="3"/>
				<circle class="st4" cx="37.8" cy="46.4" r="3"/>
				<circle class="st4" cx="50" cy="46.4" r="3"/>
				<circle class="st4" cx="62.2" cy="46.4" r="3"/>
				<circle class="st4" cx="31.9" cy="57.2" r="3"/>
				<circle class="st4" cx="43.8" cy="57.2" r="3"/>
				<circle class="st4" cx="56" cy="57.2" r="3"/>
				<circle class="st4" cx="68.1" cy="57.2" r="3"/>
				<circle class="st4" cx="37.8" cy="68" r="3"/>
				<circle class="st4" cx="50" cy="68" r="3"/>
				<circle class="st4" cx="62.2" cy="68" r="3"/>
			</g>
		</g>
	</g>
	<g>
		<g class="st2">
			<path class="st8" d="M80.9,92.9H19.1c-6.6,0-12-5.4-12-12V19.1c0-6.6,5.4-12,12-12h61.7c6.6,0,12,5.4,12,12v61.7
				C92.9,87.5,87.5,92.9,80.9,92.9z"/>
			<path class="st9" d="M48.5,28.6c1,0,2,0,3,0c0.4,0.1,0.8,0.2,1.3,0.3c8.6,1.8,13.8,9.9,12,18.7c-1.2,5.6-3.7,10.5-7.1,14.9
				c-2.4,3.1-5.1,6-7.7,8.9c-0.1,0-0.1,0-0.2,0c-0.7-0.9-1.4-1.9-2.2-2.8c-3.3-3.6-6.2-7.4-8.6-11.7c-2.1-3.8-3.8-7.6-4.1-12
				c-0.5-6.6,3.4-12.8,9.6-15.2C45.8,29.2,47.1,28.9,48.5,28.6z M50.1,36.9c-3.7-0.1-6.9,2.9-7,6.5c-0.1,3.9,2.8,7.2,6.5,7.3
				c3.9,0.1,7.1-2.8,7.2-6.6C56.9,40.1,54,37,50.1,36.9z"/>
		</g>
	</g>
	<g id="Calque_6">
		<g class="st2">
			<path class="st10" d="M80.9,92.9H19.1c-6.6,0-12-5.4-12-12V19.1c0-6.6,5.4-12,12-12h61.7c6.6,0,12,5.4,12,12v61.7
				C92.9,87.5,87.5,92.9,80.9,92.9z"/>
			<path class="st11" d="M60.8,55.1c-0.4-0.4-1.1-0.4-1.6,0l-8.1,8.5V41.5l0,0v-5.2l8.1,8.5c0.4,0.4,1.1,0.5,1.6,0
				c0.4-0.4,0.5-1.1,0-1.6l-9.2-9.7c-0.4-0.4-1-0.7-1.6-0.7s-1.2,0.2-1.6,0.7l-9.2,9.7c-0.2,0.2-0.3,0.5-0.3,0.8s0.1,0.6,0.3,0.8
				c0.4,0.4,1.1,0.4,1.6,0l8.1-8.5v22.2l0,0v5.2l-8.1-8.5c-0.4-0.4-1.1-0.5-1.6,0c-0.4,0.4-0.5,1.1,0,1.6l9.2,9.7
				c0.4,0.4,1,0.7,1.6,0.7s1.1-0.2,1.6-0.7l9.2-9.7c0.2-0.2,0.3-0.5,0.3-0.8C61.1,55.6,61,55.4,60.8,55.1z"/>
		</g>
	</g>
	<g class="st2">
		<g>
			<g>
				<path class="st12" d="M59.9,33.9c-1-1.2-2-2.3-2.7-3.2c0-0.1-0.1-0.1-0.1-0.1c-0.4-0.3-0.9-0.2-1.3,0.1c-0.7,0.9-1.7,2-2.7,3.2
					c-4.6,5.3-11,12.7-11,18.9c0,4,1.6,7.6,4.2,10.2c2.6,2.6,6.2,4.2,10.2,4.2s7.6-1.6,10.2-4.2c2.6-2.6,4.2-6.2,4.2-10.2
					C70.9,46.6,64.5,39.2,59.9,33.9z M65.4,61.7c-2.3,2.3-5.4,3.7-8.9,3.7s-6.6-1.4-8.9-3.7s-3.7-5.4-3.7-8.9
					c0-5.5,6.1-12.6,10.6-17.8c0.7-0.9,1.4-1.7,2.1-2.4c0.6,0.8,1.3,1.6,2.1,2.4c4.4,5.1,10.6,12.2,10.6,17.8
					C69.1,56.3,67.7,59.4,65.4,61.7z"/>
			</g>
		</g>
		<g>
			<g>
				<path class="st12" d="M56.6,60.9c-2.2,0-4.1-0.9-5.5-2.3c-1.4-1.4-2.3-3.4-2.3-5.5c0-0.5-0.4-0.9-0.9-0.9S47,52.6,47,53.1
					c0,2.7,1.1,5,2.8,6.8c1.7,1.7,4.1,2.8,6.7,2.8c0.5,0,0.9-0.4,0.9-0.9C57.4,61.2,57.1,60.9,56.6,60.9z"/>
			</g>
		</g>
	</g>
	<g id="Calque_8">
		<g class="st2">
			<path class="st7" d="M80.9,92.9H19.1c-6.6,0-12-5.4-12-12V19.1c0-6.6,5.4-12,12-12h61.7c6.6,0,12,5.4,12,12v61.7
				C92.9,87.5,87.5,92.9,80.9,92.9z"/>
			<g>
				<g>
					<path class="st4" d="M66.7,45.6C67,45.3,67.4,45,68,45s1.1,0,1.7,0h0.2c0.5,0,1-0.4,1-1c0-0.5-0.4-1-1-1h-4.3h-2.9v-3.5
						l0.6-0.1c0.3-0.1,0.6-0.1,0.9-0.2c0.7-0.1,1.3-0.2,1.9-0.4c2.5-0.7,4-2.4,4.5-5.1c0.2-1.1,0.2-2.2,0.2-3.4
						c0-0.4-0.1-0.9-1.1-1.1c-0.1,0-0.2,0-0.3-0.1h-2.1l-0.4,0.1c-0.4,0.1-0.7,0.1-1.1,0.2c-1.7,0.4-2.2,0.7-3.8,2.2l-0.6,0.5
						l-0.5-0.6c-0.8-1-1.9-1.7-3.4-2.1c-0.4-0.1-0.8-0.2-1.3-0.3L56,29.4h-2.1c-0.1,0-0.2,0-0.4,0.1c-0.3,0.1-0.7,0.3-0.8,0.9
						c-0.1,2,0.1,3.7,0.7,5.1c0.8,1.9,2.4,3.1,4.7,3.6c0.4,0.1,0.9,0.2,1.3,0.2l1.3,0.2V43H39.1v-3.5l1.3-0.2
						c0.5-0.1,0.9-0.1,1.4-0.2c3.2-0.6,4.8-2.4,5.4-5.7c0.1-0.9,0.2-1.8,0.2-2.7v-0.2c0-0.7-0.3-1.1-1.1-1.1c-0.1,0-0.2,0-0.3-0.1
						h-2l-0.4,0.1c-0.4,0.1-0.7,0.1-1.1,0.2c-1.6,0.4-2.8,1.1-3.7,2.2l-0.6,0.7l-0.6-0.7c-1.1-1.3-2.5-2-4.5-2.4l-0.7-0.1h-2.1
						c-0.1,0-0.3,0-0.4,0.1c-0.3,0.1-0.6,0.2-0.8,0.9v2.2l0.1,0.6c0.1,0.5,0.2,0.9,0.3,1.4c0.7,2.6,2.3,4.1,5.1,4.6
						c0.4,0.1,0.9,0.2,1.3,0.2l1.3,0.2V43l-0.7,0.1c-0.2,0-0.3,0-0.4,0h-1.6c-1.3,0-2.7,0-4,0c-0.9,0-1.2,0.2-1.4,0.7v0.5
						c0.3,0.5,0.5,0.6,0.7,0.7c0.4,0,0.7,0,1.1,0c0.2,0,0.4,0,0.6,0H32l0.3,0.9L32,46.4L31.4,47c-0.5,0.5-1,1-1.5,1.5
						c-0.2,0.2-0.4,0.5-0.6,0.8l-0.2,0.2V50c0,0,0,0,0,0.1c0.2,0.4,0.4,0.6,0.7,0.7c0.3,0.1,0.6-0.1,0.9-0.3
						c1.6-1.6,3.2-3.2,4.8-4.8c0.3-0.4,0.7-0.5,1.2-0.5c1.2,0,2.3,0,3.6,0h3l-4.2,4.2c-3.1,3.1-6.3,6.3-9.4,9.4
						c-0.2,0.2-0.4,0.5-0.6,0.7c-0.1,0.1-0.1,0.2-0.2,0.2v0.4c0.2,0.4,0.5,0.7,0.8,0.7c0.3,0.1,0.7-0.1,1-0.4l12.8-12.8
						c0.7-0.7,1.4-1.4,2.1-2.1c0.2-0.2,0.6-0.4,1-0.4c1.4,0,2.9,0,4.3,0H52l1.2,0.3l-0.9,1.1c-0.1,0.1-0.2,0.2-0.2,0.3l-4.9,4.9
						c-5.9,5.9-11.7,11.7-17.6,17.6c-0.2,0.2-0.4,0.5-0.6,0.8c-0.1,0.1-0.1,0.1-0.2,0.2v0.4c0,0.1,0.1,0.1,0.1,0.1
						c0.1,0.3,0.4,0.5,0.7,0.6c0.3,0.1,0.6,0,0.9-0.3c0.1-0.1,0.1-0.1,0.2-0.2l2.6-2.6c7.5-7.5,15.1-15.1,22.6-22.6
						c0.4-0.4,0.9-0.5,1.3-0.5c1.2,0,2.4,0,3.5,0h3.4l-1.5,1.7L58.5,51c-6,6-12.2,12.3-18.4,18.5c-0.5,0.5-0.5,0.8-0.4,1.1
						c0.1,0.3,0.3,0.6,0.6,0.7s0.7,0,0.9-0.2c0.1-0.1,0.2-0.2,0.3-0.2l2.6-2.6C51.6,60.7,59.2,53.1,66.7,45.6z M62.9,36.7
						c0-3.5,1.7-5.2,5.3-5.3H69v0.8c0,3.5-1.8,5.3-5.3,5.3h-0.8L62.9,36.7z M40.4,33c1-1.1,2.6-1.8,4.2-1.7h0.7V32
						c-0.1,3.6-1.7,5.1-5.3,5.3h-0.7l-0.1-0.6C39,35.5,39.5,34.1,40.4,33z M37.1,37.5h-0.7c-3.6-0.2-5.1-1.8-5.3-5.3v-0.6l0.6-0.1
						c1.4-0.2,2.8,0.2,3.8,1.1c1.2,1.1,1.8,2.6,1.7,4.2L37.1,37.5z M60,37.4c-3.5,0-5.2-1.7-5.4-5.3v-0.8h0.8
						c3.5,0.1,5.3,1.8,5.4,5.3v0.8H60z"/>
					<path class="st4" d="M69.9,28.7L69.9,28.7L69.9,28.7z"/>
				</g>
				<path class="st4" d="M70.3,50.5c-0.1,0-0.3-0.1-0.4-0.1c-0.3,0-0.5,0.1-0.8,0.4c-3.7,3.7-7.3,7.4-11,11.1l-4.5,4.5
					c-1,1-2.1,2.1-3.1,3.1c-0.3,0.3-0.4,0.7-0.3,1c0.1,0.3,0.4,0.6,0.7,0.7s0.6,0.1,1.1-0.4c2.4-2.4,4.8-4.8,7.2-7.3l11.2-11.3
					c0.3-0.3,0.4-0.5,0.4-1l0,0C70.9,51,70.7,50.7,70.3,50.5z"/>
				<path class="st4" d="M61.7,71.3c0.3,0,0.6-0.1,0.8-0.4c1.2-1.2,2.4-2.4,3.6-3.7l2.6-2.6c0.6-0.7,1.3-1.3,1.9-2
					c0.3-0.3,0.4-0.7,0.2-1.1c-0.1-0.3-0.5-0.6-0.8-0.6l0,0l0,0l0,0c-0.3,0-0.5,0.1-0.7,0.3l-8.1,8.2c-0.4,0.4-0.5,0.9-0.1,1.4
					C61.2,71.1,61.4,71.3,61.7,71.3z"/>
			</g>
		</g>
	</g>
</g>
<g id="Calque_2" class="st0">
	<path class="st13" d="M93.2,244.1H19.8c-6.6,0-12-5.4-12-12V19.2c0-6.6,5.4-12,12-12h73.3c6.6,0,12,5.4,12,12v212.9
		C105.2,238.7,99.8,244.1,93.2,244.1z"/>
	<path class="st14" d="M73.5,34c-3.1-3.5-6.9-5.8-11.4-6.9c-0.8-0.2-1.7-0.3-2.5-0.4c-0.4-0.1-0.8-0.1-1.2-0.2c-0.1,0-0.2,0-0.3-0.1
		H55l-0.6,0.1c-0.4,0.1-0.8,0.1-1.3,0.2c-5.4,0.9-10,3.4-13.7,7.5c-3,3.4-4.8,7.3-5.3,11.7C33.3,52.3,34.8,58,38.8,63
		c3.5,4.4,8.1,7.2,13.5,8.2c6.7,1.2,12.9-0.3,18.2-4.5c4.3-3.4,7.1-8,8.2-13.5c0.1-0.5,0.2-1,0.2-1.5c0-0.3,0.1-0.5,0.1-0.8
		c0-0.1,0-0.2,0.1-0.3v-3.1L79,46.8c-0.1-0.6-0.2-1.1-0.3-1.7C78.2,41,76.4,37.2,73.5,34z M57.6,28.9c0-0.1,0.1-0.3,0.2-0.4
		c0.1-0.1,0.2-0.1,0.4-0.1c4.5,0.4,8.5,2,12,5c0.1,0.1,0.2,0.2,0.2,0.4c0,0.1,0,0.3-0.1,0.4l-7.3,7c-0.1,0.1-0.2,0.1-0.4,0.1
		c-0.1,0-0.2,0-0.3-0.1c-1.3-1-2.8-1.6-4.4-1.8c-0.2,0-0.4-0.3-0.4-0.5v-10H57.6z M43.1,33.4c3.4-2.9,7.5-4.6,12-4.9
		c0.1,0,0.3,0,0.4,0.1c0.1,0.1,0.2,0.2,0.2,0.4v10c0,0.2-0.1,0.4-0.4,0.5c-0.3,0.1-0.5,0.2-0.8,0.2c-0.6,0.2-1.1,0.3-1.6,0.5
		s-1,0.5-1.5,0.8c-0.2,0.1-0.4,0.3-0.7,0.4c-0.1,0-0.2,0.1-0.2,0.1c-0.1,0-0.3-0.1-0.4-0.1l-7-7.1c-0.1-0.1-0.2-0.2-0.1-0.4
		S43,33.5,43.1,33.4z M40.9,35.6c0.1-0.1,0.2-0.2,0.4-0.2c0.1,0,0.3,0,0.4,0.1l7.1,7c0.2,0.2,0.2,0.4,0.1,0.6
		c-0.1,0.2-0.2,0.4-0.4,0.7c-0.3,0.5-0.6,1-0.8,1.5s-0.4,1-0.5,1.6c-0.1,0.3-0.1,0.5-0.2,0.8c-0.1,0.2-0.3,0.4-0.5,0.4h-10
		c-0.1,0-0.3-0.1-0.4-0.2C36,47.8,36,47.7,36,47.5C36.3,43.1,38,39,40.9,35.6z M41.2,62.7L41.2,62.7c-0.2,0-0.3-0.1-0.4-0.2
		c-2.9-3.4-4.6-7.5-4.9-12c0-0.1,0-0.3,0.1-0.4c0.1-0.1,0.2-0.2,0.4-0.2h10c0.2,0,0.5,0.2,0.5,0.4c0.3,1.6,0.9,3.1,1.8,4.3
		c0.1,0.2,0.1,0.5,0,0.7l-7.1,7.3C41.5,62.7,41.4,62.7,41.2,62.7z M55.6,69.2c0,0.1-0.1,0.3-0.2,0.4c-0.1,0.1-0.2,0.1-0.3,0.1l0,0
		c-4.5-0.4-8.5-2-12-4.9c-0.1-0.1-0.2-0.2-0.2-0.4c0-0.1,0-0.3,0.1-0.4l7.1-7.1c0.2-0.2,0.4-0.2,0.6-0.1c0.2,0.1,0.4,0.2,0.6,0.4
		c0.5,0.3,1,0.6,1.5,0.8s1,0.4,1.6,0.5c0.3,0.1,0.5,0.1,0.8,0.2c0.2,0.1,0.4,0.3,0.4,0.5C55.6,59.2,55.6,69.2,55.6,69.2z M56.5,56.9
		L56.5,56.9c-2.1,0-4-0.8-5.5-2.3s-2.3-3.4-2.3-5.5c0-4.5,3.5-7.8,8-7.8c0,0,0,0,0.1,0c4.1,0,7.6,3.6,7.6,7.8l0,0
		C64.4,53.5,60.9,56.9,56.5,56.9z M70.1,64.8c-3.4,2.9-7.4,4.6-12,5l0,0c-0.1,0-0.2,0-0.3-0.1c-0.2-0.2-0.2-0.3-0.2-0.5v-10
		c0-0.2,0.2-0.5,0.4-0.5c1.6-0.2,3.1-0.9,4.4-1.8c0.2-0.1,0.5-0.1,0.7,0.1l7.1,7.1c0.1,0.1,0.2,0.2,0.1,0.4
		C70.3,64.6,70.2,64.7,70.1,64.8z M72.2,62.7c-0.1,0.1-0.2,0.1-0.4,0.1c-0.1,0-0.3-0.1-0.4-0.1l-7-7.1c-0.2-0.2-0.2-0.5,0-0.7
		c1-1.4,1.6-2.8,1.8-4.5c0-0.2,0.2-0.4,0.5-0.4h10c0.3,0,0.5,0.2,0.5,0.4C77.6,53.4,74.9,60,72.2,62.7z M77.1,48
		c-0.1,0.1-0.2,0.2-0.4,0.2h-10c-0.2,0-0.5-0.2-0.5-0.4c-0.3-1.6-0.9-3.1-1.8-4.4c-0.1-0.2-0.1-0.5,0-0.7l7.1-7.1
		c0.1-0.1,0.2-0.2,0.4-0.1c0.1,0,0.3,0.1,0.4,0.2c2.9,3.4,4.6,7.5,4.9,12C77.3,47.7,77.2,47.9,77.1,48z"/>
</g>
<g id="Calque_3_1_" class="st0">
	<path class="st15" d="M93.2,244.1H19.8c-6.6,0-12-5.4-12-12V19.2c0-6.6,5.4-12,12-12h73.3c6.6,0,12,5.4,12,12v212.9
		C105.2,238.7,99.8,244.1,93.2,244.1z"/>
	<g class="st2">
		<path class="st4" d="M37.4,36.3h38.3c0.7,0,1.2-0.6,1.2-1.2s-0.6-1.2-1.2-1.2H37.4c-0.7,0-1.2,0.6-1.2,1.2S36.7,36.3,37.4,36.3z"
			/>
		<path class="st4" d="M75.6,42.6H37.4c-0.7,0-1.2,0.6-1.2,1.2s0.6,1.2,1.2,1.2h38.3c0.7,0,1.2-0.6,1.2-1.2S76.3,42.6,75.6,42.6z"/>
		<path class="st4" d="M75.6,51.3H37.4c-0.7,0-1.2,0.6-1.2,1.2s0.6,1.2,1.2,1.2h38.3c0.7,0,1.2-0.6,1.2-1.2S76.3,51.3,75.6,51.3z"/>
		<path class="st4" d="M75.6,60.1H37.4c-0.7,0-1.2,0.6-1.2,1.2s0.6,1.2,1.2,1.2h38.3c0.7,0,1.2-0.6,1.2-1.2S76.3,60.1,75.6,60.1z"/>
	</g>
</g>
<g id="Calque_4_1_">
	<path class="st3" d="M93.2,244.1H19.8c-6.6,0-12-5.4-12-12V19.2c0-6.6,5.4-12,12-12h73.3c6.6,0,12,5.4,12,12v212.9
		C105.2,238.7,99.8,244.1,93.2,244.1z"/>
	<g>
		<g>
			<path class="st4" d="M73.3,43.6c0.3-0.3,0.7-0.6,1.3-0.6s1.1,0,1.7,0h0.2c0.5,0,1-0.4,1-1c0-0.5-0.4-1-1-1h-4.3h-2.9v-3.5
				l0.6-0.1c0.3-0.1,0.6-0.1,0.9-0.2c0.7-0.1,1.3-0.2,1.9-0.4c2.5-0.7,4-2.4,4.5-5.1c0.2-1.1,0.2-2.2,0.2-3.4c0-0.4-0.1-0.9-1.1-1.1
				c-0.1,0-0.2,0-0.3-0.1h-2.1l-0.4,0.1c-0.4,0.1-0.7,0.1-1.1,0.2c-1.7,0.4-2.2,0.7-3.8,2.2L68,30.1l-0.5-0.6
				c-0.8-1-1.9-1.7-3.4-2.1c-0.4-0.1-0.8-0.2-1.3-0.3l-0.2,0.3h-2.1c-0.1,0-0.2,0-0.4,0.1c-0.3,0.1-0.7,0.3-0.8,0.9
				c-0.1,2,0.1,3.7,0.7,5.1c0.8,1.9,2.4,3.1,4.7,3.6c0.4,0.1,0.9,0.2,1.3,0.2l1.3,0.2V41H45.7v-3.5l1.3-0.2c0.5-0.1,0.9-0.1,1.4-0.2
				c3.2-0.6,4.8-2.4,5.4-5.7c0.1-0.9,0.2-1.8,0.2-2.7v-0.2c0-0.7-0.3-1.1-1.1-1.1c-0.1,0-0.2,0-0.3-0.1h-2l-0.4,0.1
				c-0.4,0.1-0.7,0.1-1.1,0.2c-1.6,0.4-2.8,1.1-3.7,2.2l-0.6,0.7l-0.6-0.7c-1.1-1.3-2.5-2-4.5-2.4L39,27.3h-2.1
				c-0.1,0-0.3,0-0.4,0.1c-0.3,0.1-0.6,0.2-0.8,0.9v2.2l0.1,0.6c0.1,0.5,0.2,0.9,0.3,1.4c0.7,2.6,2.3,4.1,5.1,4.6
				c0.4,0.1,0.9,0.2,1.3,0.2l1.3,0.2V41l-0.7,0.1c-0.2,0-0.3,0-0.4,0h-1.6c-1.3,0-2.7,0-4,0c-0.9,0-1.2,0.2-1.4,0.7v0.5
				c0.3,0.5,0.5,0.6,0.7,0.7c0.4,0,0.7,0,1.1,0c0.2,0,0.4,0,0.6,0h0.5l0.3,0.9l-0.3,0.5L38,45c-0.5,0.5-1,1-1.5,1.5
				c-0.2,0.2-0.4,0.5-0.6,0.8l-0.2,0.2V48c0,0,0,0,0,0.1c0.2,0.4,0.4,0.6,0.7,0.7c0.3,0.1,0.6-0.1,0.9-0.3c1.6-1.6,3.2-3.2,4.8-4.8
				c0.3-0.4,0.7-0.5,1.2-0.5c1.2,0,2.3,0,3.6,0h3l-4.2,4.2c-3.1,3.1-6.3,6.3-9.4,9.4c-0.2,0.2-0.4,0.5-0.6,0.7
				c-0.1,0.1-0.1,0.2-0.2,0.2v0.4c0.2,0.4,0.5,0.7,0.8,0.7c0.3,0.1,0.7-0.1,1-0.4l12.8-12.8c0.7-0.7,1.4-1.4,2.1-2.1
				c0.2-0.2,0.6-0.4,1-0.4c1.4,0,2.9,0,4.3,0h1.1l1.2,0.3l-0.9,1.1c-0.1,0.1-0.2,0.2-0.2,0.3l-4.9,4.9c-5.9,5.9-11.7,11.7-17.6,17.6
				c-0.2,0.2-0.4,0.5-0.6,0.8c-0.1,0.1-0.1,0.1-0.2,0.2v0.4c0,0.1,0.1,0.1,0.1,0.1c0.1,0.3,0.4,0.5,0.7,0.6c0.3,0.1,0.6,0,0.9-0.3
				c0.1-0.1,0.1-0.1,0.2-0.2l2.6-2.6c7.5-7.5,15.1-15.1,22.6-22.6c0.4-0.4,0.9-0.5,1.3-0.5c1.2,0,2.4,0,3.5,0h3.4l-1.5,1.7L65.1,49
				c-6,6-12.2,12.3-18.4,18.5c-0.5,0.5-0.5,0.8-0.4,1.1c0.1,0.3,0.3,0.6,0.6,0.7s0.7,0,0.9-0.2c0.1-0.1,0.2-0.2,0.3-0.2l2.6-2.6
				C58.2,58.7,65.8,51.1,73.3,43.6z M69.5,34.7c0-3.5,1.7-5.2,5.3-5.3h0.8v0.8c0,3.5-1.8,5.3-5.3,5.3h-0.8L69.5,34.7z M47,31
				c1-1.1,2.6-1.8,4.2-1.7h0.7V30c-0.1,3.6-1.7,5.1-5.3,5.3h-0.7l-0.1-0.6C45.6,33.5,46.1,32.1,47,31z M43.7,35.5H43
				c-3.6-0.2-5.1-1.8-5.3-5.3v-0.6l0.6-0.1c1.4-0.2,2.8,0.2,3.8,1.1c1.2,1.1,1.8,2.6,1.7,4.2L43.7,35.5z M66.6,35.4
				c-3.5,0-5.2-1.7-5.4-5.3v-0.8H62c3.5,0.1,5.3,1.8,5.4,5.3v0.8H66.6z"/>
			<path class="st4" d="M76.5,26.7L76.5,26.7L76.5,26.7z"/>
		</g>
		<path class="st4" d="M76.9,48.5c-0.1,0-0.3-0.1-0.4-0.1c-0.3,0-0.5,0.1-0.8,0.4c-3.7,3.7-7.3,7.4-11,11.1l-4.5,4.5
			c-1,1-2.1,2.1-3.1,3.1c-0.3,0.3-0.4,0.7-0.3,1c0.1,0.3,0.4,0.6,0.7,0.7s0.6,0.1,1.1-0.4c2.4-2.4,4.8-4.8,7.2-7.3L77,50.2
			c0.3-0.3,0.4-0.5,0.4-1l0,0C77.5,49,77.3,48.7,76.9,48.5z"/>
		<path class="st4" d="M68.3,69.3c0.3,0,0.6-0.1,0.8-0.4c1.2-1.2,2.4-2.4,3.6-3.7l2.6-2.6c0.6-0.7,1.3-1.3,1.9-2
			c0.3-0.3,0.4-0.7,0.2-1.1c-0.1-0.3-0.5-0.6-0.8-0.6l0,0l0,0l0,0c-0.3,0-0.5,0.1-0.7,0.3l-8.1,8.2c-0.4,0.4-0.5,0.9-0.1,1.4
			C67.8,69.1,68,69.3,68.3,69.3z"/>
	</g>
</g>
</svg>
