<svg id="a5b81424-5f0a-407a-a714-6470e61b45ad" data-name="Calque 1" xmlns="http://www.w3.org/2000/svg" viewBox="0 0 180.2 30.08"><defs><style>.fd398f18-926e-4e9c-a382-a182587e527a{fill:#bebe87;}.b21c5caf-847c-4465-9fbe-78cdc8ee846f{fill:#7c7a77;}.af6b6eab-7571-4e30-8ad3-26554a13ec47{fill:#548585;}.f3e52e17-c232-42d7-a5fd-6cc59cce5e8f{fill:#5d666f;}</style></defs><title>lgd_graph_stockC</title><circle class="fd398f18-926e-4e9c-a382-a182587e527a" cx="6.19" cy="23.89" r="6.19"/><path class="b21c5caf-847c-4465-9fbe-78cdc8ee846f" d="M47.09,33.41V28.14h-.8V27.6h.8v-.76a2,2,0,0,1,.4-1.33,1.32,1.32,0,0,1,1.07-.46,1.81,1.81,0,0,1,.58.09l0,.55a2,2,0,0,0-.49-.06.83.83,0,0,0-.68.32,1.57,1.57,0,0,0-.24.94v.71h1.14v.54H47.69v5.27Z" transform="translate(-25.58 -5.87)"/><path class="b21c5caf-847c-4465-9fbe-78cdc8ee846f" d="M53.07,33.41a4,4,0,0,1-.11-.8,1.92,1.92,0,0,1-.69.67,1.79,1.79,0,0,1-.91.24,1.58,1.58,0,0,1-1.17-.42,1.66,1.66,0,0,1-.42-1.21,1.71,1.71,0,0,1,.58-1.36A2.4,2.4,0,0,1,52,30h1v-.81a1.16,1.16,0,0,0-.31-.9,1.35,1.35,0,0,0-.91-.27,1.29,1.29,0,0,0-.9.32,1.09,1.09,0,0,0-.36.84h-.59A1.58,1.58,0,0,1,50.42,28a1.93,1.93,0,0,1,1.35-.5,1.85,1.85,0,0,1,1.33.44,1.75,1.75,0,0,1,.45,1.29v2.85a4.08,4.08,0,0,0,.15,1.28v.06ZM51.43,33a1.65,1.65,0,0,0,.93-.28,1.6,1.6,0,0,0,.6-.73V30.53H52a2,2,0,0,0-1.23.36,1.2,1.2,0,0,0-.41.95C50.37,32.58,50.72,33,51.43,33Z" transform="translate(-25.58 -5.87)"/><path class="b21c5caf-847c-4465-9fbe-78cdc8ee846f" d="M55.15,25.93a.5.5,0,0,1,.11-.32.34.34,0,0,1,.29-.12.37.37,0,0,1,.29.12.49.49,0,0,1,.1.32.44.44,0,0,1-.1.3.35.35,0,0,1-.29.13.32.32,0,0,1-.29-.13A.44.44,0,0,1,55.15,25.93Zm.69,7.48h-.6V27.6h.6Z" transform="translate(-25.58 -5.87)"/><path class="b21c5caf-847c-4465-9fbe-78cdc8ee846f" d="M61.46,30.78a3.66,3.66,0,0,1-.47,2,1.56,1.56,0,0,1-1.4.7,1.64,1.64,0,0,1-1.52-.89l0,.78h-.55V25.16h.59v3.25a1.61,1.61,0,0,1,1.5-.92,1.58,1.58,0,0,1,1.4.67,3.52,3.52,0,0,1,.48,2Zm-.6-.54a3.29,3.29,0,0,0-.32-1.64,1.18,1.18,0,0,0-1.08-.53,1.4,1.4,0,0,0-1.38,1.05V32a1.5,1.5,0,0,0,.54.71,1.4,1.4,0,0,0,.85.25,1.14,1.14,0,0,0,1.05-.52,2.94,2.94,0,0,0,.34-1.61Z" transform="translate(-25.58 -5.87)"/><path class="b21c5caf-847c-4465-9fbe-78cdc8ee846f" d="M63.51,33.41H62.9V25.16h.61Z" transform="translate(-25.58 -5.87)"/><path class="b21c5caf-847c-4465-9fbe-78cdc8ee846f" d="M67.07,33.52a2,2,0,0,1-1.6-.67,2.83,2.83,0,0,1-.59-1.91v-.71a3.26,3.26,0,0,1,.55-2A1.86,1.86,0,0,1,67,27.49a1.74,1.74,0,0,1,1.44.62A3,3,0,0,1,68.92,30v.56H65.47v.33a2.47,2.47,0,0,0,.42,1.54A1.46,1.46,0,0,0,67.1,33a1.73,1.73,0,0,0,1.39-.63l.31.4A2,2,0,0,1,67.07,33.52ZM67,28.05a1.28,1.28,0,0,0-1.08.5A2.57,2.57,0,0,0,65.47,30h2.85v-.15C68.3,28.65,67.84,28.05,67,28.05Z" transform="translate(-25.58 -5.87)"/><circle class="af6b6eab-7571-4e30-8ad3-26554a13ec47" cx="73.17" cy="23.89" r="6.19"/><path class="b21c5caf-847c-4465-9fbe-78cdc8ee846f" d="M114.23,27.6v.87a1.7,1.7,0,0,1,1.56-1,1.39,1.39,0,0,1,1.45,1.07,2,2,0,0,1,.71-.8,1.74,1.74,0,0,1,.94-.27c1,0,1.58.68,1.61,2v3.9h-.6V29.55a2,2,0,0,0-.28-1.12,1,1,0,0,0-.88-.37,1.28,1.28,0,0,0-.94.43,1.78,1.78,0,0,0-.43,1.06v3.86h-.6V29.57a2,2,0,0,0-.28-1.14,1.05,1.05,0,0,0-.88-.37,1.22,1.22,0,0,0-.85.34,2,2,0,0,0-.52,1v4h-.59V27.6Z" transform="translate(-25.58 -5.87)"/><path class="b21c5caf-847c-4465-9fbe-78cdc8ee846f" d="M121.84,30.21a3.16,3.16,0,0,1,.57-2,1.87,1.87,0,0,1,1.55-.73,1.85,1.85,0,0,1,1.55.72,3.18,3.18,0,0,1,.58,2v.61a3.13,3.13,0,0,1-.58,2,2,2,0,0,1-3.08,0,3,3,0,0,1-.59-1.92Zm.6.6a2.7,2.7,0,0,0,.4,1.58A1.31,1.31,0,0,0,124,33a1.3,1.3,0,0,0,1.13-.55,2.81,2.81,0,0,0,.39-1.58v-.62a2.7,2.7,0,0,0-.41-1.58,1.36,1.36,0,0,0-2.22,0,2.67,2.67,0,0,0-.42,1.55Z" transform="translate(-25.58 -5.87)"/><path class="b21c5caf-847c-4465-9fbe-78cdc8ee846f" d="M128.93,32.43l1.38-4.83H131l-2,6.74-.12.32c-.27.73-.69,1.1-1.26,1.1a1.12,1.12,0,0,1-.43-.08v-.54a1.12,1.12,0,0,0,.27,0,.88.88,0,0,0,.64-.23,1.75,1.75,0,0,0,.41-.74l.24-.82-1.82-5.78h.65Z" transform="translate(-25.58 -5.87)"/><path class="b21c5caf-847c-4465-9fbe-78cdc8ee846f" d="M133.83,33.52a2,2,0,0,1-1.6-.67,2.89,2.89,0,0,1-.6-1.91v-.71a3.26,3.26,0,0,1,.56-2,1.86,1.86,0,0,1,1.54-.73,1.74,1.74,0,0,1,1.44.62,3,3,0,0,1,.51,1.89v.56h-3.45v.33a2.47,2.47,0,0,0,.42,1.54,1.46,1.46,0,0,0,1.21.54,1.74,1.74,0,0,0,1.39-.63l.31.4A2,2,0,0,1,133.83,33.52Zm-.1-5.47a1.28,1.28,0,0,0-1.08.5,2.5,2.5,0,0,0-.42,1.45h2.85v-.15Q135,28.05,133.73,28.05Z" transform="translate(-25.58 -5.87)"/><path class="b21c5caf-847c-4465-9fbe-78cdc8ee846f" d="M137.52,27.6v.93a2.13,2.13,0,0,1,.66-.76,1.6,1.6,0,0,1,.91-.28c1,0,1.53.68,1.56,2v3.89h-.59V29.58a2,2,0,0,0-.28-1.15,1,1,0,0,0-.84-.37,1.22,1.22,0,0,0-.84.35,2.25,2.25,0,0,0-.57,1v4H137V27.6Z" transform="translate(-25.58 -5.87)"/><circle class="f3e52e17-c232-42d7-a5fd-6cc59cce5e8f" cx="144.61" cy="23.89" r="6.19"/><path class="b21c5caf-847c-4465-9fbe-78cdc8ee846f" d="M187,33.52a2,2,0,0,1-1.61-.67,2.94,2.94,0,0,1-.59-1.91v-.71a3.26,3.26,0,0,1,.56-2,1.85,1.85,0,0,1,1.54-.73,1.74,1.74,0,0,1,1.44.62,3,3,0,0,1,.51,1.89v.56h-3.46v.33a2.47,2.47,0,0,0,.43,1.54,1.46,1.46,0,0,0,1.21.54,1.74,1.74,0,0,0,1.39-.63l.31.4A2,2,0,0,1,187,33.52Zm-.1-5.47a1.28,1.28,0,0,0-1.08.5,2.43,2.43,0,0,0-.42,1.45h2.85v-.15Q188.24,28.05,186.93,28.05Zm.69-2.83h.78l-1.24,1.51h-.56Z" transform="translate(-25.58 -5.87)"/><path class="b21c5caf-847c-4465-9fbe-78cdc8ee846f" d="M190.81,33.41h-.6V25.16h.6Z" transform="translate(-25.58 -5.87)"/><path class="b21c5caf-847c-4465-9fbe-78cdc8ee846f" d="M194.38,33.52a2,2,0,0,1-1.61-.67,2.94,2.94,0,0,1-.59-1.91v-.71a3.26,3.26,0,0,1,.56-2,1.84,1.84,0,0,1,1.54-.73,1.74,1.74,0,0,1,1.44.62,3,3,0,0,1,.51,1.89v.56h-3.46v.33a2.41,2.41,0,0,0,.43,1.54,1.44,1.44,0,0,0,1.2.54,1.75,1.75,0,0,0,1.4-.63l.31.4A2,2,0,0,1,194.38,33.52Zm-.1-5.47a1.31,1.31,0,0,0-1.09.5,2.5,2.5,0,0,0-.41,1.45h2.85v-.15Q195.58,28.05,194.28,28.05Z" transform="translate(-25.58 -5.87)"/><path class="b21c5caf-847c-4465-9fbe-78cdc8ee846f" d="M199,32.48l1.43-4.88H201l-1.81,5.81h-.48L196.9,27.6h.61Z" transform="translate(-25.58 -5.87)"/><path class="b21c5caf-847c-4465-9fbe-78cdc8ee846f" d="M203.94,33.52a2,2,0,0,1-1.61-.67,2.94,2.94,0,0,1-.59-1.91v-.71a3.26,3.26,0,0,1,.56-2,1.84,1.84,0,0,1,1.54-.73,1.74,1.74,0,0,1,1.44.62,3,3,0,0,1,.51,1.89v.56h-3.46v.33a2.47,2.47,0,0,0,.43,1.54A1.45,1.45,0,0,0,204,33a1.74,1.74,0,0,0,1.39-.63l.31.4A2,2,0,0,1,203.94,33.52Zm-.1-5.47a1.31,1.31,0,0,0-1.09.5,2.5,2.5,0,0,0-.41,1.45h2.85v-.15Q205.15,28.05,203.84,28.05Zm.69-2.83h.78l-1.24,1.51h-.57Z" transform="translate(-25.58 -5.87)"/><path class="b21c5caf-847c-4465-9fbe-78cdc8ee846f" d="M73.83,11.82a1.22,1.22,0,0,0-.32-.9,3.09,3.09,0,0,0-1.14-.6A5.56,5.56,0,0,1,71.1,9.7,2.18,2.18,0,0,1,70.45,9,1.93,1.93,0,0,1,70.23,8a2,2,0,0,1,.62-1.53,2.26,2.26,0,0,1,1.63-.6,2.38,2.38,0,0,1,1.22.31,2.06,2.06,0,0,1,.83.85,2.53,2.53,0,0,1,.29,1.2h-1a1.65,1.65,0,0,0-.35-1.12,1.25,1.25,0,0,0-1-.4,1.22,1.22,0,0,0-.93.34,1.25,1.25,0,0,0-.32.93,1.07,1.07,0,0,0,.35.83,3.26,3.26,0,0,0,1.1.6,3.73,3.73,0,0,1,1.65.94,2.11,2.11,0,0,1,.49,1.46,2,2,0,0,1-.61,1.52,2.42,2.42,0,0,1-1.69.57,2.77,2.77,0,0,1-1.25-.29,2.24,2.24,0,0,1-.91-.84A2.35,2.35,0,0,1,70,11.53h1a1.53,1.53,0,0,0,.4,1.13,1.49,1.49,0,0,0,1.1.4,1.32,1.32,0,0,0,1-.33A1.24,1.24,0,0,0,73.83,11.82Z" transform="translate(-25.58 -5.87)"/><path class="b21c5caf-847c-4465-9fbe-78cdc8ee846f" d="M80.68,6.82H78.63v7h-1v-7h-2V6h5.09Z" transform="translate(-25.58 -5.87)"/><path class="b21c5caf-847c-4465-9fbe-78cdc8ee846f" d="M86.77,10.57A3.88,3.88,0,0,1,86.09,13a2.31,2.31,0,0,1-1.94.86,2.37,2.37,0,0,1-1.91-.84,3.7,3.7,0,0,1-.72-2.37V9.21a3.9,3.9,0,0,1,.69-2.45,2.29,2.29,0,0,1,1.93-.89,2.33,2.33,0,0,1,1.93.85,3.84,3.84,0,0,1,.7,2.43Zm-1-1.37a3.35,3.35,0,0,0-.4-1.84,1.41,1.41,0,0,0-1.25-.61,1.4,1.4,0,0,0-1.23.62,3.37,3.37,0,0,0-.42,1.8v1.4a3.3,3.3,0,0,0,.42,1.83,1.39,1.39,0,0,0,1.24.63,1.41,1.41,0,0,0,1.23-.58,3.31,3.31,0,0,0,.41-1.78Z" transform="translate(-25.58 -5.87)"/><path class="b21c5caf-847c-4465-9fbe-78cdc8ee846f" d="M93.2,11.31a2.84,2.84,0,0,1-.71,1.92,2.38,2.38,0,0,1-1.81.67A2.22,2.22,0,0,1,88.81,13a3.9,3.9,0,0,1-.69-2.43V9.17a3.75,3.75,0,0,1,.71-2.42,2.34,2.34,0,0,1,1.94-.88,2.21,2.21,0,0,1,1.75.68,2.93,2.93,0,0,1,.68,1.93h-1a2.36,2.36,0,0,0-.4-1.36,1.26,1.26,0,0,0-1-.41,1.41,1.41,0,0,0-1.23.63,3.19,3.19,0,0,0-.43,1.83v1.44a3.41,3.41,0,0,0,.4,1.82,1.31,1.31,0,0,0,1.17.63,1.45,1.45,0,0,0,1.11-.38,2.44,2.44,0,0,0,.41-1.37Z" transform="translate(-25.58 -5.87)"/><path class="b21c5caf-847c-4465-9fbe-78cdc8ee846f" d="M96.28,10.19l-.77.93V13.8h-1V6h1V9.75l.65-.85L98.26,6h1.18L96.9,9.42l2.74,4.38H98.47Z" transform="translate(-25.58 -5.87)"/><path class="b21c5caf-847c-4465-9fbe-78cdc8ee846f" d="M103,13.8V6h1.87a2.67,2.67,0,0,1,2.12.85,3.5,3.5,0,0,1,.76,2.41v1.31A3.4,3.4,0,0,1,107,13a2.86,2.86,0,0,1-2.23.85Zm1-7V13h.79a1.81,1.81,0,0,0,1.51-.59,2.82,2.82,0,0,0,.49-1.76V9.21a2.8,2.8,0,0,0-.48-1.81,1.72,1.72,0,0,0-1.43-.58Z" transform="translate(-25.58 -5.87)"/><path class="b21c5caf-847c-4465-9fbe-78cdc8ee846f" d="M113.07,10.18h-2.76V13h3.22v.85h-4.21V6h4.15v.84h-3.16V9.34h2.76Z" transform="translate(-25.58 -5.87)"/><path class="b21c5caf-847c-4465-9fbe-78cdc8ee846f" d="M122.21,11.31a2.89,2.89,0,0,1-.71,1.92,2.38,2.38,0,0,1-1.81.67,2.22,2.22,0,0,1-1.87-.89,3.9,3.9,0,0,1-.69-2.43V9.17a3.75,3.75,0,0,1,.71-2.42,2.34,2.34,0,0,1,1.94-.88,2.21,2.21,0,0,1,1.75.68,2.93,2.93,0,0,1,.68,1.93h-1a2.36,2.36,0,0,0-.4-1.36,1.26,1.26,0,0,0-1-.41,1.41,1.41,0,0,0-1.23.63,3.19,3.19,0,0,0-.43,1.83v1.44a3.41,3.41,0,0,0,.4,1.82,1.31,1.31,0,0,0,1.17.63,1.45,1.45,0,0,0,1.11-.38,2.44,2.44,0,0,0,.41-1.37Z" transform="translate(-25.58 -5.87)"/><path class="b21c5caf-847c-4465-9fbe-78cdc8ee846f" d="M127.19,11.75h-2.65l-.6,2.05h-1L125.45,6h.84l2.52,7.82h-1Zm-2.39-.84h2.13l-1.06-3.56Z" transform="translate(-25.58 -5.87)"/><path class="b21c5caf-847c-4465-9fbe-78cdc8ee846f" d="M132.24,10.63h-1.37V13.8h-1V6h2.19a2.36,2.36,0,0,1,1.74.59,2.43,2.43,0,0,1,.59,1.76,2.46,2.46,0,0,1-.32,1.26,2,2,0,0,1-.9.82l1.51,3.32v.07h-1.06Zm-1.37-.84h1.19a1.25,1.25,0,0,0,1-.4,1.47,1.47,0,0,0,.37-1.06c0-1-.45-1.51-1.36-1.51h-1.18Z" transform="translate(-25.58 -5.87)"/><path class="b21c5caf-847c-4465-9fbe-78cdc8ee846f" d="M135.72,13.8V6h2.22a2.21,2.21,0,0,1,1.61.52,2.05,2.05,0,0,1,.54,1.56,1.77,1.77,0,0,1-.27,1,1.87,1.87,0,0,1-.74.65,1.42,1.42,0,0,1,.85.66,2.19,2.19,0,0,1,.31,1.2,2.3,2.3,0,0,1-.57,1.65,2.17,2.17,0,0,1-1.65.61Zm1-4.49H138a1.07,1.07,0,0,0,.83-.34,1.36,1.36,0,0,0,.31-.92,1.28,1.28,0,0,0-.29-.94,1.15,1.15,0,0,0-.87-.29H136.7Zm0,.83V13H138a1.15,1.15,0,0,0,.89-.36,1.53,1.53,0,0,0,.33-1q0-1.41-1.2-1.41Z" transform="translate(-25.58 -5.87)"/><path class="b21c5caf-847c-4465-9fbe-78cdc8ee846f" d="M146.8,10.57a4,4,0,0,1-.68,2.47,2.31,2.31,0,0,1-1.94.86,2.37,2.37,0,0,1-1.91-.84,3.7,3.7,0,0,1-.73-2.37V9.21a3.84,3.84,0,0,1,.7-2.45,2.28,2.28,0,0,1,1.93-.89,2.35,2.35,0,0,1,1.93.85,3.84,3.84,0,0,1,.7,2.43Zm-1-1.37a3.34,3.34,0,0,0-.41-1.84,1.55,1.55,0,0,0-2.47,0,3.28,3.28,0,0,0-.42,1.8v1.4a3.3,3.3,0,0,0,.42,1.83,1.39,1.39,0,0,0,1.24.63,1.41,1.41,0,0,0,1.23-.58,3.31,3.31,0,0,0,.41-1.78Z" transform="translate(-25.58 -5.87)"/><path class="b21c5caf-847c-4465-9fbe-78cdc8ee846f" d="M153.43,13.8h-1l-3.13-6v6h-1V6h1l3.14,6V6h1Z" transform="translate(-25.58 -5.87)"/><path class="b21c5caf-847c-4465-9fbe-78cdc8ee846f" d="M158.88,10.18h-2.76V13h3.22v.85h-4.21V6h4.15v.84h-3.16V9.34h2.76Z" transform="translate(-25.58 -5.87)"/></svg>