<?xml version="1.0" encoding="utf-8"?>
<!-- Generator: Adobe Illustrator 23.0.1, SVG Export Plug-In . SVG Version: 6.00 Build 0)  -->
<svg version="1.1" xmlns="http://www.w3.org/2000/svg" xmlns:xlink="http://www.w3.org/1999/xlink" x="0px" y="0px"
	 viewBox="0 0 100 100" style="enable-background:new 0 0 100 100;" xml:space="preserve">
<style type="text/css">
	.st0{fill:#905B63;}
	.st1{fill:#FFFFFF;}
	.st2{display:none;}
	.st3{display:inline;}
	.st4{fill:#F28E67;}
	.st5{fill:#EFB556;}
	.st6{fill:#BFBF88;}
	.st7{opacity:0.34;fill:#407777;}
	.st8{fill:#407777;}
</style>
<g id="Calque_1">
	<g>
		<path class="st0" d="M80.9,92.9H19.1c-6.6,0-12-5.4-12-12V19.1c0-6.6,5.4-12,12-12h61.7c6.6,0,12,5.4,12,12v61.7
			C92.9,87.5,87.5,92.9,80.9,92.9z"/>
		<g>
			<g>
				<path class="st1" d="M66.7,45.6C67,45.3,67.4,45,68,45c0.6,0,1.1,0,1.7,0l0.2,0c0.5,0,1-0.4,1-1c0-0.5-0.4-1-1-1l-4.3,0l-2.9,0
					v-3.5l0.6-0.1c0.3-0.1,0.6-0.1,0.9-0.2c0.7-0.1,1.3-0.2,1.9-0.4c2.5-0.7,4-2.4,4.5-5.1c0.2-1.1,0.2-2.2,0.2-3.4
					c0-0.4-0.1-0.9-1.1-1.1c-0.1,0-0.2,0-0.3-0.1h-2.1l-0.4,0.1c-0.4,0.1-0.7,0.1-1.1,0.2c-1.7,0.4-2.2,0.7-3.8,2.2l-0.6,0.5
					l-0.5-0.6c-0.8-1-1.9-1.7-3.4-2.1c-0.4-0.1-0.8-0.2-1.3-0.3L56,29.4l-2.1,0c-0.1,0-0.2,0-0.4,0.1c-0.3,0.1-0.7,0.3-0.8,0.9
					c-0.1,2,0.1,3.7,0.7,5.1c0.8,1.9,2.4,3.1,4.7,3.6c0.4,0.1,0.9,0.2,1.3,0.2l1.3,0.2v3.5H39.1v-3.5l1.3-0.2
					c0.5-0.1,0.9-0.1,1.4-0.2c3.2-0.6,4.8-2.4,5.4-5.7c0.1-0.9,0.2-1.8,0.2-2.7l0-0.2c0-0.7-0.3-1.1-1.1-1.1c-0.1,0-0.2,0-0.3-0.1
					h-2l-0.4,0.1c-0.4,0.1-0.7,0.1-1.1,0.2c-1.6,0.4-2.8,1.1-3.7,2.2l-0.6,0.7l-0.6-0.7c-1.1-1.3-2.5-2-4.5-2.4l-0.7-0.1l-2.1,0
					c-0.1,0-0.3,0-0.4,0.1c-0.3,0.1-0.6,0.2-0.8,0.9v2.2l0.1,0.6c0.1,0.5,0.2,0.9,0.3,1.4c0.7,2.6,2.3,4.1,5.1,4.6
					c0.4,0.1,0.9,0.2,1.3,0.2l1.3,0.2V43l-0.7,0.1c-0.2,0-0.3,0-0.4,0l-1.6,0c-1.3,0-2.7,0-4,0c-0.9,0-1.2,0.2-1.4,0.7v0.5
					c0.3,0.5,0.5,0.6,0.7,0.7c0.4,0,0.7,0,1.1,0c0.2,0,0.4,0,0.6,0H32l0.3,0.9L32,46.4L31.4,47c-0.5,0.5-1,1-1.5,1.5
					c-0.2,0.2-0.4,0.5-0.6,0.8l-0.2,0.2V50c0,0,0,0,0,0.1c0.2,0.4,0.4,0.6,0.7,0.7c0.3,0.1,0.6-0.1,0.9-0.3c1.6-1.6,3.2-3.2,4.8-4.8
					c0.3-0.4,0.7-0.5,1.2-0.5c1.2,0,2.3,0,3.6,0l3,0l-4.2,4.2c-3.1,3.1-6.3,6.3-9.4,9.4c-0.2,0.2-0.4,0.5-0.6,0.7
					c-0.1,0.1-0.1,0.2-0.2,0.2l0,0.4c0.2,0.4,0.5,0.7,0.8,0.7c0.3,0.1,0.7-0.1,1-0.4l12.8-12.8c0.7-0.7,1.4-1.4,2.1-2.1
					c0.2-0.2,0.6-0.4,1-0.4c1.4,0,2.9,0,4.3,0l1.1,0l1.2,0.3l-0.9,1.1c-0.1,0.1-0.2,0.2-0.2,0.3l-4.9,4.9
					c-5.9,5.9-11.7,11.7-17.6,17.6c-0.2,0.2-0.4,0.5-0.6,0.8c-0.1,0.1-0.1,0.1-0.2,0.2v0.4c0,0.1,0.1,0.1,0.1,0.1
					c0.1,0.3,0.4,0.5,0.7,0.6c0.3,0.1,0.6,0,0.9-0.3c0.1-0.1,0.1-0.1,0.2-0.2l2.6-2.6c7.5-7.5,15.1-15.1,22.6-22.6
					c0.4-0.4,0.9-0.5,1.3-0.5c1.2,0,2.4,0,3.5,0h3.4l-1.5,1.7l-4.1,4.1C52.5,57,46.3,63.3,40.1,69.5c-0.5,0.5-0.5,0.8-0.4,1.1
					c0.1,0.3,0.3,0.6,0.6,0.7c0.3,0.1,0.7,0,0.9-0.2c0.1-0.1,0.2-0.2,0.3-0.2l2.6-2.6C51.6,60.7,59.2,53.1,66.7,45.6z M62.9,36.7
					c0-3.5,1.7-5.2,5.3-5.3l0.8,0l0,0.8c0,3.5-1.8,5.3-5.3,5.3l-0.8,0L62.9,36.7z M40.4,33c1-1.1,2.6-1.8,4.2-1.7l0.7,0l0,0.7
					c-0.1,3.6-1.7,5.1-5.3,5.3l-0.7,0l-0.1-0.6C39,35.5,39.5,34.1,40.4,33z M37.1,37.5l-0.7,0c-3.6-0.2-5.1-1.8-5.3-5.3l0-0.6
					l0.6-0.1c1.4-0.2,2.8,0.2,3.8,1.1c1.2,1.1,1.8,2.6,1.7,4.2L37.1,37.5z M60,37.4c-3.5,0-5.2-1.7-5.4-5.3l0-0.8l0.8,0
					c3.5,0.1,5.3,1.8,5.4,5.3l0,0.8L60,37.4z"/>
				<polygon class="st1" points="69.9,28.7 69.9,28.7 69.9,28.7 				"/>
			</g>
			<path class="st1" d="M70.3,50.5c-0.1,0-0.3-0.1-0.4-0.1c-0.3,0-0.5,0.1-0.8,0.4c-3.7,3.7-7.3,7.4-11,11.1l-4.5,4.5
				c-1,1-2.1,2.1-3.1,3.1c-0.3,0.3-0.4,0.7-0.3,1c0.1,0.3,0.4,0.6,0.7,0.7c0.3,0.1,0.6,0.1,1.1-0.4c2.4-2.4,4.8-4.8,7.2-7.3
				l11.2-11.3c0.3-0.3,0.4-0.5,0.4-1v0C70.9,51,70.7,50.7,70.3,50.5z"/>
			<path class="st1" d="M61.7,71.3c0.3,0,0.6-0.1,0.8-0.4c1.2-1.2,2.4-2.4,3.6-3.7l2.6-2.6c0.6-0.7,1.3-1.3,1.9-2
				c0.3-0.3,0.4-0.7,0.2-1.1c-0.1-0.3-0.5-0.6-0.8-0.6c0,0,0,0,0,0h0c0,0,0,0,0,0c-0.3,0-0.5,0.1-0.7,0.3l-8.1,8.2
				c-0.4,0.4-0.5,0.9-0.1,1.4C61.2,71.1,61.4,71.3,61.7,71.3z"/>
		</g>
	</g>
</g>
<g id="Calque_5" class="st2">
	<g class="st3">
		<path class="st4" d="M80.9,92.9H19.1c-6.6,0-12-5.4-12-12V19.1c0-6.6,5.4-12,12-12h61.7c6.6,0,12,5.4,12,12v61.7
			C92.9,87.5,87.5,92.9,80.9,92.9z"/>
		<g>
			<path class="st1" d="M30.9,38.1h38.3c0.7,0,1.2-0.6,1.2-1.2s-0.6-1.2-1.2-1.2H30.9c-0.7,0-1.2,0.6-1.2,1.2S30.2,38.1,30.9,38.1z"
				/>
			<path class="st1" d="M69.1,44.4H30.9c-0.7,0-1.2,0.6-1.2,1.2s0.6,1.2,1.2,1.2h38.3c0.7,0,1.2-0.6,1.2-1.2S69.8,44.4,69.1,44.4z"
				/>
			<path class="st1" d="M69.1,53.1H30.9c-0.7,0-1.2,0.6-1.2,1.2s0.6,1.2,1.2,1.2h38.3c0.7,0,1.2-0.6,1.2-1.2S69.8,53.1,69.1,53.1z"
				/>
			<path class="st1" d="M69.1,61.9H30.9c-0.7,0-1.2,0.6-1.2,1.2s0.6,1.2,1.2,1.2h38.3c0.7,0,1.2-0.6,1.2-1.2S69.8,61.9,69.1,61.9z"
				/>
		</g>
	</g>
</g>
<g id="Calque_4" class="st2">
	<g class="st3">
		<path class="st5" d="M80.9,92.9H19.1c-6.6,0-12-5.4-12-12V19.1c0-6.6,5.4-12,12-12h61.7c6.6,0,12,5.4,12,12v61.7
			C92.9,87.5,87.5,92.9,80.9,92.9z"/>
		<path class="st1" d="M66.9,34.8c-3.1-3.5-6.9-5.8-11.4-6.9c-0.8-0.2-1.7-0.3-2.5-0.4c-0.4-0.1-0.8-0.1-1.2-0.2
			c-0.1,0-0.2,0-0.3-0.1l-3.1,0l-0.6,0.1c-0.4,0.1-0.8,0.1-1.3,0.2c-5.4,0.9-10,3.4-13.7,7.5c-3,3.4-4.8,7.3-5.3,11.7
			c-0.8,6.4,0.7,12.1,4.7,17.1c3.5,4.4,8.1,7.2,13.5,8.2c6.7,1.2,12.9-0.3,18.2-4.5c4.3-3.4,7.1-8,8.2-13.5c0.1-0.5,0.2-1,0.2-1.5
			c0-0.3,0.1-0.5,0.1-0.8c0-0.1,0-0.2,0.1-0.3l0-3.1l-0.1-0.7c-0.1-0.6-0.2-1.1-0.3-1.7C71.6,41.8,69.8,38,66.9,34.8z M51,29.7
			c0-0.1,0.1-0.3,0.2-0.4c0.1-0.1,0.2-0.1,0.4-0.1c4.5,0.4,8.5,2,12,5c0.1,0.1,0.2,0.2,0.2,0.4c0,0.1,0,0.3-0.1,0.4L56.4,42
			c-0.1,0.1-0.2,0.1-0.4,0.1c-0.1,0-0.2,0-0.3-0.1c-1.3-1-2.8-1.6-4.4-1.8c-0.2,0-0.4-0.3-0.4-0.5V29.7z M36.5,34.2
			c3.4-2.9,7.5-4.6,12-4.9c0.1,0,0.3,0,0.4,0.1c0.1,0.1,0.2,0.2,0.2,0.4v10c0,0.2-0.1,0.4-0.4,0.5c-0.3,0.1-0.5,0.2-0.8,0.2
			c-0.6,0.2-1.1,0.3-1.6,0.5c-0.5,0.2-1,0.5-1.5,0.8c-0.2,0.1-0.4,0.3-0.7,0.4c-0.1,0-0.2,0.1-0.2,0.1c-0.1,0-0.3-0.1-0.4-0.1
			l-7-7.1c-0.1-0.1-0.2-0.2-0.1-0.4S36.4,34.3,36.5,34.2z M34.3,36.4c0.1-0.1,0.2-0.2,0.4-0.2c0.1,0,0.3,0,0.4,0.1l7.1,7
			c0.2,0.2,0.2,0.4,0.1,0.6c-0.1,0.2-0.2,0.4-0.4,0.7c-0.3,0.5-0.6,1-0.8,1.5c-0.2,0.5-0.4,1-0.5,1.6c-0.1,0.3-0.1,0.5-0.2,0.8
			c-0.1,0.2-0.3,0.4-0.5,0.4h-10c-0.1,0-0.3-0.1-0.4-0.2c-0.1-0.1-0.1-0.2-0.1-0.4C29.7,43.9,31.4,39.8,34.3,36.4z M34.6,63.5
			C34.6,63.5,34.6,63.5,34.6,63.5c-0.2,0-0.3-0.1-0.4-0.2c-2.9-3.4-4.6-7.5-4.9-12c0-0.1,0-0.3,0.1-0.4c0.1-0.1,0.2-0.2,0.4-0.2h10
			c0.2,0,0.5,0.2,0.5,0.4c0.3,1.6,0.9,3.1,1.8,4.3c0.1,0.2,0.1,0.5,0,0.7L35,63.4C34.9,63.5,34.8,63.5,34.6,63.5z M49,70
			c0,0.1-0.1,0.3-0.2,0.4c-0.1,0.1-0.2,0.1-0.3,0.1c0,0,0,0,0,0c-4.5-0.4-8.5-2-12-4.9c-0.1-0.1-0.2-0.2-0.2-0.4
			c0-0.1,0-0.3,0.1-0.4l7.1-7.1c0.2-0.2,0.4-0.2,0.6-0.1c0.2,0.1,0.4,0.2,0.6,0.4c0.5,0.3,1,0.6,1.5,0.8c0.5,0.2,1,0.4,1.6,0.5
			c0.3,0.1,0.5,0.1,0.8,0.2c0.2,0.1,0.4,0.3,0.4,0.5V70z M49.9,57.7C49.9,57.7,49.9,57.7,49.9,57.7c-2.1,0-4-0.8-5.5-2.3
			c-1.5-1.5-2.3-3.4-2.3-5.5c0-4.5,3.5-7.8,8-7.8c0,0,0,0,0.1,0c4.1,0,7.6,3.6,7.6,7.8v0C57.8,54.3,54.3,57.7,49.9,57.7z M63.5,65.6
			c-3.4,2.9-7.4,4.6-12,5c0,0,0,0,0,0c-0.1,0-0.2,0-0.3-0.1C51,70.3,51,70.2,51,70V60c0-0.2,0.2-0.5,0.4-0.5
			c1.6-0.2,3.1-0.9,4.4-1.8c0.2-0.1,0.5-0.1,0.7,0.1l7.1,7.1c0.1,0.1,0.2,0.2,0.1,0.4C63.7,65.4,63.6,65.5,63.5,65.6z M65.6,63.5
			c-0.1,0.1-0.2,0.1-0.4,0.1c-0.1,0-0.3-0.1-0.4-0.1l-7-7.1c-0.2-0.2-0.2-0.5,0-0.7c1-1.4,1.6-2.8,1.8-4.5c0-0.2,0.2-0.4,0.5-0.4h10
			c0.3,0,0.5,0.2,0.5,0.4C71,54.2,68.3,60.8,65.6,63.5z M70.5,48.8c-0.1,0.1-0.2,0.2-0.4,0.2h-10c-0.2,0-0.5-0.2-0.5-0.4
			c-0.3-1.6-0.9-3.1-1.8-4.4c-0.1-0.2-0.1-0.5,0-0.7l7.1-7.1c0.1-0.1,0.2-0.2,0.4-0.1c0.1,0,0.3,0.1,0.4,0.2c2.9,3.4,4.6,7.5,4.9,12
			C70.7,48.5,70.6,48.7,70.5,48.8z"/>
	</g>
</g>
<g id="Calque_3" class="st2">
	<g class="st3">
		<path class="st6" d="M80.9,92.9H19.1c-6.6,0-12-5.4-12-12V19.1c0-6.6,5.4-12,12-12h61.7c6.6,0,12,5.4,12,12v61.7
			C92.9,87.5,87.5,92.9,80.9,92.9z"/>
		<g>
			<circle class="st1" cx="31.9" cy="35.5" r="3"/>
			<circle class="st1" cx="43.8" cy="35.5" r="3"/>
			<circle class="st1" cx="56" cy="35.5" r="3"/>
			<circle class="st1" cx="68.1" cy="35.5" r="3"/>
			<circle class="st1" cx="37.8" cy="46.4" r="3"/>
			<circle class="st1" cx="50" cy="46.4" r="3"/>
			<circle class="st1" cx="62.2" cy="46.4" r="3"/>
			<circle class="st1" cx="31.9" cy="57.2" r="3"/>
			<circle class="st1" cx="43.8" cy="57.2" r="3"/>
			<circle class="st1" cx="56" cy="57.2" r="3"/>
			<circle class="st1" cx="68.1" cy="57.2" r="3"/>
			<circle class="st1" cx="37.8" cy="68" r="3"/>
			<circle class="st1" cx="50" cy="68" r="3"/>
			<circle class="st1" cx="62.2" cy="68" r="3"/>
		</g>
	</g>
</g>
<g id="Calque_2" class="st2">
	<g class="st3">
		<path class="st7" d="M80.9,92.9H19.1c-6.6,0-12-5.4-12-12V19.1c0-6.6,5.4-12,12-12h61.7c6.6,0,12,5.4,12,12v61.7
			C92.9,87.5,87.5,92.9,80.9,92.9z"/>
		<path class="st8" d="M48.5,28.6c1,0,2,0,3,0c0.4,0.1,0.8,0.2,1.3,0.3c8.6,1.8,13.8,9.9,12,18.7c-1.2,5.6-3.7,10.5-7.1,14.9
			c-2.4,3.1-5.1,6-7.7,8.9c-0.1,0-0.1,0-0.2,0c-0.7-0.9-1.4-1.9-2.2-2.8c-3.3-3.6-6.2-7.4-8.6-11.7c-2.1-3.8-3.8-7.6-4.1-12
			c-0.5-6.6,3.4-12.8,9.6-15.2C45.8,29.2,47.1,28.9,48.5,28.6z M50.1,36.9c-3.7-0.1-6.9,2.9-7,6.5c-0.1,3.9,2.8,7.2,6.5,7.3
			c3.9,0.1,7.1-2.8,7.2-6.6C56.9,40.1,54,37,50.1,36.9z"/>
	</g>
</g>
</svg>
