<?xml version="1.0" encoding="utf-8"?>
<!-- Generator: Adobe Illustrator 23.0.1, SVG Export Plug-In . SVG Version: 6.00 Build 0)  -->
<svg version="1.1" xmlns="http://www.w3.org/2000/svg" xmlns:xlink="http://www.w3.org/1999/xlink" x="0px" y="0px"
	 viewBox="0 0 247.3 54" style="enable-background:new 0 0 247.3 54;" xml:space="preserve">
<style type="text/css">
	.st0{display:none;}
	.st1{display:inline;fill:#463E3C;}
	.st2{display:inline;fill:#6D6660;}
	.st3{display:inline;fill:#FFFFFF;}
	.st4{display:inline;fill:#AC9F95;}
	.st5{display:inline;fill:#407777;}
	.st6{display:inline;fill:#BFBF88;}
	.st7{display:inline;}
	.st8{fill:#BFBF88;}
	.st9{fill:#463E3C;}
	.st10{fill:#6D6660;}
	.st11{fill:#CEC8BE;}
	.st12{fill:#AC9F95;}
	.st13{fill:#407777;}
	.st14{fill:#6B625D;}
</style>
<g id="fonce" class="st0">
	<path class="st1" d="M60.6,45.7c0.5-0.9,0.2-2-0.5-2.1c-3.3-0.8-1.9-2.7-1.2-4.4c3.3,0,6.6,0,9.9,0c0.2,2-0.1,4-0.4,6
		c-2.3,0.3-4.7-0.6-6.9,0.5C61.2,45.7,60.9,45.7,60.6,45.7z"/>
	<path class="st1" d="M48.4,39.1c2.1,0.2,4.2,0.4,6.3,0.7c1.1,0.1,1.6,0.6,1.1,1.7c-0.7,1.6-0.8,2.9,1.4,3.4
		c0.6,0.1,0.6,0.6-0.1,0.9c-0.8-0.7-1.8-0.4-2.7-0.4c-15.4,0-30.9,0-46.3,0c0-2,0-4.1,0-6.1c0.2,0,0.3,0,0.5,0
		C21.8,39.1,35.1,39.1,48.4,39.1z"/>
	<path class="st2" d="M8.1,45.2c15.4,0,30.9,0,46.3,0c0.9,0,1.9-0.3,2.7,0.4c0,0-0.2,0-0.2,0c-15.6,0-31.3,0-46.9,0
		C9.3,45.7,8.5,46.2,8.1,45.2z"/>
	<path class="st2" d="M61.5,45.7c2.3-1.1,4.6-0.2,6.9-0.5c0,0.2,0.1,0.3,0.1,0.5C66.2,45.7,63.9,45.7,61.5,45.7z"/>
	<path class="st3" d="M9.8,16.6c0.1-2.3,0.1-4.7,0.1-7c0-1,0.4-1.5,1.4-1.3c0.3,0,0.6,0,0.9,0c18.6,0,37.2,0,55.7,0
		c1.9,0,2.5,0.4,2.4,2.4c-0.5,5.8-0.4,5.8-6.5,5.7c-1,0-2.1,0-3-0.2C59.2,15.8,58,16,57,17.4c-0.6,0.9-1.3,1-1.8-0.2
		c-0.2-0.5-0.5-0.9-0.8-1.4c-2.4-4-3-4.2-7.5-2.9c-0.3,0.1-0.7,0.2-0.8,0.4c-0.2,2.6-2.2,1.9-3.7,2c-4.1,0.2-8,0.9-12.1,1.4
		C23.5,16.6,16.6,16.6,9.8,16.6z"/>
	<path class="st4" d="M69.5,23.6c0.2,3.2-0.3,6.3-0.5,9.4c-7.7,0-15.5,0-23.2,0c-2.7-0.7-5.3-1.6-8-2.1c-1.7-0.3-2.5-2.2-4.2-2.8
		c-0.1,0-0.1-0.1-0.2-0.2c2.2-0.8-0.1-3.6,2-4.5C46.8,23.6,58.1,23.6,69.5,23.6z"/>
	<path class="st5" d="M48.4,39.1c-13.3,0-26.6,0-39.8,0c0.2-2,0.3-4,0.5-6c8.6,0,17.2,0,25.8,0c3.1,0.4,6.2,0.8,9.1,2.1
		C45.8,35.9,47.8,36.7,48.4,39.1z"/>
	<path class="st4" d="M34.8,33c-8.6,0-17.2,0-25.8,0c-0.1-3.2,0.1-6.3,0.5-9.4c7.2,0,14.3,0,21.5,0c0.9,1.4,0.8,2.2-1.1,2.5
		c-0.8,0.1-2.2-0.1-2,1.6c0.2,1.4,1,1.7,2.2,2C31.9,30.2,34.3,30.2,34.8,33z"/>
	<path class="st6" d="M69.5,23.6c-11.3,0-22.7-0.1-34-0.1c0.4-1.5-0.4-2.3-1.7-2.8c-0.8-0.3-1.8-0.4-2.6-1.4c1.8-1,3.8-1,5.6-1.2
		c3-0.3,6.1-0.5,9.1-0.6c1-0.1,1.7-0.2,2.1-1.4c0.5-1.6,2.6-1.8,3.6-0.4c0.9,1.3,1.6,2.7,2.4,4c0.9,1.6,2.2,2,3.3,0.6
		c1.6-1.9,3.5-2,5.6-1.8c1.7,0.2,3.4,0.2,5.1,0.1c1.7-0.1,2.1,0.5,1.8,2C69.6,21.6,69.6,22.6,69.5,23.6z"/>
	<path class="st6" d="M30.9,23.6c-7.2,0-14.3,0-21.5,0c-0.1-2.4,0-4.7,0.3-7.1c6.9,0,13.7,0.1,20.6,0.1c-0.5,0.6-2.2,0.1-1.8,1.6
		c0.4,1.4-0.1,3.5,2.1,3.9C32.1,22.5,31.9,23,30.9,23.6z"/>
	<path class="st5" d="M45.8,33.1c7.7,0,15.5,0,23.2,0c-0.1,2-0.1,4.1-0.2,6.1c-3.3,0-6.6,0-9.9,0c-0.6-1.4-2.1-1.4-3.2-1.5
		C51.7,37.6,48.7,35.4,45.8,33.1z"/>
	<g class="st7">
		<path class="st8" d="M84,38.3c0.1-0.5,0-0.9-0.2-1.2c-0.2-0.3-0.6-0.7-1.3-1c-0.7-0.3-1.2-0.6-1.7-1c-1.2-0.9-1.8-2.1-1.7-3.5
			c0.1-0.8,0.3-1.5,0.8-2.2c0.4-0.6,1-1.1,1.8-1.5c0.8-0.4,1.6-0.5,2.4-0.5c1.2,0,2.2,0.5,2.9,1.3c0.7,0.8,1,1.9,1,3.2l-2.9,0
			c0.1-1.4-0.4-2.1-1.3-2.1c-0.5,0-0.9,0.1-1.3,0.5c-0.3,0.3-0.6,0.8-0.6,1.3c-0.1,0.8,0.4,1.4,1.6,2c1.2,0.6,2,1.2,2.5,1.9
			c0.6,0.8,0.8,1.7,0.7,2.8c-0.1,1.3-0.6,2.3-1.5,3c-0.9,0.8-2,1.1-3.4,1.1c-1.3,0-2.4-0.5-3.2-1.4c-0.8-0.9-1.1-2-1.1-3.4l2.9,0
			c-0.1,0.9,0.1,1.5,0.3,1.8c0.3,0.4,0.7,0.6,1.3,0.6c0.5,0,0.9-0.2,1.2-0.5C83.7,39.2,83.9,38.8,84,38.3z"/>
		<path class="st8" d="M93.1,42.4c-1.3,0-2.3-0.4-3-1.3c-0.7-0.8-1.2-1.9-1.2-3.4c0-0.5,0-1,0.1-1.5l0.4-2.4
			c0.2-1.3,0.6-2.4,1.1-3.4c0.6-1,1.3-1.7,2.1-2.2s1.8-0.7,2.8-0.7c1.3,0,2.3,0.5,3,1.3c0.7,0.9,1.1,2,1.2,3.5c0,0.6,0,1.1-0.1,1.6
			l-0.3,2.2c-0.3,2-1,3.5-2,4.7C96,41.9,94.7,42.4,93.1,42.4z M96.6,33.8c0.1-0.7,0.1-1.2,0.1-1.6c0-1.5-0.6-2.2-1.6-2.3
			c-0.8,0-1.4,0.3-1.9,0.9c-0.5,0.6-0.8,1.6-1,3l-0.3,2.4c-0.1,0.7-0.1,1.2-0.1,1.5c0,1.4,0.6,2.1,1.6,2.2c0.8,0,1.4-0.3,1.9-0.8
			c0.5-0.6,0.8-1.5,1-2.9L96.6,33.8z"/>
		<path class="st8" d="M103.4,39.7h5l-0.4,2.4h-7.8l2.5-14.5h2.9L103.4,39.7z"/>
		<path class="st8" d="M116.4,38.3c0.1-0.5,0-0.9-0.2-1.2c-0.2-0.3-0.6-0.7-1.3-1c-0.7-0.3-1.2-0.6-1.7-1c-1.2-0.9-1.8-2.1-1.7-3.5
			c0.1-0.8,0.3-1.5,0.8-2.2c0.4-0.6,1-1.1,1.8-1.5s1.6-0.5,2.4-0.5c1.2,0,2.2,0.5,2.9,1.3c0.7,0.8,1,1.9,1,3.2l-2.9,0
			c0.1-1.4-0.4-2.1-1.3-2.1c-0.5,0-0.9,0.1-1.3,0.5c-0.3,0.3-0.6,0.8-0.6,1.3c-0.1,0.8,0.4,1.4,1.6,2c1.2,0.6,2,1.2,2.5,1.9
			c0.6,0.8,0.8,1.7,0.7,2.8c-0.1,1.3-0.6,2.3-1.5,3c-0.9,0.8-2,1.1-3.4,1.1c-1.3,0-2.4-0.5-3.2-1.4s-1.1-2-1.1-3.4l2.9,0
			c-0.1,0.9,0.1,1.5,0.3,1.8c0.3,0.4,0.7,0.6,1.3,0.6c0.5,0,0.9-0.2,1.2-0.5C116.2,39.2,116.3,38.8,116.4,38.3z"/>
		<path class="st8" d="M125.2,42.2l2.5-14.5l3.6,0c1.1,0,1.9,0.3,2.7,0.8c0.7,0.5,1.2,1.3,1.6,2.2s0.4,2,0.3,3.1l-0.3,2.1
			c-0.3,2-1,3.5-2.1,4.6c-1.1,1.1-2.5,1.7-4.2,1.7H125.2z M130.2,30.1l-1.7,9.6l0.7,0c1,0,1.8-0.3,2.3-0.9c0.5-0.6,0.9-1.5,1.1-2.8
			l0.3-2.4c0.1-0.8,0.1-1.3,0.1-1.7c0-0.7-0.2-1.2-0.5-1.5c-0.3-0.3-0.8-0.5-1.4-0.5L130.2,30.1z"/>
		<path class="st8" d="M144.9,35.9h-4.4l-0.7,3.8h5.2l-0.4,2.4h-8.1l2.5-14.5h8.1l-0.4,2.4h-5.2l-0.6,3.4h4.4L144.9,35.9z"/>
		<path class="st8" d="M151,42.2l2.5-14.5l4,0c1.4,0,2.5,0.3,3.2,1c0.7,0.7,1.1,1.6,1,2.9c-0.1,1.5-0.9,2.5-2.3,3.2
			c0.5,0.2,0.9,0.6,1.1,1.1c0.2,0.5,0.3,1.2,0.3,1.9c-0.1,1.3-0.6,2.4-1.4,3.2c-0.9,0.8-2,1.2-3.5,1.2H151z M154.9,35.9l-0.7,3.9
			l1.7,0c0.6,0,1.1-0.2,1.5-0.7c0.4-0.4,0.6-1.1,0.6-1.9c0-0.8-0.3-1.2-1-1.3L154.9,35.9z M155.3,33.7l1.4,0c0.7,0,1.3-0.3,1.6-0.7
			c0.4-0.5,0.5-1.1,0.5-1.8c-0.1-0.7-0.5-1-1.2-1.1l-1.6,0L155.3,33.7z"/>
		<path class="st8" d="M167.4,36.9H166l-0.9,5.3h-2.9l2.5-14.5l4.4,0c1.3,0,2.3,0.4,3,1.2c0.7,0.8,1,1.8,0.9,3.1
			c-0.2,2-1.1,3.4-2.7,4.1l1.5,5.9v0.2h-3.1L167.4,36.9z M166.4,34.4l1.5,0c0.7,0,1.2-0.3,1.6-0.8c0.4-0.5,0.6-1.2,0.6-2.1
			c0-0.9-0.4-1.3-1.1-1.4l-1.8,0L166.4,34.4z"/>
		<path class="st8" d="M181.6,35.9h-4.4l-0.7,3.8h5.2l-0.4,2.4h-8.1l2.5-14.5h8.1l-0.4,2.4h-5.2l-0.6,3.4h4.4L181.6,35.9z"/>
		<path class="st8" d="M194.5,30.1H191l-2.1,12.1h-2.9l2.1-12.1h-3.4l0.4-2.4h9.8L194.5,30.1z"/>
		<path class="st8" d="M200.2,39.2h-3.9l-1.3,3H192l6.9-14.5h2.6l1.9,14.5h-3L200.2,39.2z M197.4,36.8h2.6l-0.4-5.1L197.4,36.8z"/>
		<path class="st8" d="M214.7,40.5c-0.5,0.6-1.2,1.1-2.1,1.4c-0.9,0.3-1.8,0.5-2.8,0.5c-0.9,0-1.6-0.2-2.3-0.6
			c-0.6-0.4-1.1-0.9-1.5-1.6c-0.3-0.7-0.5-1.5-0.6-2.5c0-0.5,0-1,0.1-1.5l0.4-2.4c0.3-2,1-3.6,2-4.7c1-1.1,2.3-1.6,3.9-1.6
			c1.4,0,2.4,0.4,3.1,1.3c0.7,0.8,1.1,2,1.1,3.6l-2.8,0l0-0.8c-0.1-1-0.6-1.6-1.5-1.6c-1.4-0.1-2.3,0.9-2.7,2.7l-0.1,0.7l-0.4,2.8
			c-0.1,0.6-0.1,1.2-0.1,1.6c0,0.7,0.2,1.3,0.5,1.6s0.7,0.5,1.3,0.5c0.5,0,1.1-0.2,1.7-0.5l0.5-2.7h-2l0.4-2.2h4.8L214.7,40.5z"/>
		<path class="st8" d="M226.2,42.2h-2.8l-2.5-9.6l-1.7,9.6h-2.9l2.5-14.5h2.8l2.5,9.6l1.7-9.6h2.9L226.2,42.2z"/>
		<path class="st8" d="M237,35.9h-4.4l-0.7,3.8h5.2l-0.4,2.4h-8.1l2.5-14.5h8.1l-0.4,2.4h-5.2l-0.6,3.4h4.4L237,35.9z"/>
	</g>
	<path class="st3" d="M87.1,19.5c-0.1,1.4-0.5,2.5-1.2,3.3c-0.7,0.8-1.8,1.1-3.1,1.1c-1.3,0-2.4-0.5-3.2-1.5c-0.8-1-1.2-2.4-1.2-4.2
		v-2.4c0-1.7,0.4-3.1,1.2-4.1c0.8-1,1.9-1.5,3.3-1.5c1.3,0,2.3,0.4,3,1.2c0.7,0.8,1.1,1.9,1.2,3.3h-1.7c-0.1-1.1-0.3-1.9-0.7-2.3
		c-0.4-0.5-1-0.7-1.8-0.7c-0.9,0-1.6,0.4-2.1,1.1c-0.5,0.7-0.7,1.8-0.7,3.2v2.5c0,1.4,0.2,2.4,0.7,3.1c0.5,0.7,1.1,1.1,2,1.1
		c0.9,0,1.5-0.2,1.9-0.7c0.4-0.4,0.6-1.2,0.7-2.4H87.1z"/>
	<path class="st3" d="M95.6,20.3h-4.5l-1,3.5h-1.7l4.3-13.4h1.4l4.3,13.4h-1.7L95.6,20.3z M91.5,18.8h3.7l-1.8-6.1L91.5,18.8z"/>
	<path class="st3" d="M104.3,18.3H102v5.4h-1.7V10.3h3.8c1.3,0,2.3,0.3,3,1c0.7,0.7,1,1.7,1,3c0,0.8-0.2,1.6-0.5,2.2
		c-0.4,0.6-0.9,1.1-1.6,1.4l2.6,5.7v0.1h-1.8L104.3,18.3z M102,16.9h2.1c0.7,0,1.3-0.2,1.7-0.7c0.4-0.5,0.6-1.1,0.6-1.8
		c0-1.7-0.8-2.6-2.3-2.6h-2V16.9z"/>
	<path class="st3" d="M117.4,11.8h-3.5v12h-1.7v-12h-3.5v-1.4h8.8V11.8z"/>
	<path class="st3" d="M125.8,17.6h-4.8v4.8h5.5v1.4h-7.2V10.3h7.1v1.4h-5.4v4.3h4.8V17.6z"/>
	<path class="st3" d="M145.1,23.8V10.3h3.2c1.6,0,2.8,0.5,3.7,1.5c0.9,1,1.3,2.4,1.3,4.1v2.3c0,1.8-0.4,3.2-1.3,4.1
		c-0.9,1-2.2,1.5-3.8,1.5H145.1z M146.8,11.8v10.5h1.4c1.2,0,2.1-0.3,2.6-1c0.5-0.7,0.8-1.7,0.8-3v-2.4c0-1.4-0.3-2.5-0.8-3.1
		c-0.5-0.7-1.4-1-2.5-1H146.8z"/>
	<path class="st3" d="M162.4,17.6h-4.8v4.8h5.5v1.4h-7.2V10.3h7.1v1.4h-5.4v4.3h4.8V17.6z"/>
	<path class="st3" d="M171.2,20.4c0-0.7-0.2-1.2-0.5-1.5c-0.4-0.4-1-0.7-2-1c-0.9-0.3-1.7-0.7-2.2-1.1c-0.5-0.4-0.9-0.8-1.1-1.3
		c-0.3-0.5-0.4-1-0.4-1.6c0-1.1,0.4-1.9,1.1-2.6c0.7-0.7,1.6-1,2.8-1c0.8,0,1.5,0.2,2.1,0.5c0.6,0.4,1.1,0.8,1.4,1.5
		c0.3,0.6,0.5,1.3,0.5,2.1h-1.7c0-0.8-0.2-1.5-0.6-1.9c-0.4-0.5-1-0.7-1.7-0.7c-0.7,0-1.2,0.2-1.6,0.6c-0.4,0.4-0.6,0.9-0.6,1.6
		c0,0.6,0.2,1,0.6,1.4s1,0.7,1.9,1c1.3,0.4,2.3,1,2.8,1.6c0.6,0.6,0.9,1.5,0.9,2.5c0,1.1-0.4,2-1.1,2.6c-0.7,0.7-1.7,1-2.9,1
		c-0.8,0-1.5-0.2-2.2-0.5c-0.7-0.3-1.2-0.8-1.6-1.4c-0.4-0.6-0.6-1.3-0.6-2.1h1.7c0,0.8,0.2,1.5,0.7,1.9c0.5,0.5,1.1,0.7,1.9,0.7
		c0.7,0,1.3-0.2,1.7-0.6C171,21.6,171.2,21,171.2,20.4z"/>
	<path class="st3" d="M134.4,20.4c0-0.7-0.2-1.2-0.5-1.5c-0.4-0.4-1-0.7-2-1c-0.9-0.3-1.7-0.7-2.2-1.1c-0.5-0.4-0.9-0.8-1.1-1.3
		c-0.3-0.5-0.4-1-0.4-1.6c0-1.1,0.4-1.9,1.1-2.6c0.7-0.7,1.6-1,2.8-1c0.8,0,1.5,0.2,2.1,0.5c0.6,0.4,1.1,0.8,1.4,1.5
		c0.3,0.6,0.5,1.3,0.5,2.1h-1.7c0-0.8-0.2-1.5-0.6-1.9c-0.4-0.5-1-0.7-1.7-0.7c-0.7,0-1.2,0.2-1.6,0.6c-0.4,0.4-0.6,0.9-0.6,1.6
		c0,0.6,0.2,1,0.6,1.4c0.4,0.4,1,0.7,1.9,1c1.3,0.4,2.3,1,2.8,1.6c0.6,0.6,0.9,1.5,0.9,2.5c0,1.1-0.4,2-1.1,2.6
		c-0.7,0.7-1.7,1-2.9,1c-0.8,0-1.5-0.2-2.2-0.5c-0.7-0.3-1.2-0.8-1.6-1.4c-0.4-0.6-0.6-1.3-0.6-2.1h1.7c0,0.8,0.2,1.5,0.7,1.9
		c0.5,0.5,1.1,0.7,1.9,0.7c0.7,0,1.3-0.2,1.7-0.6C134.2,21.6,134.4,21,134.4,20.4z"/>
</g>
<g id="Calque_2">
	<path class="st9" d="M60.6,45.7c0.5-0.9,0.2-2-0.5-2.1c-3.3-0.8-1.9-2.7-1.2-4.4c3.3,0,6.6,0,9.9,0c0.2,2-0.1,4-0.4,6
		c-2.3,0.3-4.7-0.6-6.9,0.5C61.2,45.7,60.9,45.7,60.6,45.7z"/>
	<path class="st9" d="M48.4,39.1c2.1,0.2,4.2,0.4,6.3,0.7c1.1,0.1,1.6,0.6,1.1,1.7c-0.7,1.6-0.8,2.9,1.4,3.4
		c0.6,0.1,0.6,0.6-0.1,0.9c-0.8-0.7-1.8-0.4-2.7-0.4c-15.4,0-30.9,0-46.3,0c0-2,0-4.1,0-6.1c0.2,0,0.3,0,0.5,0
		C21.8,39.1,35.1,39.1,48.4,39.1z"/>
	<path class="st10" d="M8.1,45.2c15.4,0,30.9,0,46.3,0c0.9,0,1.9-0.3,2.7,0.4c0,0-0.2,0-0.2,0c-15.6,0-31.3,0-46.9,0
		C9.3,45.7,8.5,46.2,8.1,45.2z"/>
	<path class="st10" d="M61.5,45.7c2.3-1.1,4.6-0.2,6.9-0.5c0,0.2,0.1,0.3,0.1,0.5C66.2,45.7,63.9,45.7,61.5,45.7z"/>
	<path class="st11" d="M9.8,16.6c0.1-2.3,0.1-4.7,0.1-7c0-1,0.4-1.5,1.4-1.3c0.3,0,0.6,0,0.9,0c18.6,0,37.2,0,55.7,0
		c1.9,0,2.5,0.4,2.4,2.4c-0.5,5.8-0.4,5.8-6.5,5.7c-1,0-2.1,0-3-0.2C59.2,15.8,58,16,57,17.4c-0.6,0.9-1.3,1-1.8-0.2
		c-0.2-0.5-0.5-0.9-0.8-1.4c-2.4-4-3-4.2-7.5-2.9c-0.3,0.1-0.7,0.2-0.8,0.4c-0.2,2.6-2.2,1.9-3.7,2c-4.1,0.2-8,0.9-12.1,1.4
		C23.5,16.6,16.6,16.6,9.8,16.6z"/>
	<path class="st12" d="M69.5,23.6c0.2,3.2-0.3,6.3-0.5,9.4c-7.7,0-15.5,0-23.2,0c-2.7-0.7-5.3-1.6-8-2.1c-1.7-0.3-2.5-2.2-4.2-2.8
		c-0.1,0-0.1-0.1-0.2-0.2c2.2-0.8-0.1-3.6,2-4.5C46.8,23.6,58.1,23.6,69.5,23.6z"/>
	<path class="st13" d="M48.4,39.1c-13.3,0-26.6,0-39.8,0c0.2-2,0.3-4,0.5-6c8.6,0,17.2,0,25.8,0c3.1,0.4,6.2,0.8,9.1,2.1
		C45.8,35.9,47.8,36.7,48.4,39.1z"/>
	<path class="st12" d="M34.8,33c-8.6,0-17.2,0-25.8,0c-0.1-3.2,0.1-6.3,0.5-9.4c7.2,0,14.3,0,21.5,0c0.9,1.4,0.8,2.2-1.1,2.5
		c-0.8,0.1-2.2-0.1-2,1.6c0.2,1.4,1,1.7,2.2,2C31.9,30.2,34.3,30.2,34.8,33z"/>
	<path class="st8" d="M69.5,23.6c-11.3,0-22.7-0.1-34-0.1c0.4-1.5-0.4-2.3-1.7-2.8c-0.8-0.3-1.8-0.4-2.6-1.4c1.8-1,3.8-1,5.6-1.2
		c3-0.3,6.1-0.5,9.1-0.6c1-0.1,1.7-0.2,2.1-1.4c0.5-1.6,2.6-1.8,3.6-0.4c0.9,1.3,1.6,2.7,2.4,4c0.9,1.6,2.2,2,3.3,0.6
		c1.6-1.9,3.5-2,5.6-1.8c1.7,0.2,3.4,0.2,5.1,0.1c1.7-0.1,2.1,0.5,1.8,2C69.6,21.6,69.6,22.6,69.5,23.6z"/>
	<path class="st8" d="M30.9,23.6c-7.2,0-14.3,0-21.5,0c-0.1-2.4,0-4.7,0.3-7.1c6.9,0,13.7,0.1,20.6,0.1c-0.5,0.6-2.2,0.1-1.8,1.6
		c0.4,1.4-0.1,3.5,2.1,3.9C32.1,22.5,31.9,23,30.9,23.6z"/>
	<path class="st13" d="M45.8,33.1c7.7,0,15.5,0,23.2,0c-0.1,2-0.1,4.1-0.2,6.1c-3.3,0-6.6,0-9.9,0c-0.6-1.4-2.1-1.4-3.2-1.5
		C51.7,37.6,48.7,35.4,45.8,33.1z"/>
	<g>
		<path class="st8" d="M84,38.3c0.1-0.5,0-0.9-0.2-1.2c-0.2-0.3-0.6-0.7-1.3-1c-0.7-0.3-1.2-0.6-1.7-1c-1.2-0.9-1.8-2.1-1.7-3.5
			c0.1-0.8,0.3-1.5,0.8-2.2c0.4-0.6,1-1.1,1.8-1.5c0.8-0.4,1.6-0.5,2.4-0.5c1.2,0,2.2,0.5,2.9,1.3c0.7,0.8,1,1.9,1,3.2l-2.9,0
			c0.1-1.4-0.4-2.1-1.3-2.1c-0.5,0-0.9,0.1-1.3,0.5c-0.3,0.3-0.6,0.8-0.6,1.3c-0.1,0.8,0.4,1.4,1.6,2c1.2,0.6,2,1.2,2.5,1.9
			c0.6,0.8,0.8,1.7,0.7,2.8c-0.1,1.3-0.6,2.3-1.5,3c-0.9,0.8-2,1.1-3.4,1.1c-1.3,0-2.4-0.5-3.2-1.4c-0.8-0.9-1.1-2-1.1-3.4l2.9,0
			c-0.1,0.9,0.1,1.5,0.3,1.8c0.3,0.4,0.7,0.6,1.3,0.6c0.5,0,0.9-0.2,1.2-0.5C83.7,39.2,83.9,38.8,84,38.3z"/>
		<path class="st8" d="M93.1,42.4c-1.3,0-2.3-0.4-3-1.3c-0.7-0.8-1.2-1.9-1.2-3.4c0-0.5,0-1,0.1-1.5l0.4-2.4
			c0.2-1.3,0.6-2.4,1.1-3.4c0.6-1,1.3-1.7,2.1-2.2s1.8-0.7,2.8-0.7c1.3,0,2.3,0.5,3,1.3c0.7,0.9,1.1,2,1.2,3.5c0,0.6,0,1.1-0.1,1.6
			l-0.3,2.2c-0.3,2-1,3.5-2,4.7C96,41.9,94.7,42.4,93.1,42.4z M96.6,33.8c0.1-0.7,0.1-1.2,0.1-1.6c0-1.5-0.6-2.2-1.6-2.3
			c-0.8,0-1.4,0.3-1.9,0.9c-0.5,0.6-0.8,1.6-1,3l-0.3,2.4c-0.1,0.7-0.1,1.2-0.1,1.5c0,1.4,0.6,2.1,1.6,2.2c0.8,0,1.4-0.3,1.9-0.8
			c0.5-0.6,0.8-1.5,1-2.9L96.6,33.8z"/>
		<path class="st8" d="M103.4,39.7h5l-0.4,2.4h-7.8l2.5-14.5h2.9L103.4,39.7z"/>
		<path class="st8" d="M116.4,38.3c0.1-0.5,0-0.9-0.2-1.2c-0.2-0.3-0.6-0.7-1.3-1c-0.7-0.3-1.2-0.6-1.7-1c-1.2-0.9-1.8-2.1-1.7-3.5
			c0.1-0.8,0.3-1.5,0.8-2.2c0.4-0.6,1-1.1,1.8-1.5s1.6-0.5,2.4-0.5c1.2,0,2.2,0.5,2.9,1.3c0.7,0.8,1,1.9,1,3.2l-2.9,0
			c0.1-1.4-0.4-2.1-1.3-2.1c-0.5,0-0.9,0.1-1.3,0.5c-0.3,0.3-0.6,0.8-0.6,1.3c-0.1,0.8,0.4,1.4,1.6,2c1.2,0.6,2,1.2,2.5,1.9
			c0.6,0.8,0.8,1.7,0.7,2.8c-0.1,1.3-0.6,2.3-1.5,3c-0.9,0.8-2,1.1-3.4,1.1c-1.3,0-2.4-0.5-3.2-1.4s-1.1-2-1.1-3.4l2.9,0
			c-0.1,0.9,0.1,1.5,0.3,1.8c0.3,0.4,0.7,0.6,1.3,0.6c0.5,0,0.9-0.2,1.2-0.5C116.2,39.2,116.3,38.8,116.4,38.3z"/>
		<path class="st8" d="M125.2,42.2l2.5-14.5l3.6,0c1.1,0,1.9,0.3,2.7,0.8c0.7,0.5,1.2,1.3,1.6,2.2s0.4,2,0.3,3.1l-0.3,2.1
			c-0.3,2-1,3.5-2.1,4.6c-1.1,1.1-2.5,1.7-4.2,1.7H125.2z M130.2,30.1l-1.7,9.6l0.7,0c1,0,1.8-0.3,2.3-0.9c0.5-0.6,0.9-1.5,1.1-2.8
			l0.3-2.4c0.1-0.8,0.1-1.3,0.1-1.7c0-0.7-0.2-1.2-0.5-1.5c-0.3-0.3-0.8-0.5-1.4-0.5L130.2,30.1z"/>
		<path class="st8" d="M144.9,35.9h-4.4l-0.7,3.8h5.2l-0.4,2.4h-8.1l2.5-14.5h8.1l-0.4,2.4h-5.2l-0.6,3.4h4.4L144.9,35.9z"/>
		<path class="st8" d="M151,42.2l2.5-14.5l4,0c1.4,0,2.5,0.3,3.2,1c0.7,0.7,1.1,1.6,1,2.9c-0.1,1.5-0.9,2.5-2.3,3.2
			c0.5,0.2,0.9,0.6,1.1,1.1c0.2,0.5,0.3,1.2,0.3,1.9c-0.1,1.3-0.6,2.4-1.4,3.2c-0.9,0.8-2,1.2-3.5,1.2H151z M154.9,35.9l-0.7,3.9
			l1.7,0c0.6,0,1.1-0.2,1.5-0.7c0.4-0.4,0.6-1.1,0.6-1.9c0-0.8-0.3-1.2-1-1.3L154.9,35.9z M155.3,33.7l1.4,0c0.7,0,1.3-0.3,1.6-0.7
			c0.4-0.5,0.5-1.1,0.5-1.8c-0.1-0.7-0.5-1-1.2-1.1l-1.6,0L155.3,33.7z"/>
		<path class="st8" d="M167.4,36.9H166l-0.9,5.3h-2.9l2.5-14.5l4.4,0c1.3,0,2.3,0.4,3,1.2c0.7,0.8,1,1.8,0.9,3.1
			c-0.2,2-1.1,3.4-2.7,4.1l1.5,5.9v0.2h-3.1L167.4,36.9z M166.4,34.4l1.5,0c0.7,0,1.2-0.3,1.6-0.8c0.4-0.5,0.6-1.2,0.6-2.1
			c0-0.9-0.4-1.3-1.1-1.4l-1.8,0L166.4,34.4z"/>
		<path class="st8" d="M181.6,35.9h-4.4l-0.7,3.8h5.2l-0.4,2.4h-8.1l2.5-14.5h8.1l-0.4,2.4h-5.2l-0.6,3.4h4.4L181.6,35.9z"/>
		<path class="st8" d="M194.5,30.1H191l-2.1,12.1h-2.9l2.1-12.1h-3.4l0.4-2.4h9.8L194.5,30.1z"/>
		<path class="st8" d="M200.2,39.2h-3.9l-1.3,3H192l6.9-14.5h2.6l1.9,14.5h-3L200.2,39.2z M197.4,36.8h2.6l-0.4-5.1L197.4,36.8z"/>
		<path class="st8" d="M214.7,40.5c-0.5,0.6-1.2,1.1-2.1,1.4c-0.9,0.3-1.8,0.5-2.8,0.5c-0.9,0-1.6-0.2-2.3-0.6
			c-0.6-0.4-1.1-0.9-1.5-1.6c-0.3-0.7-0.5-1.5-0.6-2.5c0-0.5,0-1,0.1-1.5l0.4-2.4c0.3-2,1-3.6,2-4.7c1-1.1,2.3-1.6,3.9-1.6
			c1.4,0,2.4,0.4,3.1,1.3c0.7,0.8,1.1,2,1.1,3.6l-2.8,0l0-0.8c-0.1-1-0.6-1.6-1.5-1.6c-1.4-0.1-2.3,0.9-2.7,2.7l-0.1,0.7l-0.4,2.8
			c-0.1,0.6-0.1,1.2-0.1,1.6c0,0.7,0.2,1.3,0.5,1.6s0.7,0.5,1.3,0.5c0.5,0,1.1-0.2,1.7-0.5l0.5-2.7h-2l0.4-2.2h4.8L214.7,40.5z"/>
		<path class="st8" d="M226.2,42.2h-2.8l-2.5-9.6l-1.7,9.6h-2.9l2.5-14.5h2.8l2.5,9.6l1.7-9.6h2.9L226.2,42.2z"/>
		<path class="st8" d="M237,35.9h-4.4l-0.7,3.8h5.2l-0.4,2.4h-8.1l2.5-14.5h8.1l-0.4,2.4h-5.2l-0.6,3.4h4.4L237,35.9z"/>
	</g>
	<path class="st14" d="M87.1,19.5c-0.1,1.4-0.5,2.5-1.2,3.3c-0.7,0.8-1.8,1.1-3.1,1.1c-1.3,0-2.4-0.5-3.2-1.5
		c-0.8-1-1.2-2.4-1.2-4.2v-2.4c0-1.7,0.4-3.1,1.2-4.1c0.8-1,1.9-1.5,3.3-1.5c1.3,0,2.3,0.4,3,1.2c0.7,0.8,1.1,1.9,1.2,3.3h-1.7
		c-0.1-1.1-0.3-1.9-0.7-2.3c-0.4-0.5-1-0.7-1.8-0.7c-0.9,0-1.6,0.4-2.1,1.1c-0.5,0.7-0.7,1.8-0.7,3.2v2.5c0,1.4,0.2,2.4,0.7,3.1
		c0.5,0.7,1.1,1.1,2,1.1c0.9,0,1.5-0.2,1.9-0.7c0.4-0.4,0.6-1.2,0.7-2.4H87.1z"/>
	<path class="st14" d="M95.6,20.3h-4.5l-1,3.5h-1.7l4.3-13.4h1.4l4.3,13.4h-1.7L95.6,20.3z M91.5,18.8h3.7l-1.8-6.1L91.5,18.8z"/>
	<path class="st14" d="M104.3,18.3H102v5.4h-1.7V10.3h3.8c1.3,0,2.3,0.3,3,1c0.7,0.7,1,1.7,1,3c0,0.8-0.2,1.6-0.5,2.2
		c-0.4,0.6-0.9,1.1-1.6,1.4l2.6,5.7v0.1h-1.8L104.3,18.3z M102,16.9h2.1c0.7,0,1.3-0.2,1.7-0.7c0.4-0.5,0.6-1.1,0.6-1.8
		c0-1.7-0.8-2.6-2.3-2.6h-2V16.9z"/>
	<path class="st14" d="M117.4,11.8h-3.5v12h-1.7v-12h-3.5v-1.4h8.8V11.8z"/>
	<path class="st14" d="M125.8,17.6h-4.8v4.8h5.5v1.4h-7.2V10.3h7.1v1.4h-5.4v4.3h4.8V17.6z"/>
	<path class="st14" d="M145.1,23.8V10.3h3.2c1.6,0,2.8,0.5,3.7,1.5c0.9,1,1.3,2.4,1.3,4.1v2.3c0,1.8-0.4,3.2-1.3,4.1
		c-0.9,1-2.2,1.5-3.8,1.5H145.1z M146.8,11.8v10.5h1.4c1.2,0,2.1-0.3,2.6-1c0.5-0.7,0.8-1.7,0.8-3v-2.4c0-1.4-0.3-2.5-0.8-3.1
		c-0.5-0.7-1.4-1-2.5-1H146.8z"/>
	<path class="st14" d="M162.4,17.6h-4.8v4.8h5.5v1.4h-7.2V10.3h7.1v1.4h-5.4v4.3h4.8V17.6z"/>
	<path class="st14" d="M171.2,20.4c0-0.7-0.2-1.2-0.5-1.5c-0.4-0.4-1-0.7-2-1c-0.9-0.3-1.7-0.7-2.2-1.1c-0.5-0.4-0.9-0.8-1.1-1.3
		c-0.3-0.5-0.4-1-0.4-1.6c0-1.1,0.4-1.9,1.1-2.6c0.7-0.7,1.6-1,2.8-1c0.8,0,1.5,0.2,2.1,0.5c0.6,0.4,1.1,0.8,1.4,1.5
		c0.3,0.6,0.5,1.3,0.5,2.1h-1.7c0-0.8-0.2-1.5-0.6-1.9c-0.4-0.5-1-0.7-1.7-0.7c-0.7,0-1.2,0.2-1.6,0.6c-0.4,0.4-0.6,0.9-0.6,1.6
		c0,0.6,0.2,1,0.6,1.4s1,0.7,1.9,1c1.3,0.4,2.3,1,2.8,1.6c0.6,0.6,0.9,1.5,0.9,2.5c0,1.1-0.4,2-1.1,2.6c-0.7,0.7-1.7,1-2.9,1
		c-0.8,0-1.5-0.2-2.2-0.5c-0.7-0.3-1.2-0.8-1.6-1.4c-0.4-0.6-0.6-1.3-0.6-2.1h1.7c0,0.8,0.2,1.5,0.7,1.9c0.5,0.5,1.1,0.7,1.9,0.7
		c0.7,0,1.3-0.2,1.7-0.6C171,21.6,171.2,21,171.2,20.4z"/>
	<path class="st14" d="M134.4,20.4c0-0.7-0.2-1.2-0.5-1.5c-0.4-0.4-1-0.7-2-1c-0.9-0.3-1.7-0.7-2.2-1.1c-0.5-0.4-0.9-0.8-1.1-1.3
		c-0.3-0.5-0.4-1-0.4-1.6c0-1.1,0.4-1.9,1.1-2.6c0.7-0.7,1.6-1,2.8-1c0.8,0,1.5,0.2,2.1,0.5c0.6,0.4,1.1,0.8,1.4,1.5
		c0.3,0.6,0.5,1.3,0.5,2.1h-1.7c0-0.8-0.2-1.5-0.6-1.9c-0.4-0.5-1-0.7-1.7-0.7c-0.7,0-1.2,0.2-1.6,0.6c-0.4,0.4-0.6,0.9-0.6,1.6
		c0,0.6,0.2,1,0.6,1.4c0.4,0.4,1,0.7,1.9,1c1.3,0.4,2.3,1,2.8,1.6c0.6,0.6,0.9,1.5,0.9,2.5c0,1.1-0.4,2-1.1,2.6
		c-0.7,0.7-1.7,1-2.9,1c-0.8,0-1.5-0.2-2.2-0.5c-0.7-0.3-1.2-0.8-1.6-1.4c-0.4-0.6-0.6-1.3-0.6-2.1h1.7c0,0.8,0.2,1.5,0.7,1.9
		c0.5,0.5,1.1,0.7,1.9,0.7c0.7,0,1.3-0.2,1.7-0.6C134.2,21.6,134.4,21,134.4,20.4z"/>
</g>
</svg>
