<svg xmlns="http://www.w3.org/2000/svg" xmlns:xlink="http://www.w3.org/1999/xlink" viewBox="0 0 295.57 277.51"><defs><style>.a7ddb171-b86e-490e-abdd-f6c49538f21a,.bc62621f-d419-49f9-bb04-9a9c34791edf{fill:none;}.b1a4712b-28bf-4265-9c15-7bfc840390ca,.fb84aaaf-324e-4267-968b-7604a96f6d74{fill:#cfc7bd;}.b1a4712b-28bf-4265-9c15-7bfc840390ca{opacity:0.31;}.bdd6b37e-a552-4666-ab94-19801d8b5261{clip-path:url(#e0d94d4b-6352-4bcc-862c-1972d0d7cc6f);}.f937888f-c116-45c3-a199-a86ed3ee5c26{fill:#d2d1be;}.e415bb2e-7c2b-4184-bf1d-790d26241eb6{fill:#4c5660;}.ff74a5c2-21f4-45ab-9d80-80a2fc230136{fill:#b6ae9d;}.bd9a92e7-9f04-4534-a889-3bc26b53cc6c{fill:#6d685d;}.a0e626da-6f09-441d-b3f5-22a91d6020e7{fill:url(#a92d5925-12c9-4edc-805d-08f676fd13de);}.bdb4c22c-5d04-4f65-8074-f91a620080ae{fill:url(#a523fe05-b87b-4f86-b914-2777f3413aa6);}.e8eabafa-8e70-4d04-ace5-65bc5e443429{fill:url(#a546a6bc-2bd3-41a3-bae4-e108630601e7);}.b6e22e11-b45e-4430-a9a0-017b073746cd{fill:url(#befff668-63ff-4f18-9065-9baa17bc2d52);}.e055c143-ca95-4a34-ab71-5b89eb24e4a1{fill:url(#f38d1e22-1dd4-4a07-9d70-b4edcf093621);}.b9a682c3-37b5-41a9-9dab-6c8c4bea2977{fill:#bebe88;}.a62c1ea0-1785-4dc5-8aee-ede59fb64d1c{fill:#417878;}.bb536a48-a8ba-4259-87cb-757b3fa61b2b{fill:#78a588;}.f2ff5246-fbcd-4fe1-aed6-f34d511069ff{fill:#d1d1be;}.a7ddb171-b86e-490e-abdd-f6c49538f21a{stroke:#231d47;stroke-miterlimit:10;stroke-width:7px;}.b6da5c5f-dcd2-4920-ab80-94d7e3ed43e7{fill:#fff;opacity:0.37;}.e06fd8ee-f82a-4c6a-8e7f-4f2380052b43{fill:#d39c48;}.b63d0938-9978-437c-8d18-e92f150a8e8c{fill:#efb454;}.f6c182cf-62ef-4366-a381-6646ba245f95{fill:url(#a289471c-120e-4404-880a-24bec0326cdb);}.a4c388a9-7ca8-45a6-a46e-65b237926915{fill:#bfbf88;}.b514b132-f87a-4609-938f-5a10a31dfc6a{fill:#6c635e;}</style><clipPath id="e0d94d4b-6352-4bcc-862c-1972d0d7cc6f" transform="translate(-51.01 -58.45)"><circle class="bc62621f-d419-49f9-bb04-9a9c34791edf" cx="200.3" cy="182.13" r="124.05"/></clipPath><linearGradient id="a92d5925-12c9-4edc-805d-08f676fd13de" x1="118.6" y1="183.59" x2="135.24" y2="80.16" gradientUnits="userSpaceOnUse"><stop offset="0" stop-color="#a42c25"/><stop offset="1" stop-color="#c1433c"/></linearGradient><linearGradient id="a523fe05-b87b-4f86-b914-2777f3413aa6" x1="-25.56" y1="106.87" x2="-8.93" y2="3.45" gradientTransform="translate(118.52 115.8) rotate(1.9)" xlink:href="#a92d5925-12c9-4edc-805d-08f676fd13de"/><linearGradient id="a546a6bc-2bd3-41a3-bae4-e108630601e7" x1="113.03" y1="182.7" x2="129.67" y2="79.27" xlink:href="#a92d5925-12c9-4edc-805d-08f676fd13de"/><linearGradient id="befff668-63ff-4f18-9065-9baa17bc2d52" x1="315.56" y1="215.28" x2="332.2" y2="111.85" xlink:href="#a92d5925-12c9-4edc-805d-08f676fd13de"/><linearGradient id="f38d1e22-1dd4-4a07-9d70-b4edcf093621" x1="320.09" y1="216.01" x2="336.73" y2="112.58" xlink:href="#a92d5925-12c9-4edc-805d-08f676fd13de"/><linearGradient id="a289471c-120e-4404-880a-24bec0326cdb" x1="1181" y1="161.28" x2="1181.42" y2="161.28" gradientTransform="matrix(-0.99, 0.11, 0.11, 0.99, 1261.67, -29.79)" gradientUnits="userSpaceOnUse"><stop offset="0.02" stop-color="#1f3057"/><stop offset="1" stop-color="#094790"/></linearGradient></defs><title>SDB_illuhome</title><g id="e56fc0a5-a9d6-4a92-a9e5-4dd5f9c99cc0" data-name="Calque 1"><path class="b1a4712b-28bf-4265-9c15-7bfc840390ca" d="M293.5,270.3a88.22,88.22,0,0,1-13.65,11.43C235.33,313.5,182.64,304.24,171.44,302c-16.53-3.34-48.49-9.8-71.6-36.82-35-40.88-29.52-105.29-2.4-147.81,5-7.78,31.16-50.94,84.41-57.87,32.23-4.18,69.8,4.26,97,26.93C336,134,331.9,230.1,293.5,270.3Z" transform="translate(-51.01 -58.45)"/><g class="bdd6b37e-a552-4666-ab94-19801d8b5261"><path class="f937888f-c116-45c3-a199-a86ed3ee5c26" d="M78.49,161.9c-7-.16-13.95-.52-21-1.2-1.59-.15-3.64-.73-3.29-1.71.11-.34.51-.6.88-.85Q87,137.32,122.56,118.87a40,40,0,0,1,9.31-3.8c4.59-1.08,9.68-.87,14.54-.47A187,187,0,0,1,185.66,122c11.59,3.54,24.12,8.34,36.42,5.94,3.35-.66,6.55-1.84,10-1.79a25.84,25.84,0,0,1,8.6,2q37,13.59,71.39,29.67c1.88.88,4,2.28,3,3.61-.82,1-3,1.23-4.91,1.26q-46.87.8-93.75-.36c-14.2-.35-28.16.07-42.18-.2-15.19-.28-30.33-1.59-45.55-1.14C111.65,161.48,95.16,162.28,78.49,161.9Z" transform="translate(-51.01 -58.45)"/><path class="e415bb2e-7c2b-4184-bf1d-790d26241eb6" d="M312.79,229.23a81.44,81.44,0,0,1-8.37,7.52c-9.9,7.62-21.59,12.15-33.24,16.12-34.26,11.66-75.84,11.69-110.75,3.45C150.8,254,141.34,251,131.89,248c-17.15-5.5-34.76-11.16-49.64-22C67,214.75,67.72,194,66.46,176c-.25-3.56.36-7.69,3.21-9.61,1.71-1.14,3.85-1.22,5.87-1.27q53.79-1.17,107.58-1.59c34.92-.28,69.66,1.5,104.6,2.77,10.75.39,21.54.91,32.27,1.24,5.88.18,13.36-.83,17.47,4.33,4.32,5.4,3.74,14.67,1.68,20.86-2.51,7.54-7.46,13.84-12.32,20A209.6,209.6,0,0,1,312.79,229.23Z" transform="translate(-51.01 -58.45)"/><path class="ff74a5c2-21f4-45ab-9d80-80a2fc230136" d="M99.84,182.65c60.91-3.26,122.11-3.13,183.07-1.18,18.24.59,36.54-1.68,53.83,5a7.28,7.28,0,0,1,3.43,2.22c1.64,2.23,1,5.58.18,8.35-10.71,36.78-32.8,69.5-62.29,88.47s-66.27,23.36-97.84,9.5c-6.83-3-13.39-6.8-20.3-9.57-20.62-8.27-44-7.27-62.89-19.94-13.5-9.08-23.38-25-26.49-42.54-1.69-9.6-11.81-23.72-5.84-32.36C71.68,180.55,90.09,183.17,99.84,182.65Z" transform="translate(-51.01 -58.45)"/><path class="fb84aaaf-324e-4267-968b-7604a96f6d74" d="M101.18,199.49c59.74-3,119.54-5.94,179.33-4.15,17.89.53,36.05,1.55,53,7.68a7.13,7.13,0,0,1,3.36,2c1.61,2,1,5.1.18,7.62-10.51,33.55-32.18,63.39-61.09,80.69s-65,21.3-96,8.66c-6.7-2.74-13.14-6.2-19.91-8.73-20.22-7.54-43.2-6.63-61.68-18.18-13.24-8.28-22.93-22.76-26-38.8-1.66-8.75-11.59-21.64-5.73-29.51C73.56,197.58,91.62,200,101.18,199.49Z" transform="translate(-51.01 -58.45)"/><path class="bd9a92e7-9f04-4534-a889-3bc26b53cc6c" d="M101.8,251.36c59.75-1.88,119.55-3.75,179.34-2.63,17.89.34,36.05,1,53,4.85a8.64,8.64,0,0,1,3.36,1.28c1.61,1.28,1,3.21.18,4.81-10.51,21.18-32.18,40-61.09,50.94s-65,13.45-96,5.46c-6.7-1.72-13.14-3.91-19.91-5.5-20.22-4.76-43.2-4.19-61.68-11.49-13.24-5.22-22.93-14.36-26-24.49-1.66-5.52-11.59-13.66-5.73-18.63C74.19,250.15,92.25,251.66,101.8,251.36Z" transform="translate(-51.01 -58.45)"/><path class="b1a4712b-28bf-4265-9c15-7bfc840390ca" d="M162.5,254.83c-2.14,1.39-4.6,3.48-4.27,6.32a5.51,5.51,0,0,0,1.42,2.91,11.35,11.35,0,0,0,7.46,3.37,6.72,6.72,0,0,0,5-.95c2.61-2,2.45-7,.18-9.57s-5.84-2.84-8.83-1.74Z" transform="translate(-51.01 -58.45)"/><path class="b1a4712b-28bf-4265-9c15-7bfc840390ca" d="M181,255.54a2.49,2.49,0,0,0-1.25,1.06,2.69,2.69,0,0,0-.2,1.2,8.63,8.63,0,0,0,4.32,7.12c2.34,1.38,5,1.72,7.61,2l11.56,1.4a8.66,8.66,0,0,0,3.86-.13,3.79,3.79,0,0,0,2.54-3.1c.42-4.42-8.85-9.08-11.88-10.31A20.64,20.64,0,0,0,181,255.54Z" transform="translate(-51.01 -58.45)"/><path class="b1a4712b-28bf-4265-9c15-7bfc840390ca" d="M228.85,279.92a2.74,2.74,0,0,0,1-1.35,2.79,2.79,0,0,0,0-1.22,7.9,7.9,0,0,0-5.51-5.89c-2.53-.77-5.21-.44-7.81-.11L205,272.84a9,9,0,0,0-3.76,1.07,4.13,4.13,0,0,0-1.92,3.66c.39,4.43,10.29,6.7,13.47,7.15A21.31,21.31,0,0,0,228.85,279.92Z" transform="translate(-51.01 -58.45)"/><path class="b1a4712b-28bf-4265-9c15-7bfc840390ca" d="M266.93,301a2.75,2.75,0,0,0,1-1.35,2.79,2.79,0,0,0,0-1.22,7.92,7.92,0,0,0-5.52-5.89c-2.53-.78-5.2-.45-7.8-.11l-11.55,1.48a8.87,8.87,0,0,0-3.75,1.08,4.11,4.11,0,0,0-1.92,3.66c.39,4.43,10.28,6.69,13.46,7.15A21.39,21.39,0,0,0,266.93,301Z" transform="translate(-51.01 -58.45)"/><path class="b1a4712b-28bf-4265-9c15-7bfc840390ca" d="M213.56,304.47a2.74,2.74,0,0,0,1-1.35,2.8,2.8,0,0,0,0-1.22,7.94,7.94,0,0,0-5.51-5.89c-2.54-.77-5.21-.44-7.81-.11l-11.54,1.49a8.91,8.91,0,0,0-3.76,1.08,4.09,4.09,0,0,0-1.92,3.65c.39,4.43,10.29,6.7,13.47,7.15A21.27,21.27,0,0,0,213.56,304.47Z" transform="translate(-51.01 -58.45)"/><path class="b1a4712b-28bf-4265-9c15-7bfc840390ca" d="M164.69,297.81a2.74,2.74,0,0,0,1-1.35,2.79,2.79,0,0,0,0-1.22,7.9,7.9,0,0,0-5.51-5.89c-2.53-.77-5.21-.44-7.81-.11l-11.54,1.49a8.76,8.76,0,0,0-3.76,1.07,4.11,4.11,0,0,0-1.92,3.66c.39,4.43,10.29,6.7,13.47,7.15A21.35,21.35,0,0,0,164.69,297.81Z" transform="translate(-51.01 -58.45)"/><path class="a0e626da-6f09-441d-b3f5-22a91d6020e7" d="M116.64,286.54a2.24,2.24,0,0,0,1-2.57,7.89,7.89,0,0,0-5.51-5.89c-2.53-.78-5.2-.45-7.81-.11l-11.54,1.49A8.67,8.67,0,0,0,89,280.53a4.09,4.09,0,0,0-1.92,3.66c.38,4.43,10.28,6.69,13.46,7.15A21.39,21.39,0,0,0,116.64,286.54Z" transform="translate(-51.01 -58.45)"/><path class="bdb4c22c-5d04-4f65-8074-f91a620080ae" d="M96.63,260.27A2.65,2.65,0,0,0,97.69,259a2.78,2.78,0,0,0,0-1.22,8,8,0,0,0-5.34-6.1c-2.51-.87-5.19-.64-7.8-.41l-11.58,1a8.68,8.68,0,0,0-3.78.93,4.05,4.05,0,0,0-2,3.58c.26,4.44,10.09,7.09,13.26,7.67A21.2,21.2,0,0,0,96.63,260.27Z" transform="translate(-51.01 -58.45)"/><path class="b1a4712b-28bf-4265-9c15-7bfc840390ca" d="M151.46,258.33a2.74,2.74,0,0,0,1-1.35,2.79,2.79,0,0,0,0-1.22,7.9,7.9,0,0,0-5.51-5.89c-2.54-.77-5.21-.44-7.81-.11l-11.54,1.49a9,9,0,0,0-3.76,1.07,4.11,4.11,0,0,0-1.92,3.66c.39,4.43,10.29,6.7,13.47,7.15A21.31,21.31,0,0,0,151.46,258.33Z" transform="translate(-51.01 -58.45)"/><path class="b1a4712b-28bf-4265-9c15-7bfc840390ca" d="M285.7,257.29a2.23,2.23,0,0,0,1-2.57,7.9,7.9,0,0,0-5.51-5.89c-2.53-.78-5.2-.45-7.81-.11l-11.54,1.49a8.67,8.67,0,0,0-3.75,1.07,4.12,4.12,0,0,0-1.93,3.66c.39,4.43,10.29,6.69,13.47,7.15A21.35,21.35,0,0,0,285.7,257.29Z" transform="translate(-51.01 -58.45)"/><path class="b1a4712b-28bf-4265-9c15-7bfc840390ca" d="M228.18,268.45c4.22.18,6.52-1.38,7.73-6.4.43-1.79.1-4-1.21-5a4.92,4.92,0,0,0-3.75-.69c-3.57.36-13,.26-13.67,5.63C216.5,268.19,225,268.32,228.18,268.45Z" transform="translate(-51.01 -58.45)"/><path class="b1a4712b-28bf-4265-9c15-7bfc840390ca" d="M149.6,276.46c4.22.18,6.52-1.38,7.73-6.4.43-1.79.09-4-1.21-5a4.92,4.92,0,0,0-3.75-.69c-3.57.35-13,.26-13.67,5.63C137.91,276.19,146.4,276.32,149.6,276.46Z" transform="translate(-51.01 -58.45)"/><path class="b1a4712b-28bf-4265-9c15-7bfc840390ca" d="M132.33,289c4.23.18,6.53-1.37,7.73-6.39.43-1.8.1-4-1.2-5.05a4.94,4.94,0,0,0-3.76-.69c-3.56.36-13,.27-13.66,5.64C120.65,288.73,129.14,288.86,132.33,289Z" transform="translate(-51.01 -58.45)"/><path class="b1a4712b-28bf-4265-9c15-7bfc840390ca" d="M182.88,277.94c2.85.12,4.4-.93,5.21-4.32a3.48,3.48,0,0,0-.81-3.4,3.37,3.37,0,0,0-2.54-.47c-2.4.25-8.75.18-9.21,3.81C175,277.76,180.72,277.85,182.88,277.94Z" transform="translate(-51.01 -58.45)"/><path class="b1a4712b-28bf-4265-9c15-7bfc840390ca" d="M191.51,288.73c2.85.12,4.4-.93,5.21-4.31a3.48,3.48,0,0,0-.81-3.4,3.3,3.3,0,0,0-2.53-.47c-2.41.24-8.76.18-9.22,3.8C183.63,288.55,189.35,288.64,191.51,288.73Z" transform="translate(-51.01 -58.45)"/><path class="b1a4712b-28bf-4265-9c15-7bfc840390ca" d="M177.12,251.9c2.85.12,4.4-.92,5.21-4.31a3.48,3.48,0,0,0-.81-3.4,3.33,3.33,0,0,0-2.54-.47c-2.4.24-8.75.18-9.21,3.8C169.24,251.73,175,251.81,177.12,251.9Z" transform="translate(-51.01 -58.45)"/><path class="b1a4712b-28bf-4265-9c15-7bfc840390ca" d="M222.09,295.4c2.85.12,4.4-.93,5.21-4.32a3.48,3.48,0,0,0-.81-3.4,3.35,3.35,0,0,0-2.53-.47c-2.41.25-8.76.18-9.22,3.81C214.21,295.22,219.93,295.31,222.09,295.4Z" transform="translate(-51.01 -58.45)"/><path class="b1a4712b-28bf-4265-9c15-7bfc840390ca" d="M240,290.13c2.85.12,4.4-.93,5.21-4.32a3.48,3.48,0,0,0-.81-3.4,3.33,3.33,0,0,0-2.54-.47c-2.4.24-8.75.18-9.21,3.8C232.15,290,237.87,290,240,290.13Z" transform="translate(-51.01 -58.45)"/><path class="b1a4712b-28bf-4265-9c15-7bfc840390ca" d="M110.25,258.44c2.85.12,4.4-.93,5.21-4.32a3.48,3.48,0,0,0-.81-3.4,3.35,3.35,0,0,0-2.53-.47c-2.41.25-8.76.18-9.22,3.81C102.37,258.26,108.09,258.35,110.25,258.44Z" transform="translate(-51.01 -58.45)"/><path class="b1a4712b-28bf-4265-9c15-7bfc840390ca" d="M166.5,286c2.86.12,4.41-.93,5.22-4.32a3.49,3.49,0,0,0-.82-3.4,3.34,3.34,0,0,0-2.53-.47c-2.4.25-8.76.18-9.21,3.81C158.63,285.77,164.35,285.86,166.5,286Z" transform="translate(-51.01 -58.45)"/><path class="e8eabafa-8e70-4d04-ace5-65bc5e443429" d="M100.42,272c2.86.12,4.41-.93,5.22-4.32a3.51,3.51,0,0,0-.81-3.4,3.32,3.32,0,0,0-2.54-.46c-2.4.24-8.75.17-9.21,3.8C92.55,271.84,98.27,271.93,100.42,272Z" transform="translate(-51.01 -58.45)"/><path class="b1a4712b-28bf-4265-9c15-7bfc840390ca" d="M251.49,266.67c-2.13,1.39-4.59,3.48-4.26,6.32a5.44,5.44,0,0,0,1.42,2.91,11.4,11.4,0,0,0,7.46,3.37,6.73,6.73,0,0,0,5.05-.95c2.61-2,2.45-7,.18-9.57s-5.84-2.84-8.83-1.74Z" transform="translate(-51.01 -58.45)"/><path class="b1a4712b-28bf-4265-9c15-7bfc840390ca" d="M270,267.38a2.51,2.51,0,0,0-1.24,1.06,2.69,2.69,0,0,0-.2,1.2,8.63,8.63,0,0,0,4.32,7.12c2.34,1.38,5,1.72,7.61,2l11.56,1.4a8.66,8.66,0,0,0,3.86-.13,3.79,3.79,0,0,0,2.54-3.1c.42-4.42-8.85-9.08-11.88-10.31A20.66,20.66,0,0,0,270,267.38Z" transform="translate(-51.01 -58.45)"/><path class="b1a4712b-28bf-4265-9c15-7bfc840390ca" d="M294.36,251.71a2.47,2.47,0,0,0-1.24,1.06,2.84,2.84,0,0,0-.21,1.2,8.66,8.66,0,0,0,4.33,7.12c2.34,1.38,5,1.72,7.61,2l11.55,1.4a8.71,8.71,0,0,0,3.87-.13,3.76,3.76,0,0,0,2.53-3.1c.42-4.42-8.84-9.08-11.87-10.31A20.66,20.66,0,0,0,294.36,251.71Z" transform="translate(-51.01 -58.45)"/><path class="b6e22e11-b45e-4430-a9a0-017b073746cd" d="M317.85,291.76a2.74,2.74,0,0,0,1-1.35,2.79,2.79,0,0,0,0-1.22,7.92,7.92,0,0,0-5.51-5.89c-2.54-.77-5.21-.44-7.81-.11L294,284.68a9,9,0,0,0-3.76,1.07,4.11,4.11,0,0,0-1.92,3.66c.39,4.43,10.29,6.7,13.47,7.15A21.31,21.31,0,0,0,317.85,291.76Z" transform="translate(-51.01 -58.45)"/><path class="b1a4712b-28bf-4265-9c15-7bfc840390ca" d="M271.87,289.78c2.86.12,4.41-.93,5.22-4.32a3.49,3.49,0,0,0-.82-3.4,3.34,3.34,0,0,0-2.53-.47c-2.4.25-8.76.18-9.21,3.81C264,289.6,269.72,289.69,271.87,289.78Z" transform="translate(-51.01 -58.45)"/><path class="e055c143-ca95-4a34-ab71-5b89eb24e4a1" d="M312.06,276.89c2.85.12,4.4-.93,5.21-4.31a3.48,3.48,0,0,0-.81-3.4,3.3,3.3,0,0,0-2.53-.47c-2.41.24-8.76.18-9.22,3.8C304.18,276.72,309.9,276.8,312.06,276.89Z" transform="translate(-51.01 -58.45)"/><path class="b1a4712b-28bf-4265-9c15-7bfc840390ca" d="M248.06,265.4c2.85.12,4.4-.93,5.22-4.31a3.51,3.51,0,0,0-.82-3.41,3.33,3.33,0,0,0-2.53-.46c-2.4.24-8.76.18-9.22,3.8C240.18,265.22,245.91,265.31,248.06,265.4Z" transform="translate(-51.01 -58.45)"/><path class="b1a4712b-28bf-4265-9c15-7bfc840390ca" d="M119.77,271.67c2.85.12,4.41-.93,5.22-4.31a3.5,3.5,0,0,0-.82-3.41,3.33,3.33,0,0,0-2.53-.46c-2.4.24-8.76.18-9.22,3.8C111.89,271.49,117.62,271.58,119.77,271.67Z" transform="translate(-51.01 -58.45)"/><path class="b1a4712b-28bf-4265-9c15-7bfc840390ca" d="M239,245.68c-2.85-.11-4.39.95-5.19,4.34a3.49,3.49,0,0,0,.82,3.4,3.36,3.36,0,0,0,2.54.45c2.4-.25,8.75-.22,9.2-3.84C246.88,245.82,241.16,245.76,239,245.68Z" transform="translate(-51.01 -58.45)"/><path class="b1a4712b-28bf-4265-9c15-7bfc840390ca" d="M212.9,254.26c2.86.12,4.41-.93,5.22-4.32a3.49,3.49,0,0,0-.82-3.4,3.34,3.34,0,0,0-2.53-.47c-2.4.25-8.76.18-9.21,3.81C205,254.08,210.75,254.17,212.9,254.26Z" transform="translate(-51.01 -58.45)"/><path class="ff74a5c2-21f4-45ab-9d80-80a2fc230136" d="M153.6,201.25c-2.13,1.13-4.59,2.81-4.26,5.1a4.15,4.15,0,0,0,1.42,2.36c2,1.78,4.76,2.46,7.46,2.72a8,8,0,0,0,5.05-.77c2.6-1.64,2.45-5.69.18-7.73s-5.84-2.29-8.83-1.41Z" transform="translate(-51.01 -58.45)"/><path class="ff74a5c2-21f4-45ab-9d80-80a2fc230136" d="M232.82,230.14c4.23.14,6.53-1.11,7.73-5.17a3.63,3.63,0,0,0-1.2-4.07,5.86,5.86,0,0,0-3.76-.56c-3.56.29-13,.21-13.66,4.55C221.14,229.93,229.62,230,232.82,230.14Z" transform="translate(-51.01 -58.45)"/><path class="ff74a5c2-21f4-45ab-9d80-80a2fc230136" d="M94.86,243.12c4.22.15,6.52-1.11,7.73-5.16a3.65,3.65,0,0,0-1.21-4.08,6,6,0,0,0-3.75-.56c-3.57.29-13,.22-13.67,4.56C83.17,242.91,91.66,243,94.86,243.12Z" transform="translate(-51.01 -58.45)"/><path class="ff74a5c2-21f4-45ab-9d80-80a2fc230136" d="M314.79,215.78c2.85.09,4.41-.75,5.22-3.49a2.46,2.46,0,0,0-.82-2.75,4,4,0,0,0-2.53-.37c-2.4.19-8.76.14-9.21,3.07C306.91,215.63,312.64,215.7,314.79,215.78Z" transform="translate(-51.01 -58.45)"/><path class="ff74a5c2-21f4-45ab-9d80-80a2fc230136" d="M224.61,243.26c2.85.09,4.4-.75,5.21-3.49A2.45,2.45,0,0,0,229,237a4,4,0,0,0-2.53-.37c-2.41.19-8.76.14-9.22,3.07C216.73,243.11,222.45,243.18,224.61,243.26Z" transform="translate(-51.01 -58.45)"/><path class="ff74a5c2-21f4-45ab-9d80-80a2fc230136" d="M266.44,206.6c2.85.1,4.4-.75,5.21-3.48a2.45,2.45,0,0,0-.81-2.75,4,4,0,0,0-2.53-.38c-2.41.2-8.76.14-9.22,3.07C258.56,206.46,264.28,206.53,266.44,206.6Z" transform="translate(-51.01 -58.45)"/><path class="bd9a92e7-9f04-4534-a889-3bc26b53cc6c" d="M264.31,235.26c2.85.09,4.4-.76,5.21-3.49a2.45,2.45,0,0,0-.81-2.75,4,4,0,0,0-2.53-.37c-2.41.19-8.76.14-9.22,3.07C256.43,235.11,262.15,235.18,264.31,235.26Z" transform="translate(-51.01 -58.45)"/><path class="ff74a5c2-21f4-45ab-9d80-80a2fc230136" d="M115,214.19c2.86.1,4.41-.75,5.22-3.48a2.45,2.45,0,0,0-.82-2.75,4,4,0,0,0-2.53-.38c-2.4.2-8.76.15-9.21,3.07C107.17,214.05,112.89,214.12,115,214.19Z" transform="translate(-51.01 -58.45)"/><path class="bd9a92e7-9f04-4534-a889-3bc26b53cc6c" d="M183.65,220.43c2.85.1,4.4-.75,5.21-3.48a2.45,2.45,0,0,0-.81-2.75,4,4,0,0,0-2.54-.38c-2.4.2-8.75.15-9.21,3.07C175.77,220.29,181.49,220.36,183.65,220.43Z" transform="translate(-51.01 -58.45)"/><path class="bd9a92e7-9f04-4534-a889-3bc26b53cc6c" d="M89.93,220.91c2.85.1,4.4-.75,5.22-3.48a2.45,2.45,0,0,0-.82-2.75,4,4,0,0,0-2.53-.38c-2.41.2-8.76.15-9.22,3.07C82.05,220.77,87.78,220.84,89.93,220.91Z" transform="translate(-51.01 -58.45)"/><path class="ff74a5c2-21f4-45ab-9d80-80a2fc230136" d="M277.88,208.94c-2.14,1.13-4.59,2.82-4.26,5.1A4.1,4.1,0,0,0,275,216.4c2,1.78,4.76,2.47,7.47,2.72a8.07,8.07,0,0,0,5-.76c2.61-1.65,2.45-5.7.19-7.74s-5.85-2.29-8.83-1.41Z" transform="translate(-51.01 -58.45)"/><path class="ff74a5c2-21f4-45ab-9d80-80a2fc230136" d="M289.26,239.22c2.85.1,4.41-.75,5.22-3.48a2.45,2.45,0,0,0-.82-2.75,4,4,0,0,0-2.53-.38c-2.4.2-8.76.15-9.21,3.08C281.39,239.08,287.11,239.15,289.26,239.22Z" transform="translate(-51.01 -58.45)"/><path class="ff74a5c2-21f4-45ab-9d80-80a2fc230136" d="M316.86,229.1c2.85.1,4.4-.75,5.21-3.48a2.46,2.46,0,0,0-.81-2.75,4,4,0,0,0-2.54-.38c-2.4.2-8.75.14-9.21,3.07C309,229,314.7,229,316.86,229.1Z" transform="translate(-51.01 -58.45)"/><path class="bd9a92e7-9f04-4534-a889-3bc26b53cc6c" d="M254.06,219.82c2.85.09,4.4-.75,5.21-3.49a2.46,2.46,0,0,0-.81-2.75,4,4,0,0,0-2.53-.37c-2.41.19-8.76.14-9.22,3.07C246.18,219.67,251.9,219.74,254.06,219.82Z" transform="translate(-51.01 -58.45)"/><path class="bd9a92e7-9f04-4534-a889-3bc26b53cc6c" d="M112.08,244c2.85.1,4.4-.75,5.21-3.48a2.45,2.45,0,0,0-.81-2.75,4,4,0,0,0-2.53-.38c-2.41.2-8.76.15-9.22,3.07C104.2,243.87,109.92,243.94,112.08,244Z" transform="translate(-51.01 -58.45)"/><path class="bd9a92e7-9f04-4534-a889-3bc26b53cc6c" d="M144.23,229.34c-2.85-.09-4.4.76-5.2,3.5a2.46,2.46,0,0,0,.83,2.75,3.94,3.94,0,0,0,2.53.36c2.4-.2,8.76-.17,9.2-3.1C152.11,229.45,146.39,229.4,144.23,229.34Z" transform="translate(-51.01 -58.45)"/><path class="ff74a5c2-21f4-45ab-9d80-80a2fc230136" d="M218.9,206.64c2.85.11,4.4-.85,5.21-3.93a3,3,0,0,0-.81-3.11,3.61,3.61,0,0,0-2.53-.42c-2.41.22-8.76.16-9.22,3.47C211,206.48,216.74,206.56,218.9,206.64Z" transform="translate(-51.01 -58.45)"/><path class="b9a682c3-37b5-41a9-9dab-6c8c4bea2977" d="M109.48,152a35,35,0,0,0,15.37-6.62,7.18,7.18,0,0,1,6.83-1.06l9.5,3.47a7.17,7.17,0,0,0,7.15-1.32l17-14.57a7.2,7.2,0,0,1,8.06-.92l40.07,21.21a7.15,7.15,0,0,0,7.73-.66l12-9.18a7.17,7.17,0,0,1,6.83-1.06l10.89,4a7.15,7.15,0,0,0,7.15-1.32l18.91-16.23a7.16,7.16,0,0,1,8.06-.92c6.93,4,13.2,11.29,19.36,16.36,3.9,3.2,7.87,7.84,12.48,9.81,5.62,2.42,31.62.89,29.67,11.42-.48,2.61-2.82,4.56-5.35,5.36a22,22,0,0,1-7.89.55l-57.18-2.88c-16.27-.81-31.8,1.58-48.12.76-10.6-.53-21.13-1.93-31.71-2.58-15.11-.93-30.25-.32-45.37.15s-30.16-.56-45.23-.93c-14.38-.35-30.79,3.17-44.86.35-3.65-.74-7.24-2.67-9.1-5.9-.6-1-1-2.39-.28-3.35A3.49,3.49,0,0,1,53,154.82C70.92,147.73,91.55,155.24,109.48,152Z" transform="translate(-51.01 -58.45)"/></g><path class="a62c1ea0-1785-4dc5-8aee-ede59fb64d1c" d="M267.3,105.73a21.68,21.68,0,0,1-2.23-7.86c-.5-7.09,3.62-13.61,6.65-19.71,2.78-5.6,4.84-14-4.54-13.21-7.47.59-16.26,8-17.26,15.81-1.18,9.19,3.29,20.78-2,29.13-7.42,11.68-12.77,9-12.77,28.71,0,8.42,4.66,13.07,10,15.63a22.37,22.37,0,0,0,25.21-4.1c5.93-5.74,9.46-14,8.27-22.29S270.85,113.11,267.3,105.73Z" transform="translate(-51.01 -58.45)"/><path class="bb536a48-a8ba-4259-87cb-757b3fa61b2b" d="M261,169.25a.41.41,0,0,1-.4-.32c-4.66-18.56-7.19-35.4-7.53-50-.27-11.72.85-22.06,3.34-30.75a48.73,48.73,0,0,1,7.2-15.52,19.78,19.78,0,0,1,4-4.32.42.42,0,0,1,.47.69h0a19.61,19.61,0,0,0-3.89,4.19,48.25,48.25,0,0,0-7.05,15.3c-2.45,8.61-3.55,18.86-3.28,30.49.35,14.55,2.88,31.29,7.5,49.75a.42.42,0,0,1-.3.51Z" transform="translate(-51.01 -58.45)"/><path class="a62c1ea0-1785-4dc5-8aee-ede59fb64d1c" d="M274.75,85a3.06,3.06,0,0,0-1.18-.08c-2.34.27-3.3,2.73-4,4.66-.59,1.65-1.28,3.65-.93,5.44.37,1.94,2.43,3.51,3.92,1.55,1.69-2.23,4.23-5.66,4.25-8.61A2.91,2.91,0,0,0,274.75,85Z" transform="translate(-51.01 -58.45)"/><path class="bb536a48-a8ba-4259-87cb-757b3fa61b2b" d="M293.8,138.72c1-6.3-1.33-13.53-2.48-20.19A32.07,32.07,0,0,1,291,108c.56-3.52,2.22-7.34.69-10.85-3.08-7.09-10.4-3.86-14.6,1.47-4.86,6.18-6.19,16.29-8,24.08-1.12,4.69-2.8,9.5-3.38,14.29-1,7.92.81,13.42,4.6,17.13a11.49,11.49,0,0,0,13.62,1.83C287.92,153.67,292.26,148.89,293.8,138.72Z" transform="translate(-51.01 -58.45)"/><path class="a62c1ea0-1785-4dc5-8aee-ede59fb64d1c" d="M277.05,168.13a.43.43,0,0,1-.41-.35,158.78,158.78,0,0,1-1.65-23c0-12.25,1.28-30.22,7.76-46.25a.42.42,0,0,1,.54-.23.43.43,0,0,1,.23.55c-3.55,8.77-7.77,23.86-7.7,45.93a157.48,157.48,0,0,0,1.64,22.85.41.41,0,0,1-.34.48Z" transform="translate(-51.01 -58.45)"/><path class="a62c1ea0-1785-4dc5-8aee-ede59fb64d1c" d="M111,155.59a18.5,18.5,0,0,0,4.75-5.72,7.91,7.91,0,0,0,0-7.2c-1.93-3.32-6.81-4-10.18-2.16a24.29,24.29,0,0,0,3.56-9.73c.28-2.09-.11-4.81-2.14-5.39s-3.74,1.42-4.88,3.16a12.44,12.44,0,0,0-3.75-12.41,5.6,5.6,0,0,0-3.21-1.56A4.73,4.73,0,0,0,91,117a10.54,10.54,0,0,0-1.3,4.78c-.61,7.69,1.89,15.24,4.35,22.55a15.15,15.15,0,0,0-9.84-5.23,3.45,3.45,0,0,0-2.59.5c-1.22,1-.72,3,0,4.39a22.19,22.19,0,0,0,5.78,6.89,12.5,12.5,0,0,0-11-1.13,3.72,3.72,0,0,0-1.64,1c-1,1.23-.37,3.1.69,4.26a13.86,13.86,0,0,0,4.34,2.85c4.22,2.06,12.36,7.82,16.47,7C101.29,164,107.29,158.82,111,155.59Z" transform="translate(-51.01 -58.45)"/><path class="f2ff5246-fbcd-4fe1-aed6-f34d511069ff" d="M95.26,129.85a.33.33,0,0,0-.18-.2.26.26,0,0,0-.23,0,.38.38,0,0,0-.17.44c1.45,4.42,3.16,12,3.14,23.13a99,99,0,0,1-.67,11.5.34.34,0,0,0,.25.4h0a.31.31,0,0,0,.3-.29,97.29,97.29,0,0,0,.68-11.61C98.44,147,97.91,138,95.26,129.85Z" transform="translate(-51.01 -58.45)"/><path class="a7ddb171-b86e-490e-abdd-f6c49538f21a" d="M213.25,236.61" transform="translate(-51.01 -58.45)"/><circle class="bc62621f-d419-49f9-bb04-9a9c34791edf" cx="180.29" cy="159.88" r="25.69"/></g><g id="f19d5ddb-acb3-4a3a-9929-cc01a8a003d9" data-name="Calque 3"><circle class="b6da5c5f-dcd2-4920-ab80-94d7e3ed43e7" cx="156.99" cy="151.25" r="25.38"/><path class="e415bb2e-7c2b-4184-bf1d-790d26241eb6" d="M226.84,190.87a26.64,26.64,0,0,0-38.28,37l-56.33,47.86a1,1,0,0,0-.11,1.34.94.94,0,0,0,.72.33.92.92,0,0,0,.62-.23l56.46-47.95a26.64,26.64,0,0,0,36.92-38.39ZM225.5,227.2a24.75,24.75,0,0,1-34.86.12l0,0-.08-.07a24.74,24.74,0,1,1,35,0Z" transform="translate(-51.01 -58.45)"/><path class="e415bb2e-7c2b-4184-bf1d-790d26241eb6" d="M219.83,222.75v-19a.51.51,0,0,0-.51-.51H214.2a.51.51,0,0,0-.51.51v19h-1V211a.51.51,0,0,0-.51-.51H207a.51.51,0,0,0-.51.51v11.79h-1V205.84a.51.51,0,0,0-.51-.51h-5.12a.51.51,0,0,0-.52.51v16.91h-1V213a.51.51,0,0,0-.51-.51h-5.13a.51.51,0,0,0-.51.51v9.74h-1.53v1h30.73v-1Zm-22.54,0H193.2v-9.23h4.09Zm7.18,0h-4.1v-16.4h4.1Zm7.17,0h-4.1V211.48h4.1Zm7.17,0h-4.1V204.3h4.1Z" transform="translate(-51.01 -58.45)"/><path class="e415bb2e-7c2b-4184-bf1d-790d26241eb6" d="M193.83,207a2.56,2.56,0,0,0,3.55-3.55l3.63-3.62a2.57,2.57,0,0,0,1.4.43,3.42,3.42,0,0,0,.45,0,2.63,2.63,0,0,0,1.3-.65l3,2.33a2.56,2.56,0,1,0,4.78,1.84,2.59,2.59,0,0,0-.25-2.34l3.62-3.62a2.59,2.59,0,1,0-.72-.73L211,200.63a2.56,2.56,0,0,0-3.22.32l0,0-3-2.31a2.56,2.56,0,1,0-4.48.37l-3.62,3.63a2.56,2.56,0,1,0-2.83,4.27Zm22.93-12.89a1.54,1.54,0,1,1-1.54,1.53A1.54,1.54,0,0,1,216.76,194.06Zm-8.26,7.62a1.54,1.54,0,0,1,2.63,1.09,1.56,1.56,0,0,1-.45,1.08,1.58,1.58,0,0,1-2.18,0A1.53,1.53,0,0,1,208.5,201.68Zm-7.34-4.92h0a1.54,1.54,0,0,1,1-.63,1.23,1.23,0,0,1,.27,0,1.49,1.49,0,0,1,.88.28,1.53,1.53,0,1,1-1.76,2.51A1.53,1.53,0,0,1,201.16,196.76Zm-7,7h0a1.53,1.53,0,0,1,2.17,2.17,1.57,1.57,0,0,1-2.17,0A1.53,1.53,0,0,1,194.16,203.73Z" transform="translate(-51.01 -58.45)"/><path class="a7ddb171-b86e-490e-abdd-f6c49538f21a" d="M132.84,273.78" transform="translate(-51.01 -58.45)"/><path class="e415bb2e-7c2b-4184-bf1d-790d26241eb6" d="M132.6,309.93c0,.72.06,1.67.84,2a2.12,2.12,0,0,0,.82.12l1.74,0a4,4,0,0,0,1.15-.08c.29-.08.54-.23.82-.33,1.42-.54,3.23.07,4.89.27a9.49,9.49,0,0,0,6.74-1.7c1.63-1.45-.47-3.47-2.55-3.5s-3.8.58-5.76.11a2.53,2.53,0,0,1-1.45-.81,2.22,2.22,0,0,1-.26-1.75c.12-.86.25-1.72.38-2.58a3.06,3.06,0,0,1,.5-1.12,22.72,22.72,0,0,1-4.5-.1c-1.28-.08-2.52-.56-2.8.69C132.56,303.9,132.78,307.1,132.6,309.93Z" transform="translate(-51.01 -58.45)"/><path class="e415bb2e-7c2b-4184-bf1d-790d26241eb6" d="M61.48,306.66a1.12,1.12,0,0,0-.69.39,1.14,1.14,0,0,0,0,.87,49.78,49.78,0,0,0,2.54,7,8.33,8.33,0,0,0,2.55,3.6A7.18,7.18,0,0,0,69,319.58a5.69,5.69,0,0,0,3.63-.4A2.5,2.5,0,0,0,73.82,316a2.69,2.69,0,0,0-2.71-1.11c-.57,0-1,.36-1.4,0-.27-.26-.36-1.12-.45-1.48a2.23,2.23,0,0,1,.13-1.72,2.32,2.32,0,0,1,1.8-.83,1.64,1.64,0,0,0,1.19-.46,1.46,1.46,0,0,0,.17-1c0-.41-.09-.81-.16-1.21-.11-.72-.19-2.44-.73-3-.24-.24-.68-.21-1-.22a18.49,18.49,0,0,0-3.31.41C65.39,305.72,63.42,306.15,61.48,306.66Z" transform="translate(-51.01 -58.45)"/><path class="a62c1ea0-1785-4dc5-8aee-ede59fb64d1c" d="M88.26,267.24c.87-1.82,3.76-2.9,5.54-3.52,6.39-2.24,13.19-3.11,19.91-3.87,2.87-.32,5.74-.62,8.63-.76,2.54-.12,5.14-.35,7.67-.28l3.31.1a10.48,10.48,0,0,1,2.37.24c1.19.31,2.12.39,3,1.35a16.38,16.38,0,0,1,3.86,8.08c.07.37.13.73.19,1.1,0,5.71,0,11.42-.49,17.13-.44,5.39-1,10.78-1.57,16.16-2.31.07-4.63.13-6.94.21l-2.29,0c-2.74-8.66-3.21-17.94-3.49-27.06a177,177,0,0,1-24.58,4c-6,.5-13.44.12-15.27-7a12.8,12.8,0,0,1-.36-2.75A6.65,6.65,0,0,1,88.26,267.24Z" transform="translate(-51.01 -58.45)"/><path class="ff74a5c2-21f4-45ab-9d80-80a2fc230136" d="M132.72,214.92a5.81,5.81,0,0,1,1.13,4.61,8.26,8.26,0,0,1-.87,2.34c-.83,1.6-2.17,3.21-4,3.31-1,.06-2-.36-3-.18a4.76,4.76,0,0,0-2.37,1.53,37.68,37.68,0,0,0-4,4.81c-2-.7-4-1.47-5.29-3.09A109.15,109.15,0,0,1,124.72,215C127.08,212.46,130.35,211.91,132.72,214.92Z" transform="translate(-51.01 -58.45)"/><path class="e06fd8ee-f82a-4c6a-8e7f-4f2380052b43" d="M116.54,229.11a4.61,4.61,0,0,1,4.67-1.55c2.84.78,4.23,5.36,5.2,7.79a35.39,35.39,0,0,0,4.13,8,20.33,20.33,0,0,0,16.07,8.07,46.24,46.24,0,0,0-1.07,7.78,14.43,14.43,0,0,0-4.19.37c-6.95,1-13.86-2.93-18.33-8-2.71-3.08-6.81-9.13-7.91-14.66C114.53,234,114.79,231.22,116.54,229.11Z" transform="translate(-51.01 -58.45)"/><path class="b63d0938-9978-437c-8d18-e92f150a8e8c" d="M116.26,249.8a93.45,93.45,0,0,1-10.32,13.51c-.59-1-1.27-.9-2.31-1.07A32.25,32.25,0,0,1,99.35,261c-4.48-1.38-13.17-4.17-13.66-4.42C85.43,256.43,96,242.47,97,241.25c2.51-3,5.13-5.85,7.92-8.55q2.14-2.07,4.44-4a19.51,19.51,0,0,1,4.26-3.08,4,4,0,0,1,1.09-.39,4,4,0,0,1,1.2,0,11.34,11.34,0,0,1,2,.39,6.76,6.76,0,0,1,4,3.91,11.26,11.26,0,0,1,.61,5.67,26.78,26.78,0,0,1-2.38,7.28A60.09,60.09,0,0,1,116.26,249.8Z" transform="translate(-51.01 -58.45)"/><path class="f6c182cf-62ef-4366-a381-6646ba245f95" d="M106.49,265.53s0-.28.1-.3.23.09.3.15a2,2,0,0,0-.34.29s0,0,0-.06S106.49,265.59,106.49,265.53Z" transform="translate(-51.01 -58.45)"/><path class="a62c1ea0-1785-4dc5-8aee-ede59fb64d1c" d="M69.17,303.33c8.53-2.8,16.93-5.83,25.63-8.07-.52.13-4.18-7.26-4.59-8-3.22-6.23-6.91-12.78-7.07-20A20.65,20.65,0,0,1,84,261a32,32,0,0,1,3.22-7.42c.56-.93,1.16-1.84,1.79-2.73,6,4.24,13,6.72,19.83,9.53-.12.21-.25.42-.36.64a18.14,18.14,0,0,0-1.71,3.79,16,16,0,0,0,.06,5.68,73.49,73.49,0,0,0,2.18,8.93c1.25,4.51,2.13,8.77,3,13.56.77,4,2.76,10.36-.81,13.46-3.94,3.41-9,3.33-13.48,3.85-6.63.78-12,1.47-18.49,2.64-2.35.42-5.12.74-7.66,1C70.77,310.46,70,306.9,69.17,303.33Z" transform="translate(-51.01 -58.45)"/><path class="b1a4712b-28bf-4265-9c15-7bfc840390ca" d="M146.23,252.87l.93.14a8.77,8.77,0,0,0,1.6.21,2.8,2.8,0,0,0,.86-.13c1.49-.51,2.5-.79,3.6.63a4.38,4.38,0,0,1,.91,3.3,3.08,3.08,0,0,1-1.22,1.92,5,5,0,0,1-4.08.38,6.76,6.76,0,0,1-1-.34,4,4,0,0,1-2-1.53c-.25-.43-.38-.86-.59-1.25C145.63,255.1,145.91,254,146.23,252.87Z" transform="translate(-51.01 -58.45)"/><path class="ff74a5c2-21f4-45ab-9d80-80a2fc230136" d="M143.54,258.21c.16-1.09,1.72-2.11,3-2.17a27.33,27.33,0,0,1,3.59.38,4,4,0,0,0,3.33-1c.77-.88.81-2.17,1.24-3.26a4.8,4.8,0,0,1,1.91-2.29.81.81,0,0,1,.3.86,4.15,4.15,0,0,1-.39.89c-.95,2-.2,4.31,2.13,2.56a29.41,29.41,0,0,1,4.67-2.87.64.64,0,0,1,.59-.09.61.61,0,0,1,.22.61,8.58,8.58,0,0,1-.74,1.91,15.23,15.23,0,0,0-.45,2.11,4.4,4.4,0,0,1-3,3.45,23,23,0,0,1-6,1c-3.29.1-6.51,1.33-9.55-.66A1.45,1.45,0,0,1,143.54,258.21Z" transform="translate(-51.01 -58.45)"/><path class="b63d0938-9978-437c-8d18-e92f150a8e8c" d="M111.84,234.08a8.58,8.58,0,0,1,1.36-2.7,7,7,0,0,1,3.25-2.7,4,4,0,0,1,4,.58,5.63,5.63,0,0,1,1.37,2.85,63.8,63.8,0,0,0,4.29,11.12,12.63,12.63,0,0,0,2.27,3.7,18.47,18.47,0,0,0,4.71,3.27,22.63,22.63,0,0,0,3.83,1.57A61.2,61.2,0,0,0,150.26,254c0,2.54,0,5.07,0,7.61-7.5.11-14.52,1.33-21.5-2A35,35,0,0,1,115,247.76C112.11,243.74,110.64,239,111.84,234.08Z" transform="translate(-51.01 -58.45)"/><path class="e415bb2e-7c2b-4184-bf1d-790d26241eb6" d="M98.83,222.82a5.4,5.4,0,0,1,3.91-4,4.55,4.55,0,0,1,1-.12,20.56,20.56,0,0,1,5,1.08,2.57,2.57,0,0,0,2.48-.36c.52-.55.51-1.47,1-2a2.45,2.45,0,0,1,2.48-.29,10.18,10.18,0,0,1,1.91.77c.58.3,1.6.69,2.17.16s.32-1.21.15-1.82a2.58,2.58,0,0,1,1.14-2.95c.6-.33,1.27-.33,1.88-.62a6.78,6.78,0,0,0,1.82-1.42,4.78,4.78,0,0,1,3-1.77c1.41,0,2.5,1.14,3.55,2.07a13.73,13.73,0,0,0,4.09,2.49c.94.36,2,.75,2.34,1.7a1.38,1.38,0,0,1-.28,1.35,1.21,1.21,0,0,1-1.32.3c-.61-.25-1.1-1-1.85-.6-.53.27-.75,1.15-1.09,1.61a14.58,14.58,0,0,1-1.91,2.09,7.12,7.12,0,0,1-7.06,1.45,20,20,0,0,0-1.89-.74c-.94-.25-1.72-.19-2.19.68a12.27,12.27,0,0,0-.86,2.78,21.15,21.15,0,0,1-1.22,3.54,6.8,6.8,0,0,1-1.15,1.9,6.27,6.27,0,0,1-1.54,1.17,11.44,11.44,0,0,1-7.54,1.27,11.1,11.1,0,0,1-6.88-4.06A7.13,7.13,0,0,1,98.83,222.82Z" transform="translate(-51.01 -58.45)"/><path class="e06fd8ee-f82a-4c6a-8e7f-4f2380052b43" d="M109,244.2a21.11,21.11,0,0,1,1.58-4.09,9.58,9.58,0,0,1,.92-1.28,24,24,0,0,0,4,9,17.85,17.85,0,0,0,1.16,2.16l-.53.72a5.37,5.37,0,0,1-2.36,2.08,3.59,3.59,0,0,1-3.46-1C107.83,249.55,108.18,247.16,109,244.2Z" transform="translate(-51.01 -58.45)"/><path class="b1a4712b-28bf-4265-9c15-7bfc840390ca" d="M123.49,222.25c-.43,1.85-.82,3.72-1.16,5.59l1.22-1.38a3.64,3.64,0,0,1,.82-.75,4.22,4.22,0,0,0,.66-.36,2.14,2.14,0,0,1,1.33-.55c-.15-.45-1-.78-1.36-1.08A17.46,17.46,0,0,1,123.49,222.25Z" transform="translate(-51.01 -58.45)"/></g><g id="ba9d2c4a-d7ca-4157-98d9-864787fa2d59" data-name="Calque 5"><path class="a4c388a9-7ca8-45a6-a46e-65b237926915" d="M179.86,329.49a4.69,4.69,0,0,1-2,3.15,5.48,5.48,0,0,1-4.25.7,5.15,5.15,0,0,1-3.51-2.08h0l0,0a1.22,1.22,0,0,1,1.21-1.9,1.25,1.25,0,0,1,.79.5v0a2.88,2.88,0,0,0,1.95,1.08,3.22,3.22,0,0,0,2.42-.3,2.44,2.44,0,0,0-1-4.41,4.87,4.87,0,0,1-3.95-5.66,4.73,4.73,0,0,1,2-3.15,5.48,5.48,0,0,1,4.25-.69,5.17,5.17,0,0,1,3.51,2.07h0l0,0a1.22,1.22,0,0,1-1.22,1.9,1.13,1.13,0,0,1-.77-.51s0,0,0,0a2.85,2.85,0,0,0-1.95-1.08,3.22,3.22,0,0,0-2.42.29,2.44,2.44,0,0,0,1,4.41,4.87,4.87,0,0,1,4,5.66Z" transform="translate(-51.01 -58.45)"/><path class="a4c388a9-7ca8-45a6-a46e-65b237926915" d="M183.42,322.69a4.88,4.88,0,1,1,9.73.86l-.64,7.3a4.88,4.88,0,1,1-9.73-.86Zm7.3.65a2.44,2.44,0,0,0-4.87-.43l-.64,7.29a2.44,2.44,0,0,0,4.87.43Z" transform="translate(-51.01 -58.45)"/><path class="a4c388a9-7ca8-45a6-a46e-65b237926915" d="M204,333.52a1.22,1.22,0,0,1,0,2.44h-7.32a1.23,1.23,0,0,1-1.23-1.21V320.1a1.21,1.21,0,0,1,1.22-1.22,1.21,1.21,0,0,1,1.22,1.21v13.43Z" transform="translate(-51.01 -58.45)"/><path class="a4c388a9-7ca8-45a6-a46e-65b237926915" d="M217.9,330.19a4.71,4.71,0,0,1-1.12,3.57,5.51,5.51,0,0,1-3.92,1.78,5.17,5.17,0,0,1-3.93-1.08v0l0,0a1.16,1.16,0,0,1-.44-.82,1.21,1.21,0,0,1,.28-.89,1.24,1.24,0,0,1,1.72-.16l0,0a2.87,2.87,0,0,0,2.15.53,3.22,3.22,0,0,0,2.27-.92,2.36,2.36,0,0,0,.56-1.78,2.45,2.45,0,0,0-2.65-2.22,4.88,4.88,0,0,1-4.18-8,5.47,5.47,0,0,1,3.92-1.78,5.17,5.17,0,0,1,3.93,1.08v0h0a1.24,1.24,0,0,1,.15,1.73,1.19,1.19,0,0,1-.83.43,1.14,1.14,0,0,1-.88-.29h0a2.87,2.87,0,0,0-2.15-.53,3.22,3.22,0,0,0-2.27.92,2.36,2.36,0,0,0-.56,1.78,2.45,2.45,0,0,0,2.65,2.22,4.87,4.87,0,0,1,5.3,4.43Z" transform="translate(-51.01 -58.45)"/><path class="a4c388a9-7ca8-45a6-a46e-65b237926915" d="M234.89,314.58a4.88,4.88,0,0,1,6,3.45l1.91,7.07a4.88,4.88,0,0,1-3.44,6l-3.54,1a1.23,1.23,0,0,1-.92-.12,1.18,1.18,0,0,1-.57-.74L230.5,317a1.17,1.17,0,0,1,.12-.93,1.21,1.21,0,0,1,.74-.57Zm3.63,4.08a2.33,2.33,0,0,0-1.14-1.48,2.39,2.39,0,0,0-1.85-.24l-2.36.64,3.19,11.78,2.35-.63a2.44,2.44,0,0,0,1.72-3Z" transform="translate(-51.01 -58.45)"/><path class="a4c388a9-7ca8-45a6-a46e-65b237926915" d="M249.45,309.92a1.2,1.2,0,0,1,.93,0,1.24,1.24,0,0,1,.64.69,1.16,1.16,0,0,1-.05.93,1.14,1.14,0,0,1-.68.63l-5.74,2.09,1.68,4.59,4.58-1.67a1.22,1.22,0,0,1,1.57.73,1.2,1.2,0,0,1,0,.93,1.19,1.19,0,0,1-.69.63l-4.59,1.68,1.68,4.58,5.73-2.09a1.16,1.16,0,0,1,.93.05,1.19,1.19,0,0,1,.64.68,1.2,1.2,0,0,1-.05.93,1.19,1.19,0,0,1-.68.64l-6.89,2.51a1.2,1.2,0,0,1-.93-.05,1.17,1.17,0,0,1-.63-.68l-5-13.77a1.16,1.16,0,0,1,0-.93,1.14,1.14,0,0,1,.68-.63Z" transform="translate(-51.01 -58.45)"/><path class="a4c388a9-7ca8-45a6-a46e-65b237926915" d="M263.56,305a1.15,1.15,0,0,1-.12-.92,1.2,1.2,0,0,1,.57-.75l3.17-1.83a4.88,4.88,0,0,1,7.16,5.48c0,.1,0,.2-.08.29l.29.07a4.89,4.89,0,0,1,1.19,8.95l-3.17,1.84a1.2,1.2,0,0,1-.93.11,1.14,1.14,0,0,1-.74-.56Zm2.73-.16,2.44,4.22,2.11-1.22a2.32,2.32,0,0,0,1.14-1.49,2.36,2.36,0,0,0-.25-1.85,2.45,2.45,0,0,0-3.33-.89Zm3.66,6.34,2.45,4.22,2.11-1.22a2.32,2.32,0,0,0,1.14-1.49,2.44,2.44,0,0,0-3.58-2.74Z" transform="translate(-51.01 -58.45)"/><path class="a4c388a9-7ca8-45a6-a46e-65b237926915" d="M284.18,309.73a1.17,1.17,0,0,1,.21.91,1.23,1.23,0,0,1-.5.79,1.23,1.23,0,0,1-1.7-.3l-8.43-12a1.17,1.17,0,0,1-.2-.91,1.19,1.19,0,0,1,.49-.79l3-2.11a4.74,4.74,0,0,1,3.65-.82,4.9,4.9,0,0,1,4,5.65A4.86,4.86,0,0,1,284,302l5.59,3v0a1.1,1.1,0,0,1,.62.46,1.21,1.21,0,0,1-.29,1.7,1.13,1.13,0,0,1-.91.19.94.94,0,0,1-.38-.11l-6.54-3.52-1.38,1Zm-7.72-11,2.81,4,2-1.41a2.35,2.35,0,0,0,1-1.58,2.44,2.44,0,0,0-2-2.82,2.34,2.34,0,0,0-1.83.41Z" transform="translate(-51.01 -58.45)"/><path class="a4c388a9-7ca8-45a6-a46e-65b237926915" d="M289.11,286a1.14,1.14,0,0,1,.89-.28,1.21,1.21,0,0,1,1.11,1.31,1.19,1.19,0,0,1-.43.84L286,291.77l3.15,3.73,3.73-3.15a1.19,1.19,0,0,1,.89-.28,1.22,1.22,0,0,1,1.11,1.32,1.2,1.2,0,0,1-.42.83l-3.73,3.15,3.15,3.73,4.66-3.94a1.22,1.22,0,0,1,1.72.15,1.14,1.14,0,0,1,.28.89,1.19,1.19,0,0,1-.43.83l-5.59,4.72a1.15,1.15,0,0,1-.89.28,1.18,1.18,0,0,1-.83-.42l-9.45-11.19a1.17,1.17,0,0,1-.28-.89,1.18,1.18,0,0,1,.42-.83Z" transform="translate(-51.01 -58.45)"/><path class="a4c388a9-7ca8-45a6-a46e-65b237926915" d="M297.53,277.91a1.22,1.22,0,0,1,1.73,1.71l-1.72,1.74,9.54,9.45a1.21,1.21,0,0,1,.35.86,1.18,1.18,0,0,1-.35.87,1.15,1.15,0,0,1-.86.36,1.18,1.18,0,0,1-.86-.35l-9.54-9.46-1.72,1.73a1.22,1.22,0,0,1-1.73-1.71Z" transform="translate(-51.01 -58.45)"/><path class="a4c388a9-7ca8-45a6-a46e-65b237926915" d="M312.59,283.16l.93,1.23a1.22,1.22,0,0,1,.23.91,1.22,1.22,0,0,1-2.18.56l-9.06-11.94a1.23,1.23,0,0,1-.23-.91,1.38,1.38,0,0,1,.44-.84l.3-.35a1.36,1.36,0,0,1,.74-.59,1.19,1.19,0,0,1,.94.06L318.09,278a1.21,1.21,0,0,1,.61.72,1.17,1.17,0,0,1-.05.92,1.24,1.24,0,0,1-1.65.55l-1.38-.68Zm-1.52-2,2.31-2.78-7.12-3.58Z" transform="translate(-51.01 -58.45)"/><path class="a4c388a9-7ca8-45a6-a46e-65b237926915" d="M318.69,267.33a1.24,1.24,0,0,1-1.7.31,1.23,1.23,0,0,1-.3-1.7l1.39-2a1.16,1.16,0,0,1,.78-.51,1.2,1.2,0,0,1,.92.2l3,2.08a4.89,4.89,0,1,1-5.57,8l-6-4.17a4.73,4.73,0,0,1-2-3.15,5.49,5.49,0,0,1,1.14-4.15,5.19,5.19,0,0,1,3.35-2.33v0l0,0a1.2,1.2,0,0,1,.92.2,1.24,1.24,0,0,1,.31,1.7,1.15,1.15,0,0,1-.79.49h0a2.9,2.9,0,0,0-1.78,1.32,3.21,3.21,0,0,0-.75,2.33,2.38,2.38,0,0,0,1,1.57l6,4.17a2.35,2.35,0,0,0,1.83.4,2.44,2.44,0,0,0,.95-4.41l-2-1.39Z" transform="translate(-51.01 -58.45)"/><path class="a4c388a9-7ca8-45a6-a46e-65b237926915" d="M328.84,263a1.18,1.18,0,0,1,.57.74,1.22,1.22,0,0,1-.86,1.5,1.15,1.15,0,0,1-.92-.12l-12.72-7.27a1.16,1.16,0,0,1-.57-.74,1.15,1.15,0,0,1,.12-.92,1.21,1.21,0,0,1,.73-.58,1.94,1.94,0,0,1,.4,0l11.18.62-8.23-4.7a1.12,1.12,0,0,1-.56-.73,1.21,1.21,0,0,1,.85-1.5,1.14,1.14,0,0,1,.92.12l12.72,7.26a1.24,1.24,0,0,1,.46,1.67,1.16,1.16,0,0,1-.74.56,1.13,1.13,0,0,1-.4.05l-11.17-.62Z" transform="translate(-51.01 -58.45)"/><path class="a4c388a9-7ca8-45a6-a46e-65b237926915" d="M323.23,239.36a1.24,1.24,0,0,1,1.62-.6,1.19,1.19,0,0,1,.63.69,1.16,1.16,0,0,1,0,.93l-2.56,5.54,4.44,2.05,2-4.43a1.18,1.18,0,0,1,.69-.64,1.22,1.22,0,0,1,1.56.72,1.18,1.18,0,0,1,0,.94l-2,4.43,4.44,2,2.55-5.55a1.22,1.22,0,0,1,1.62-.59,1.14,1.14,0,0,1,.63.68,1.18,1.18,0,0,1,0,.94l-3.07,6.65a1.19,1.19,0,0,1-.69.63,1.16,1.16,0,0,1-.93,0l-13.3-6.13a1.19,1.19,0,0,1-.63-.69,1.16,1.16,0,0,1,0-.93Z" transform="translate(-51.01 -58.45)"/><path class="b514b132-f87a-4609-938f-5a10a31dfc6a" d="M85.85,88.14a2.32,2.32,0,0,0,.71,1.73,3.21,3.21,0,0,0,2.34.72,2.81,2.81,0,0,0,2.1-.73l0,0a1.15,1.15,0,0,1,.86-.35,1.18,1.18,0,0,1,.86.36,1.16,1.16,0,0,1,.36.86,1.14,1.14,0,0,1-.36.85.07.07,0,0,1,0,0h0A5.18,5.18,0,0,1,88.9,93a5.53,5.53,0,0,1-4.07-1.43,4.73,4.73,0,0,1-1.43-3.46V80.82a4.74,4.74,0,0,1,1.43-3.46,5.53,5.53,0,0,1,4.07-1.42,5.17,5.17,0,0,1,3.82,1.42v0h0a1.23,1.23,0,0,1-.86,2.09,1.17,1.17,0,0,1-.86-.37s0,0,0,0a2.85,2.85,0,0,0-2.1-.72,3.26,3.26,0,0,0-2.34.71,2.34,2.34,0,0,0-.71,1.73Z" transform="translate(-51.01 -58.45)"/><path class="b514b132-f87a-4609-938f-5a10a31dfc6a" d="M98.13,90.59l-.36,1.5a1.23,1.23,0,0,1-.55.75,1.18,1.18,0,0,1-.93.16,1.2,1.2,0,0,1-.74-.55,1.22,1.22,0,0,1-.16-.93l3.4-14.59a1.19,1.19,0,0,1,.55-.76,1.38,1.38,0,0,1,.92-.2h.47a1.38,1.38,0,0,1,.92.2,1.19,1.19,0,0,1,.55.76l3.4,14.59a1.22,1.22,0,0,1-.16.93,1.19,1.19,0,0,1-.75.55,1.16,1.16,0,0,1-.92-.16,1.19,1.19,0,0,1-.55-.75l-.36-1.5Zm.56-2.45h3.61l-1.81-7.76Z" transform="translate(-51.01 -58.45)"/><path class="b514b132-f87a-4609-938f-5a10a31dfc6a" d="M110.26,91.81a1.22,1.22,0,0,1-2.44,0V77.16a1.16,1.16,0,0,1,.36-.86,1.18,1.18,0,0,1,.86-.36h3.66a4.89,4.89,0,0,1,1.81,9.43l2.84,5.68v0a1.21,1.21,0,0,1,.24.74,1.18,1.18,0,0,1-.36.86,1.18,1.18,0,0,1-1.71,0,1.07,1.07,0,0,1-.25-.32l-3.32-6.64h-1.68Zm0-13.43v4.88h2.44a2.44,2.44,0,1,0,0-4.88Z" transform="translate(-51.01 -58.45)"/><path class="b514b132-f87a-4609-938f-5a10a31dfc6a" d="M128.57,75.94a1.18,1.18,0,0,1,.86.36,1.16,1.16,0,0,1,.36.86,1.23,1.23,0,0,1-1.22,1.22h-2.44V91.81A1.23,1.23,0,0,1,124.91,93a1.16,1.16,0,0,1-.86-.36,1.18,1.18,0,0,1-.36-.86V78.38h-2.44a1.15,1.15,0,0,1-.86-.36,1.18,1.18,0,0,1-.36-.86,1.16,1.16,0,0,1,.36-.86,1.15,1.15,0,0,1,.86-.36Z" transform="translate(-51.01 -58.45)"/><path class="b514b132-f87a-4609-938f-5a10a31dfc6a" d="M140.78,75.94a1.18,1.18,0,0,1,.86.36,1.16,1.16,0,0,1,.36.86,1.23,1.23,0,0,1-1.22,1.22h-6.11v4.88h4.89a1.23,1.23,0,0,1,1.22,1.22,1.16,1.16,0,0,1-.36.86,1.18,1.18,0,0,1-.86.36h-4.89v4.89h6.11a1.18,1.18,0,0,1,.86.36,1.16,1.16,0,0,1,.36.86A1.23,1.23,0,0,1,140.78,93h-7.33a1.23,1.23,0,0,1-1.22-1.22V77.16a1.16,1.16,0,0,1,.36-.86,1.18,1.18,0,0,1,.86-.36Z" transform="translate(-51.01 -58.45)"/><path class="b514b132-f87a-4609-938f-5a10a31dfc6a" d="M161.53,75.94a4.87,4.87,0,0,1,4.88,4.88v7.32A4.88,4.88,0,0,1,161.53,93h-3.66a1.16,1.16,0,0,1-.86-.36,1.18,1.18,0,0,1-.36-.86V77.16a1.23,1.23,0,0,1,1.22-1.22ZM164,80.82a2.42,2.42,0,0,0-2.44-2.44h-2.44V90.59h2.44A2.44,2.44,0,0,0,164,88.14Z" transform="translate(-51.01 -58.45)"/><path class="b514b132-f87a-4609-938f-5a10a31dfc6a" d="M177.4,75.94a1.18,1.18,0,0,1,.86.36,1.16,1.16,0,0,1,.36.86,1.23,1.23,0,0,1-1.22,1.22h-6.11v4.88h4.89a1.23,1.23,0,0,1,1.22,1.22,1.16,1.16,0,0,1-.36.86,1.18,1.18,0,0,1-.86.36h-4.89v4.89h6.11a1.18,1.18,0,0,1,.86.36,1.16,1.16,0,0,1,.36.86A1.23,1.23,0,0,1,177.4,93h-7.33a1.23,1.23,0,0,1-1.22-1.22V77.16a1.16,1.16,0,0,1,.36-.86,1.18,1.18,0,0,1,.86-.36Z" transform="translate(-51.01 -58.45)"/><path class="b514b132-f87a-4609-938f-5a10a31dfc6a" d="M190.83,88.14a4.73,4.73,0,0,1-1.43,3.46A5.51,5.51,0,0,1,185.33,93a5.18,5.18,0,0,1-3.82-1.43h0l0,0a1.15,1.15,0,0,1-.37-.85,1.16,1.16,0,0,1,.36-.86,1.23,1.23,0,0,1,1.73,0v0a2.81,2.81,0,0,0,2.1.73,3.2,3.2,0,0,0,2.34-.72,2.45,2.45,0,0,0,0-3.45,2.35,2.35,0,0,0-1.73-.72,4.88,4.88,0,0,1-4.88-4.88,4.74,4.74,0,0,1,1.43-3.46,5.5,5.5,0,0,1,4.06-1.42,5.19,5.19,0,0,1,3.83,1.42l0,0h0a1.22,1.22,0,0,1,.35.87,1.18,1.18,0,0,1-.36.86,1.16,1.16,0,0,1-.86.36,1.15,1.15,0,0,1-.85-.37h0a2.85,2.85,0,0,0-2.1-.72,3.21,3.21,0,0,0-2.33.71,2.44,2.44,0,0,0,1.72,4.17,4.88,4.88,0,0,1,4.89,4.88Z" transform="translate(-51.01 -58.45)"/></g></svg>