<?xml version="1.0" encoding="UTF-8" standalone="no"?>
<!-- Created with Inkscape (http://www.inkscape.org/) -->

<svg
   width="100"
   height="100"
   viewBox="0 0 26.458333 26.458334"
   version="1.1"
   id="svg1830"
   inkscape:version="1.1 (c68e22c387, 2021-05-23)"
   sodipodi:docname="soil_synthese.svg"
   xmlns:inkscape="http://www.inkscape.org/namespaces/inkscape"
   xmlns:sodipodi="http://sodipodi.sourceforge.net/DTD/sodipodi-0.dtd"
   xmlns="http://www.w3.org/2000/svg"
   xmlns:svg="http://www.w3.org/2000/svg">
  <sodipodi:namedview
     id="namedview1832"
     pagecolor="#ffffff"
     bordercolor="#666666"
     borderopacity="1.0"
     inkscape:pageshadow="2"
     inkscape:pageopacity="0.0"
     inkscape:pagecheckerboard="0"
     inkscape:document-units="mm"
     showgrid="false"
     units="px"
     inkscape:zoom="8.1840269"
     inkscape:cx="35.801446"
     inkscape:cy="55.901576"
     inkscape:window-width="2400"
     inkscape:window-height="1271"
     inkscape:window-x="-9"
     inkscape:window-y="-9"
     inkscape:window-maximized="1"
     inkscape:current-layer="layer1" />
  <defs
     id="defs1827" />
  <g
     inkscape:label="Calque 1"
     inkscape:groupmode="layer"
     id="layer1">
    <path
       style="fill:#6c675c;fill-opacity:1;stroke-width:0.0418763"
       d="M 5.3021786,23.905394 C 4.0213748,23.689258 2.9813432,22.75429 2.6221502,21.496102 2.4980638,21.06145 2.4887018,20.220725 2.6032908,19.802479 c 0.4010606,-1.463864 1.6996128,-2.468246 3.2084876,-2.481646 0.5647932,-0.005 0.98635,0.09296 1.4927245,0.34692 L 7.6906025,17.861394 8.8402913,16.70671 9.9899801,15.552026 9.8304127,15.309586 C 9.6067411,14.969747 9.4165445,14.490752 9.3199248,14.023958 9.2535484,13.703298 9.2415146,13.519655 9.2581269,13.08132 9.2822918,12.443837 9.3731742,12.053903 9.6206962,11.525704 9.7133039,11.328085 9.7795263,11.150947 9.7678571,11.132066 9.7435059,11.092666 8.1620619,9.7434264 8.0851282,9.6964124 8.0566117,9.6789874 7.9578721,9.7136484 7.8599753,9.7754484 7.39469,10.069171 6.746742,10.205445 6.1826725,10.128213 4.6378986,9.9167044 3.6070059,8.5077394 3.9025255,7.0118394 4.0599272,6.2150828 4.6014862,5.5016602 5.3092618,5.1586759 5.7751608,4.9329036 6.0364516,4.8737845 6.5446146,4.8791676 c 0.987465,0.01046 1.8569517,0.5529834 2.3017203,1.4361765 0.3785544,0.7517068 0.3933345,1.4903003 0.046255,2.3113423 -0.02188,0.05175 0.1785963,0.244488 0.8384962,0.80612 0.4769879,0.405957 0.8798449,0.7381036 0.8952379,0.7381036 0.0154,0 0.130325,-0.07685 0.255403,-0.170783 0.300127,-0.2253886 0.899624,-0.5139016 1.3162,-0.6334326 0.288677,-0.08283 0.430577,-0.09613 1.025972,-0.09613 0.595535,0 0.73662,0.01323 1.021575,0.09576 0.38288,0.110897 0.86966,0.327948 1.130903,0.504259 l 0.182013,0.12284 1.729356,-1.729732 L 19.017101,6.533963 18.907259,6.2892004 C 18.739562,5.9155227 18.667826,5.5834645 18.667826,5.1808845 c 0,-0.4948599 0.05676,-0.7388943 0.280044,-1.2041694 0.563653,-1.174499 1.926532,-1.7429619 3.174412,-1.3240622 0.420187,0.1410521 0.644696,0.2747858 0.966204,0.5755406 1.355331,1.267846 1.034092,3.4852868 -0.619875,4.2788619 -0.458855,0.220159 -0.704292,0.276901 -1.197712,0.276901 -0.402581,0 -0.734638,-0.07173 -1.108316,-0.239431 l -0.244763,-0.109843 -1.729732,1.729355 -1.729733,1.7293576 0.122841,0.182014 c 0.180823,0.267928 0.403902,0.772036 0.504093,1.139133 0.06988,0.25606 0.0888,0.451613 0.09196,0.950531 0.0022,0.345479 -0.0092,0.686722 -0.0252,0.758317 l -0.02917,0.130173 1.65455,0.635556 1.654552,0.635555 0.217184,-0.196319 c 0.441411,-0.399001 1.055154,-0.580526 1.620927,-0.479417 1.319668,0.235838 2.033361,1.585655 1.472308,2.784597 -0.233015,0.497942 -0.718117,0.909359 -1.238229,1.050146 -0.357557,0.09679 -0.912828,0.07019 -1.250064,-0.05988 -0.681532,-0.262857 -1.180579,-0.925569 -1.235385,-1.640535 l -0.02118,-0.276309 -1.596599,-0.612071 c -0.87813,-0.336639 -1.625989,-0.622805 -1.66191,-0.635923 -0.04563,-0.01666 -0.108332,0.04254 -0.208072,0.196467 -0.193544,0.298688 -0.663278,0.786563 -0.942419,0.978816 -0.125914,0.08672 -0.228108,0.178095 -0.227098,0.203057 9.72e-4,0.02496 0.318077,0.789737 0.704594,1.699502 l 0.702758,1.654117 0.310909,0.02674 c 0.751716,0.06465 1.332635,0.483243 1.661247,1.197048 0.148674,0.322945 0.1813,0.896174 0.07365,1.293885 -0.253455,0.936335 -1.228452,1.559327 -2.204054,1.408318 -0.837858,-0.129688 -1.493557,-0.80272 -1.633609,-1.676792 -0.08792,-0.54872 0.08752,-1.138774 0.466649,-1.56949 l 0.166236,-0.188854 -0.706812,-1.669224 -0.706812,-1.669225 -0.224413,0.02094 c -0.123428,0.01151 -0.497658,0.01989 -0.831622,0.01861 -0.498421,-0.0019 -0.667091,-0.01925 -0.941458,-0.09676 -0.36687,-0.103636 -0.922999,-0.355304 -1.152382,-0.521487 l -0.146567,-0.106184 -1.1579433,1.154625 -1.157944,1.154627 0.1427477,0.259697 c 0.9126974,1.660448 0.2388399,3.761046 -1.472194,4.589235 -0.5748586,0.278246 -1.3420774,0.391729 -1.9522458,0.288763 z m 1.2121659,-1.341469 c 1.2846473,-0.438939 1.7761104,-2.074433 0.9525734,-3.169978 -1.0929824,-1.453989 -3.4114642,-0.857298 -3.674241,0.945612 -0.1506967,1.03393 0.5225485,2.029304 1.5489411,2.290066 0.3145645,0.07992 0.8312686,0.05097 1.1727265,-0.0657 z m 10.7128905,0.04823 c 0.247384,-0.112349 0.36645,-0.300589 0.38545,-0.609386 0.01306,-0.212266 -2.1e-4,-0.276037 -0.08232,-0.395757 -0.146105,-0.213011 -0.297549,-0.306333 -0.533987,-0.329052 -0.264801,-0.02545 -0.421302,0.03719 -0.607305,0.243081 -0.321292,0.355632 -0.200956,0.886101 0.247751,1.092148 0.212504,0.09758 0.373887,0.0973 0.590413,-0.0011 z m 5.08449,-5.399799 c 0.283412,-0.150606 0.430093,-0.498842 0.33866,-0.804018 -0.186641,-0.622951 -0.987903,-0.716098 -1.305102,-0.151718 -0.113442,0.201844 -0.0984,0.5567 0.03101,0.731408 0.219533,0.296381 0.619392,0.392272 0.935432,0.224328 z m -8.250301,-1.381664 c 0.810416,-0.262027 1.511913,-0.969702 1.770622,-1.786219 0.07533,-0.237758 0.09288,-0.39202 0.09288,-0.816589 0,-0.42457 -0.01754,-0.578831 -0.09288,-0.816589 -0.262794,-0.829409 -0.962151,-1.528766 -1.79156,-1.79156 -0.237758,-0.07533 -0.392019,-0.09288 -0.816589,-0.09288 -0.424569,0 -0.57883,0.01754 -0.816589,0.09288 -0.816989,0.258858 -1.52675,0.962769 -1.78534,1.770621 -0.110575,0.345446 -0.149161,0.996131 -0.07993,1.347995 0.202174,1.027627 0.973662,1.857948 1.978414,2.129283 0.408017,0.110186 1.140223,0.09263 1.540979,-0.03694 z M 7.0784334,8.7583964 C 7.7483137,8.4623194 8.0627242,7.6306604 7.759888,6.9558528 7.6373579,6.6828192 7.3901755,6.416546 7.1343189,6.2819701 6.4426708,5.9181749 5.5933207,6.2137928 5.2359539,6.9426998 5.1392685,7.1399054 5.1214522,7.2294873 5.1227778,7.5117604 c 0.00192,0.408474 0.09339,0.6369 0.3760525,0.939089 0.4212499,0.45035 1.0010841,0.563244 1.5796031,0.307547 z M 21.914927,6.3922647 c 0.256569,-0.1317253 0.540177,-0.4304787 0.659549,-0.6947703 0.06548,-0.1449828 0.08897,-0.2829437 0.09049,-0.5315668 0.0018,-0.2968876 -0.0138,-0.3679948 -0.134905,-0.6140938 -0.156862,-0.3187762 -0.34621,-0.502655 -0.67772,-0.6581458 -0.306703,-0.1438556 -0.799544,-0.1512081 -1.098053,-0.016381 -0.48317,0.2182323 -0.789499,0.6621443 -0.821171,1.1899884 -0.03879,0.646555 0.297266,1.1677439 0.902339,1.3994154 0.255678,0.097895 0.819534,0.059009 1.07947,-0.074446 z"
       id="path834" />
  </g>
</svg>
