<?xml version="1.0" encoding="utf-8"?>
<!-- Generator: Adobe Illustrator 23.0.1, SVG Export Plug-In . SVG Version: 6.00 Build 0)  -->
<svg version="1.1" id="Calque_1" xmlns="http://www.w3.org/2000/svg" xmlns:xlink="http://www.w3.org/1999/xlink" x="0px" y="0px"
	 viewBox="0 0 100 100" style="enable-background:new 0 0 100 100;" xml:space="preserve">
<style type="text/css">
	.st0{fill:none;}
	.st1{fill:#FFFFFF;}
	.st2{opacity:0.81;fill:#CEC7BD;enable-background:new    ;}
	.st3{display:none;}
	.st4{display:inline;}
	.st5{fill:#F28E67;}
	.st6{fill:#EFB556;}
	.st7{fill:#BFBF88;}
	.st8{opacity:0.34;fill:#407777;enable-background:new    ;}
	.st9{fill:#407777;}
	.st10{opacity:0.6;fill:url(#SVGID_1_);enable-background:new    ;}
	.st11{fill:#BEBE88;}
	.st12{fill:#6C675C;}
	.st13{display:inline;opacity:0.81;fill:#CEC7BD;enable-background:new    ;}
	.st14{display:inline;fill:#4B555F;}
	.st15{display:inline;opacity:0.3;fill:url(#SVGID_2_);enable-background:new    ;}
</style>
<pattern  y="100" width="72" height="72" patternUnits="userSpaceOnUse" id="Plage_de_gravier_USGS_22" viewBox="0.4 -72 72 72" style="overflow:visible;">
	<g>
		<rect x="0.4" y="-72" class="st0" width="72" height="72"/>
		<g>
			<rect x="0.4" y="-72" class="st0" width="72" height="72"/>
			<g>
				<path class="st1" d="M21.3-3.1c-0.1,0-0.2,0-0.2,0.1C21-2.9,21-2.8,21-2.8s0,0.2,0.1,0.2c0.1,0.1,0.4,0.1,0.5,0s0.1-0.2,0.1-0.2
					s0-0.2-0.1-0.2C21.5-3.1,21.4-3.1,21.3-3.1z"/>
				<path class="st1" d="M20.3-8.3c-0.1,0-0.2,0-0.2,0.1C20-8.2,20-8.1,20-8s0,0.2,0.1,0.2c0.1,0.1,0.3,0.1,0.5,0
					C20.7-7.9,20.7-8,20.7-8c0-0.1,0-0.2-0.1-0.2C20.5-8.3,20.5-8.3,20.3-8.3z"/>
				<path class="st1" d="M20.6-10.6c-0.1,0-0.2,0-0.2,0.1c-0.1,0.1-0.1,0.2-0.1,0.2c0,0.1,0,0.2,0.1,0.2c0.1,0.1,0.4,0.1,0.5,0
					s0.1-0.2,0.1-0.2c0-0.1,0-0.2-0.1-0.2C20.8-10.6,20.7-10.6,20.6-10.6z"/>
				<path class="st1" d="M15.6-10.6c-0.1,0-0.2,0-0.2,0.1c-0.1,0.1-0.1,0.2-0.1,0.2c0,0.1,0,0.2,0.1,0.2c0.1,0.1,0.4,0.1,0.5,0
					c0.1-0.1,0.1-0.2,0.1-0.2c0-0.1,0-0.2-0.1-0.2C15.8-10.6,15.7-10.6,15.6-10.6z"/>
				<path class="st1" d="M23.1-20.1c-0.1,0-0.2,0-0.2,0.1c-0.1,0.1-0.1,0.2-0.1,0.2c0,0.1,0,0.2,0.1,0.2c0.1,0.1,0.4,0.1,0.5,0
					s0.1-0.2,0.1-0.2c0-0.1,0-0.2-0.1-0.2C23.3-20.1,23.2-20.1,23.1-20.1z"/>
				<path class="st1" d="M15.6-23.1c-0.1,0-0.2,0-0.2,0.1c-0.1,0.1-0.1,0.2-0.1,0.2c0,0.1,0,0.2,0.1,0.2c0.1,0.1,0.3,0.1,0.5,0
					c0.1-0.1,0.1-0.2,0.1-0.2c0-0.1,0-0.2-0.1-0.2C15.8-23.1,15.7-23.1,15.6-23.1z"/>
				<path class="st1" d="M14.3-24.1c-0.1,0-0.2,0-0.2,0.1C14-23.9,14-23.8,14-23.8c0,0.1,0,0.2,0.1,0.2c0.1,0.1,0.4,0.1,0.5,0
					s0.1-0.2,0.1-0.2c0-0.1,0-0.2-0.1-0.2C14.5-24.1,14.5-24.1,14.3-24.1z"/>
				<path class="st1" d="M24.3-27.1c-0.1,0-0.2,0-0.2,0.1C24-26.9,24-26.8,24-26.8c0,0.1,0,0.2,0.1,0.2c0.1,0.1,0.4,0.1,0.5,0
					s0.1-0.2,0.1-0.2c0-0.1,0-0.2-0.1-0.2C24.5-27.1,24.4-27.1,24.3-27.1z"/>
				<path class="st1" d="M31.1-25.8c-0.1,0-0.2,0-0.2,0.1c-0.1,0.1-0.1,0.2-0.1,0.2c0,0.1,0,0.2,0.1,0.2c0.1,0.1,0.4,0.1,0.5,0
					s0.1-0.2,0.1-0.2c0-0.1,0-0.2-0.1-0.2C31.3-25.8,31.2-25.8,31.1-25.8z"/>
				<path class="st1" d="M31.6-23.3c-0.1,0-0.2,0-0.2,0.1c-0.1,0.1-0.1,0.2-0.1,0.2c0,0.1,0,0.2,0.1,0.2c0.1,0.1,0.3,0.1,0.5,0
					C32-22.9,32-23,32-23c0-0.1,0-0.2-0.1-0.2C31.8-23.3,31.7-23.3,31.6-23.3z"/>
				<path class="st1" d="M29.6-18.3c-0.1,0-0.2,0-0.2,0.1c-0.1,0.1-0.1,0.2-0.1,0.2c0,0.1,0,0.2,0.1,0.2c0.1,0.1,0.4,0.1,0.5,0
					S30-18,30-18c0-0.1,0-0.2-0.1-0.2C29.8-18.3,29.7-18.3,29.6-18.3z"/>
				<path class="st1" d="M34.3-19.8c-0.1,0-0.2,0-0.2,0.1c-0.1,0-0.1,0.1-0.1,0.2s0,0.2,0.1,0.2c0.1,0.1,0.4,0.1,0.5,0
					s0.1-0.2,0.1-0.2c0-0.1,0-0.2-0.1-0.2C34.5-19.8,34.4-19.8,34.3-19.8z"/>
				<path class="st1" d="M31.8-14.8c-0.1,0-0.2,0-0.2,0.1c-0.1,0.1-0.1,0.2-0.1,0.2c0,0.1,0,0.2,0.1,0.2c0.1,0.1,0.4,0.1,0.5,0
					c0.1-0.1,0.1-0.2,0.1-0.2c0-0.1,0-0.2-0.1-0.2C32-14.8,31.9-14.8,31.8-14.8z"/>
				<path class="st1" d="M32.1-11.8c-0.1,0-0.2,0-0.3,0.1c-0.1,0.1-0.1,0.2-0.1,0.2c0,0.1,0,0.2,0.1,0.2c0.1,0.1,0.4,0.1,0.5,0
					s0.1-0.2,0.1-0.2c0-0.1,0-0.2-0.1-0.2C32.3-11.8,32.2-11.8,32.1-11.8z"/>
				<path class="st1" d="M32.6-7.1c-0.1,0-0.2,0-0.2,0.1c-0.1,0.1-0.1,0.2-0.1,0.2s0,0.2,0.1,0.2c0.1,0.1,0.4,0.1,0.5,0
					S33-6.8,33-6.8S33-7,32.9-7C32.8-7.1,32.7-7.1,32.6-7.1z"/>
				<path class="st1" d="M32.3-3.1c-0.1,0-0.2,0-0.2,0.1C32-2.9,32-2.8,32-2.8c0,0.1,0,0.2,0.1,0.2c0.1,0.1,0.3,0.1,0.5,0
					c0.1-0.1,0.1-0.2,0.1-0.2c0-0.1,0-0.2-0.1-0.2C32.5-3.1,32.4-3.1,32.3-3.1z"/>
				<path class="st1" d="M34.3-1.3c-0.1,0-0.2,0-0.2,0.1C34-1.2,34-1.1,34-1s0,0.2,0.1,0.2c0.1,0.1,0.4,0.1,0.5,0S34.7-1,34.7-1
					c0-0.1,0-0.2-0.1-0.2C34.5-1.3,34.4-1.3,34.3-1.3z"/>
				<path class="st1" d="M41.8-7.1c-0.1,0-0.2,0-0.2,0.1c-0.1,0.1-0.1,0.2-0.1,0.2s0,0.2,0.1,0.2c0.2,0.1,0.4,0.1,0.5,0
					s0.1-0.2,0.1-0.2s0-0.2-0.1-0.2C42-7.1,41.9-7.1,41.8-7.1z"/>
				<path class="st1" d="M45.8-6.8c-0.1,0-0.2,0-0.2,0.1c-0.1,0.1-0.1,0.2-0.1,0.2s0,0.2,0.1,0.2c0.1,0.1,0.4,0.1,0.5,0
					s0.1-0.2,0.1-0.2s0-0.2-0.1-0.2C46-6.8,45.9-6.8,45.8-6.8z"/>
				<path class="st1" d="M42.8-13.6c-0.1,0-0.2,0-0.2,0.1c-0.1,0.1-0.1,0.2-0.1,0.2c0,0.1,0,0.2,0.1,0.2c0.1,0.1,0.3,0.1,0.5,0
					c0.1-0.1,0.1-0.2,0.1-0.2c0-0.1,0-0.2-0.1-0.2C43-13.6,42.9-13.6,42.8-13.6z"/>
				<path class="st1" d="M47.3-14.3c-0.1,0-0.2,0-0.2,0.1C47-14.2,47-14.1,47-14s0,0.2,0.1,0.2c0.1,0.1,0.3,0.1,0.5,0
					c0.1-0.1,0.1-0.2,0.1-0.2c0-0.1,0-0.2-0.1-0.2C47.5-14.3,47.4-14.3,47.3-14.3z"/>
				<path class="st1" d="M47.3-16.3c-0.1,0-0.2,0-0.2,0.1C47-16.2,47-16.1,47-16s0,0.2,0.1,0.2c0.1,0.1,0.4,0.1,0.5,0
					s0.1-0.2,0.1-0.2c0-0.1,0-0.2-0.1-0.2C47.5-16.3,47.4-16.3,47.3-16.3z"/>
				<path class="st1" d="M39.3-20.8c-0.1,0-0.2,0-0.2,0.1c-0.1,0-0.1,0.1-0.1,0.2s0,0.2,0.1,0.2c0.1,0.1,0.4,0.1,0.5,0
					s0.1-0.2,0.1-0.2c0-0.1,0-0.2-0.1-0.2C39.5-20.8,39.4-20.8,39.3-20.8z"/>
				<path class="st1" d="M50.6-13.6c-0.1,0-0.2,0-0.2,0.1c-0.1,0.1-0.1,0.2-0.1,0.2c0,0.1,0,0.2,0.1,0.2c0.1,0.1,0.4,0.1,0.5,0
					s0.1-0.2,0.1-0.2c0-0.1,0-0.2-0.1-0.2C50.8-13.6,50.7-13.6,50.6-13.6z"/>
				<path class="st1" d="M52.6-12.1c-0.1,0-0.2,0-0.2,0.1c-0.1,0.1-0.1,0.2-0.1,0.2c0,0.1,0,0.2,0.1,0.2c0.1,0.1,0.3,0.1,0.5,0
					c0.1-0.1,0.1-0.2,0.1-0.2c0-0.1,0-0.2-0.1-0.2C52.8-12.1,52.7-12.1,52.6-12.1z"/>
				<path class="st1" d="M55.1-11.1c-0.1,0-0.2,0-0.2,0.1c-0.1,0.1-0.1,0.2-0.1,0.2c0,0.1,0,0.2,0.1,0.2c0.1,0.1,0.3,0.1,0.5,0
					c0.1-0.1,0.1-0.2,0.1-0.2c0-0.1,0-0.2-0.1-0.2C55.3-11.1,55.2-11.1,55.1-11.1z"/>
				<path class="st1" d="M56.8-0.8c-0.1,0-0.2,0-0.2,0.1c-0.1,0.1-0.1,0.2-0.1,0.2s0,0.2,0.1,0.2c0.1,0.1,0.4,0.1,0.5,0
					s0.1-0.2,0.1-0.2s0-0.2-0.1-0.2C57-0.8,56.9-0.8,56.8-0.8z"/>
				<path class="st1" d="M68.3-3.1c-0.1,0-0.2,0-0.2,0.1C68-2.9,68-2.8,68-2.8c0,0.1,0,0.2,0.1,0.2c0.1,0.1,0.3,0.1,0.5,0
					c0.1-0.1,0.1-0.2,0.1-0.2c0-0.1,0-0.2-0.1-0.2C68.5-3.1,68.5-3.1,68.3-3.1z"/>
				<path class="st1" d="M68.3-10.3c-0.1,0-0.2,0-0.2,0.1C68-10.2,68-10.1,68-10s0,0.2,0.1,0.2c0.1,0.1,0.4,0.1,0.5,0
					s0.1-0.2,0.1-0.2c0-0.1,0-0.2-0.1-0.2C68.5-10.3,68.4-10.3,68.3-10.3z"/>
				<path class="st1" d="M64.6-12.3c-0.1,0-0.2,0-0.2,0.1c-0.1,0.1-0.1,0.2-0.1,0.2c0,0.1,0,0.2,0.1,0.2c0.1,0.1,0.4,0.1,0.5,0
					S65-12,65-12c0-0.1,0-0.2-0.1-0.2C64.8-12.3,64.7-12.3,64.6-12.3z"/>
				<path class="st1" d="M65.6-15.8c-0.1,0-0.2,0-0.2,0.1c-0.1,0.1-0.1,0.2-0.1,0.2c0,0.1,0,0.2,0.1,0.2c0.1,0.1,0.4,0.1,0.5,0
					s0.1-0.2,0.1-0.2c0-0.1,0-0.2-0.1-0.2C65.8-15.8,65.7-15.8,65.6-15.8z"/>
				<path class="st1" d="M64.3-19.8c-0.1,0-0.2,0-0.2,0.1c-0.1,0-0.1,0.1-0.1,0.2s0,0.2,0.1,0.2c0.1,0.1,0.4,0.1,0.5,0
					s0.1-0.2,0.1-0.2c0-0.1,0-0.2-0.1-0.2C64.5-19.8,64.4-19.8,64.3-19.8z"/>
				<path class="st1" d="M66.6-19.8c-0.1,0-0.2,0-0.2,0.1c-0.1,0.1-0.1,0.2-0.1,0.2c0,0.1,0,0.2,0.1,0.2c0.1,0.1,0.3,0.1,0.5,0
					c0.1-0.1,0.1-0.2,0.1-0.2c0-0.1,0-0.2-0.1-0.2C66.8-19.8,66.7-19.8,66.6-19.8z"/>
				<path class="st1" d="M68.3-21.3c-0.1,0-0.2,0-0.2,0.1C68-21.2,68-21.1,68-21s0,0.2,0.1,0.2c0.1,0.1,0.4,0.1,0.5,0
					s0.1-0.2,0.1-0.2c0-0.1,0-0.2-0.1-0.2C68.5-21.3,68.4-21.3,68.3-21.3z"/>
				<path class="st1" d="M7.3-52.3c-0.1,0-0.2,0-0.2,0.1C7-52.2,7-52.1,7-52s0,0.2,0.1,0.2c0.1,0.1,0.4,0.1,0.5,0S7.7-52,7.7-52
					s0-0.2-0.1-0.2C7.5-52.3,7.4-52.3,7.3-52.3z"/>
				<path class="st1" d="M7.6-54.6c-0.1,0-0.2,0-0.2,0.1c-0.1,0.1-0.1,0.2-0.1,0.2s0,0.2,0.1,0.2c0.1,0.1,0.4,0.1,0.5,0
					c0,0,0.1-0.1,0.1-0.1s0-0.2-0.1-0.2C7.8-54.6,7.7-54.6,7.6-54.6z"/>
				<path class="st1" d="M2.6-54.6c-0.1,0-0.2,0-0.2,0.1c-0.1,0.1-0.1,0.2-0.1,0.2s0,0.2,0.1,0.2c0.1,0.1,0.4,0.1,0.5,0
					c0,0,0.1-0.1,0.1-0.1s0-0.2-0.1-0.2C2.8-54.6,2.7-54.6,2.6-54.6z"/>
				<path class="st1" d="M10.1-64.1c-0.1,0-0.2,0-0.2,0.1c-0.1,0.1-0.1,0.2-0.1,0.2c0,0.1,0,0.2,0.1,0.2c0.1,0.1,0.4,0.1,0.5,0
					c0.1-0.1,0.1-0.2,0.1-0.2c0-0.1,0-0.2-0.1-0.2C10.3-64.1,10.2-64.1,10.1-64.1z"/>
				<path class="st1" d="M1.3-68.1c-0.1,0-0.2,0-0.2,0.1C1-67.9,1-67.8,1-67.7c0,0.1,0,0.2,0.1,0.2c0.1,0.1,0.4,0.1,0.5,0
					s0.1-0.2,0.1-0.2s0-0.2-0.1-0.2C1.5-68.1,1.4-68.1,1.3-68.1z"/>
				<path class="st1" d="M11.3-71.1c-0.1,0-0.2,0-0.2,0.1C11-70.9,11-70.8,11-70.7c0,0.1,0,0.2,0.1,0.2c0.1,0.1,0.4,0.1,0.5,0
					s0.1-0.2,0.1-0.2c0-0.1,0-0.2-0.1-0.2C11.5-71.1,11.4-71.1,11.3-71.1z"/>
				<path class="st1" d="M18.6-67.3c-0.1,0-0.2,0-0.2,0.1c-0.1,0.1-0.1,0.2-0.1,0.2s0,0.2,0.1,0.2c0.1,0.1,0.4,0.1,0.5,0
					c0,0,0.1-0.1,0.1-0.2s0-0.2-0.1-0.2C18.8-67.3,18.7-67.3,18.6-67.3z"/>
				<path class="st1" d="M16.6-62.3c-0.1,0-0.2,0-0.2,0.1c-0.1,0.1-0.1,0.2-0.1,0.2c0,0.1,0,0.2,0.1,0.2c0.1,0.1,0.4,0.1,0.5,0
					C17-61.9,17-62,17-62c0-0.1,0-0.2-0.1-0.2C16.8-62.3,16.7-62.3,16.6-62.3z"/>
				<path class="st1" d="M19.8-57.8c-0.1,0-0.2,0-0.2,0.1c-0.1,0.1-0.1,0.2-0.1,0.2c0,0.1,0,0.2,0.1,0.2c0.1,0.1,0.4,0.1,0.5,0
					c0.1-0.1,0.1-0.2,0.1-0.2c0-0.1,0-0.2-0.1-0.2C20-57.8,19.9-57.8,19.8-57.8z"/>
				<path class="st1" d="M19.1-55.8c-0.1,0-0.2,0-0.2,0.1c-0.1,0.1-0.1,0.2-0.1,0.2c0,0.1,0,0.2,0.1,0.2c0.1,0.1,0.3,0.1,0.5,0
					c0.1-0.1,0.1-0.2,0.1-0.2c0-0.1,0-0.2-0.1-0.2C19.3-55.8,19.2-55.8,19.1-55.8z"/>
				<path class="st1" d="M16.6-54.8c-0.1,0-0.2,0-0.2,0.1c-0.1,0.1-0.1,0.2-0.1,0.2c0,0.1,0,0.2,0.1,0.2c0.1,0.1,0.3,0.1,0.5,0
					c0.1-0.1,0.1-0.2,0.1-0.2c0-0.1,0-0.2-0.1-0.2C16.8-54.8,16.7-54.8,16.6-54.8z"/>
				<path class="st1" d="M19.6-51.1c-0.1,0-0.2,0-0.2,0.1c-0.1,0.1-0.1,0.2-0.1,0.2c0,0.1,0,0.2,0.1,0.2c0.1,0.1,0.4,0.1,0.5,0
					s0.1-0.2,0.1-0.2c0-0.1,0-0.2-0.1-0.2C19.8-51.1,19.7-51.1,19.6-51.1z"/>
				<path class="st1" d="M19.3-47.1c-0.1,0-0.2,0-0.2,0.1C19-46.9,19-46.8,19-46.8s0,0.2,0.1,0.2c0.1,0.1,0.4,0.1,0.5,0
					s0.1-0.2,0.1-0.2s0-0.2-0.1-0.2C19.5-47.1,19.4-47.1,19.3-47.1z"/>
				<path class="st1" d="M16.6-47.3c-0.1,0-0.2,0-0.2,0.1c-0.1,0.1-0.1,0.2-0.1,0.2s0,0.2,0.1,0.2c0.1,0.1,0.4,0.1,0.5,0
					C17-46.9,17-47,17-47s0-0.2-0.1-0.2C16.8-47.3,16.7-47.3,16.6-47.3z"/>
				<path class="st1" d="M32.8-50.8c-0.1,0-0.2,0-0.2,0.1c-0.1,0.1-0.1,0.2-0.1,0.2c0,0.1,0,0.2,0.1,0.2c0.1,0.1,0.3,0.1,0.5,0
					c0.1-0.1,0.1-0.2,0.1-0.2c0-0.1,0-0.2-0.1-0.2C33-50.8,32.9-50.8,32.8-50.8z"/>
				<path class="st1" d="M27.6-54.3c-0.1,0-0.2,0-0.2,0.1c-0.1,0.1-0.1,0.2-0.1,0.2s0,0.2,0.1,0.2c0.1,0.1,0.4,0.1,0.5,0
					C28-53.9,28-54,28-54s0-0.2-0.1-0.2C27.8-54.3,27.7-54.3,27.6-54.3z"/>
				<path class="st1" d="M32.3-55.8c-0.1,0-0.2,0-0.2,0.1c-0.1,0-0.1,0.1-0.1,0.2s0,0.2,0.1,0.2c0.1,0.1,0.4,0.1,0.5,0
					s0.1-0.2,0.1-0.2s0-0.2-0.1-0.2C32.5-55.8,32.4-55.8,32.3-55.8z"/>
				<path class="st1" d="M32.3-57.6c-0.1,0-0.2,0-0.2,0.1C32-57.4,32-57.3,32-57.2c0,0.1,0,0.2,0.1,0.2c0.1,0.1,0.4,0.1,0.5,0
					s0.1-0.2,0.1-0.2c0-0.1,0-0.2-0.1-0.2C32.5-57.6,32.4-57.6,32.3-57.6z"/>
				<path class="st1" d="M34.3-58.3c-0.1,0-0.2,0-0.2,0.1C34-58.2,34-58.1,34-58s0,0.2,0.1,0.2c0.1,0.1,0.4,0.1,0.5,0
					c0.1-0.1,0.1-0.2,0.1-0.2c0-0.1,0-0.2-0.1-0.2C34.5-58.3,34.4-58.3,34.3-58.3z"/>
				<path class="st1" d="M26.3-64.8c-0.1,0-0.2,0-0.2,0.1c-0.1,0-0.1,0.1-0.1,0.2s0,0.2,0.1,0.2c0.1,0.1,0.4,0.1,0.5,0
					c0.1-0.1,0.1-0.2,0.1-0.2s0-0.2-0.1-0.2C26.5-64.8,26.4-64.8,26.3-64.8z"/>
				<path class="st1" d="M36.3-56.3c-0.1,0-0.2,0-0.2,0.1C36-56.2,36-56.1,36-56s0,0.2,0.1,0.2c0.2,0.1,0.4,0.1,0.5,0
					s0.1-0.2,0.1-0.2s0-0.2-0.1-0.2C36.5-56.3,36.4-56.3,36.3-56.3z"/>
				<path class="st1" d="M39.6-56.1c-0.1,0-0.2,0-0.2,0.1c-0.1,0.1-0.1,0.2-0.1,0.2s0,0.2,0.1,0.2c0.1,0.1,0.4,0.1,0.5,0
					s0.1-0.2,0.1-0.2s0-0.2-0.1-0.2C39.8-56.1,39.7-56.1,39.6-56.1z"/>
				<path class="st1" d="M42.1-50.8c-0.1,0-0.2,0-0.2,0.1c-0.1,0.1-0.1,0.2-0.1,0.2s0,0.2,0.1,0.2c0.1,0.1,0.4,0.1,0.5,0
					c0.1-0.1,0.1-0.2,0.1-0.2s0-0.2-0.1-0.2C42.3-50.8,42.2-50.8,42.1-50.8z"/>
				<path class="st1" d="M43.8-44.8c-0.1,0-0.2,0-0.2,0.1c-0.1,0.1-0.1,0.2-0.1,0.2s0,0.2,0.1,0.2c0.1,0.1,0.4,0.1,0.5,0
					c0.1-0.1,0.1-0.2,0.1-0.2s0-0.2-0.1-0.2C44-44.8,43.9-44.8,43.8-44.8z"/>
				<path class="st1" d="M51.3-50.6c-0.1,0-0.2,0-0.2,0.1C51-50.4,51-50.3,51-50.2s0,0.2,0.1,0.2c0.1,0.1,0.4,0.1,0.5,0
					s0.1-0.2,0.1-0.2s0-0.2-0.1-0.2C51.5-50.6,51.4-50.6,51.3-50.6z"/>
				<path class="st1" d="M52.3-46.6c-0.1,0-0.2,0-0.2,0.1C52-46.4,52-46.3,52-46.2c0,0.1,0,0.2,0.1,0.2c0.1,0.1,0.3,0.1,0.5,0
					c0.1-0.1,0.1-0.2,0.1-0.2c0-0.1,0-0.2-0.1-0.2C52.5-46.6,52.4-46.6,52.3-46.6z"/>
				<path class="st1" d="M55.3-47.1c-0.1,0-0.2,0-0.2,0.1C55-46.9,55-46.8,55-46.8s0,0.2,0.1,0.2c0.1,0.1,0.4,0.1,0.5,0
					s0.1-0.2,0.1-0.2c0-0.1,0-0.2-0.1-0.2C55.5-47.1,55.4-47.1,55.3-47.1z"/>
				<path class="st1" d="M55.3-54.3c-0.1,0-0.2,0-0.2,0.1C55-54.2,55-54.1,55-54s0,0.2,0.1,0.2c0.1,0.1,0.3,0.1,0.5,0
					c0.1-0.1,0.1-0.2,0.1-0.2c0-0.1,0-0.2-0.1-0.2C55.5-54.3,55.4-54.3,55.3-54.3z"/>
				<path class="st1" d="M51.6-56.3c-0.1,0-0.2,0-0.2,0.1c-0.1,0.1-0.1,0.2-0.1,0.2s0,0.2,0.1,0.2c0.1,0.1,0.4,0.1,0.5,0
					S52-56,52-56s0-0.2-0.1-0.2C51.8-56.3,51.7-56.3,51.6-56.3z"/>
				<path class="st1" d="M51.3-63.8c-0.1,0-0.2,0-0.2,0.1c-0.1,0-0.1,0.1-0.1,0.2s0,0.2,0.1,0.2c0.2,0.2,0.4,0.1,0.5,0
					c0.1-0.1,0.1-0.2,0.1-0.2c0-0.1,0-0.2-0.1-0.2C51.5-63.8,51.5-63.8,51.3-63.8z"/>
				<path class="st1" d="M53.6-63.8c-0.1,0-0.2,0-0.2,0.1c-0.1,0.1-0.1,0.2-0.1,0.2c0,0.1,0,0.2,0.1,0.2c0.1,0.1,0.4,0.1,0.5,0
					c0,0,0.1-0.1,0.1-0.2s0-0.2-0.1-0.2C53.8-63.8,53.7-63.8,53.6-63.8z"/>
				<path class="st1" d="M56.3-63.1c-0.1,0-0.2,0-0.2,0.1C56-62.9,56-62.8,56-62.8c0,0.1,0,0.2,0.1,0.2c0.1,0.1,0.4,0.1,0.5,0
					c0.1-0.1,0.1-0.2,0.1-0.2c0-0.1,0-0.2-0.1-0.2C56.5-63.1,56.4-63.1,56.3-63.1z"/>
				<path class="st1" d="M58.6-61.6c-0.1,0-0.2,0-0.2,0.1c-0.1,0.1-0.1,0.2-0.1,0.2c0,0.1,0,0.2,0.1,0.2c0.1,0.1,0.4,0.1,0.5,0
					c0.1-0.1,0.1-0.2,0.1-0.2c0-0.1,0-0.2-0.1-0.2C58.8-61.6,58.7-61.6,58.6-61.6z"/>
				<path class="st1" d="M21.3-27.1c-0.1,0-0.2,0-0.2,0.1C21-26.9,21-26.8,21-26.8c0,0.1,0,0.2,0.1,0.2c0.1,0.1,0.4,0.1,0.5,0
					s0.1-0.2,0.1-0.2c0-0.1,0-0.2-0.1-0.2C21.5-27.1,21.4-27.1,21.3-27.1z"/>
				<path class="st1" d="M23.1-24.1c-0.1,0-0.2,0-0.2,0.1c-0.1,0.1-0.1,0.2-0.1,0.2c0,0.1,0,0.2,0.1,0.2c0.1,0.1,0.4,0.1,0.5,0
					s0.1-0.2,0.1-0.2c0-0.1,0-0.2-0.1-0.2C23.3-24.1,23.2-24.1,23.1-24.1z"/>
				<path class="st1" d="M39.3-24.8c-0.1,0-0.2,0-0.2,0.1c-0.1,0-0.1,0.1-0.1,0.2s0,0.2,0.1,0.2c0.1,0.1,0.4,0.1,0.5,0
					s0.1-0.2,0.1-0.2c0-0.1,0-0.2-0.1-0.2C39.5-24.8,39.4-24.8,39.3-24.8z"/>
				<path class="st1" d="M46.6-29.1c-0.1,0-0.2,0-0.2,0.1c-0.1,0.1-0.1,0.2-0.1,0.2c0,0.1,0,0.2,0.1,0.2c0.2,0.2,0.4,0.1,0.5,0
					s0.1-0.2,0.1-0.2c0-0.1,0-0.2-0.1-0.2C46.8-29.1,46.7-29.1,46.6-29.1z"/>
				<path class="st1" d="M55.6-28.1c-0.1,0-0.2,0-0.2,0.1c-0.1,0.1-0.1,0.2-0.1,0.2c0,0.1,0,0.2,0.1,0.2c0.1,0.1,0.4,0.1,0.5,0
					s0.1-0.2,0.1-0.2c0-0.1,0-0.2-0.1-0.2C55.8-28.1,55.7-28.1,55.6-28.1z"/>
				<path class="st1" d="M51.6-25.3c-0.1,0-0.2,0-0.2,0.1c-0.1,0.1-0.1,0.2-0.1,0.2c0,0.1,0,0.2,0.1,0.2c0.1,0.1,0.4,0.1,0.5,0
					S52-25,52-25c0-0.1,0-0.2-0.1-0.2C51.8-25.3,51.7-25.3,51.6-25.3z"/>
				<path class="st1" d="M52.3-29.6c-0.1,0-0.2,0-0.2,0.1C52-29.4,52-29.3,52-29.2s0,0.2,0.1,0.2c0.1,0.1,0.4,0.1,0.5,0
					s0.1-0.2,0.1-0.2c0-0.1,0-0.2-0.1-0.2C52.5-29.6,52.4-29.6,52.3-29.6z"/>
				<path class="st1" d="M62.8-35.6c-0.1,0-0.2,0-0.2,0.1c-0.1,0.1-0.1,0.2-0.1,0.2c0,0.1,0,0.2,0.1,0.2c0.1,0.1,0.4,0.1,0.5,0
					s0.1-0.1,0.1-0.2c0-0.1,0-0.2-0.1-0.2C63-35.6,62.9-35.6,62.8-35.6z"/>
				<path class="st1" d="M57.1-39.1c-0.1,0-0.2,0-0.2,0.1c-0.1,0.1-0.1,0.2-0.1,0.2c0,0.1,0,0.2,0.1,0.2c0.1,0.1,0.4,0.1,0.5,0
					s0.1-0.2,0.1-0.2c0-0.1,0-0.2-0.1-0.2C57.3-39.1,57.2-39.1,57.1-39.1z"/>
				<path class="st1" d="M48.6-37.3c-0.1,0-0.2,0-0.2,0.1c-0.1,0.1-0.1,0.2-0.1,0.2c0,0.1,0,0.2,0.1,0.2c0.1,0.1,0.4,0.1,0.5,0
					S49-36.9,49-37c0-0.1,0-0.2-0.1-0.2C48.8-37.3,48.7-37.3,48.6-37.3z"/>
				<path class="st1" d="M48.3-41.3c-0.1,0-0.2,0-0.2,0.1C48-41.2,48-41.1,48-41s0,0.2,0.1,0.2c0.1,0.1,0.4,0.1,0.5,0
					s0.1-0.2,0.1-0.2s0-0.2-0.1-0.2C48.5-41.3,48.4-41.3,48.3-41.3z"/>
				<path class="st1" d="M53.8-45.1c-0.1,0-0.2,0-0.2,0.1c-0.1,0.1-0.1,0.1-0.1,0.2s0,0.2,0.1,0.2c0.1,0.1,0.3,0.1,0.5,0
					c0.1-0.1,0.1-0.2,0.1-0.2s0-0.2-0.1-0.2C54-45.1,53.9-45.1,53.8-45.1z"/>
				<path class="st1" d="M62.6-48.1c-0.1,0-0.2,0-0.2,0.1c-0.1,0.1-0.1,0.2-0.1,0.2c0,0.1,0,0.2,0.1,0.2c0.1,0.1,0.4,0.1,0.5,0
					s0.1-0.1,0.1-0.2s0-0.2-0.1-0.2C62.8-48.1,62.7-48.1,62.6-48.1z"/>
				<path class="st1" d="M65.3-51.8c-0.1,0-0.2,0-0.2,0.1c-0.1,0-0.1,0.1-0.1,0.2s0,0.2,0.1,0.2c0.1,0.1,0.3,0.1,0.5,0
					c0.1-0.1,0.1-0.2,0.1-0.2c0-0.1,0-0.2-0.1-0.2C65.5-51.8,65.4-51.8,65.3-51.8z"/>
				<path class="st1" d="M69.8-45.1c-0.1,0-0.2,0-0.2,0.1c-0.1,0.1-0.1,0.2-0.1,0.2s0,0.2,0.1,0.2c0.1,0.1,0.4,0.1,0.5,0
					s0.1-0.2,0.1-0.2s0-0.2-0.1-0.2C70-45.1,69.9-45.1,69.8-45.1z"/>
				<path class="st1" d="M60.3-39.1c-0.1,0-0.2,0-0.2,0.1C60-38.9,60-38.8,60-38.8c0,0.1,0,0.2,0.1,0.2c0.1,0.1,0.3,0.1,0.5,0
					c0.1-0.1,0.1-0.2,0.1-0.2c0-0.1,0-0.2-0.1-0.2C60.5-39.1,60.5-39.1,60.3-39.1z"/>
				<path class="st1" d="M32.8-47.1c-0.1,0-0.2,0-0.2,0.1c-0.1,0.1-0.1,0.2-0.1,0.2s0,0.2,0.1,0.2c0.1,0.1,0.4,0.1,0.5,0
					s0.1-0.2,0.1-0.2s0-0.2-0.1-0.2C33-47.1,32.9-47.1,32.8-47.1z"/>
				<path class="st1" d="M26.6-37.8c-0.1,0-0.2,0-0.2,0.1c-0.1,0.1-0.1,0.2-0.1,0.2c0,0.1,0,0.2,0.1,0.2c0.1,0.1,0.4,0.1,0.5,0
					s0.1-0.2,0.1-0.2c0-0.1,0-0.2-0.1-0.2C26.8-37.8,26.7-37.8,26.6-37.8z"/>
				<path class="st1" d="M30.1-35.6c-0.1,0-0.2,0-0.2,0.1c-0.1,0.1-0.1,0.2-0.1,0.2c0,0.1,0,0.2,0.1,0.2c0.1,0.1,0.4,0.1,0.5,0
					s0.1-0.2,0.1-0.2c0-0.1,0-0.2-0.1-0.2C30.3-35.6,30.2-35.6,30.1-35.6z"/>
				<path class="st1" d="M10.8-29.6c-0.1,0-0.2,0-0.2,0.1c-0.1,0.1-0.1,0.2-0.1,0.2c0,0.1,0,0.2,0.1,0.2c0.1,0.1,0.4,0.1,0.5,0
					s0.1-0.2,0.1-0.2c0-0.1,0-0.2-0.1-0.2C11-29.6,10.9-29.6,10.8-29.6z"/>
				<path class="st1" d="M6.3-31.6c-0.1,0-0.2,0-0.2,0.1C6-31.4,6-31.3,6-31.2S6-31,6.1-31c0.1,0.1,0.4,0.1,0.5,0s0.1-0.2,0.1-0.2
					c0-0.1,0-0.2-0.1-0.2C6.5-31.6,6.4-31.6,6.3-31.6z"/>
				<path class="st1" d="M2.8-35.3c-0.1,0-0.2,0-0.2,0.1C2.5-35.1,2.5-35,2.5-35c0,0.1,0,0.2,0.1,0.2c0.1,0.1,0.4,0.1,0.5,0
					S3.2-35,3.2-35c0-0.1,0-0.2-0.1-0.2C3-35.3,2.9-35.3,2.8-35.3z"/>
				<path class="st1" d="M17.3-42.1c-0.1,0-0.2,0-0.2,0.1C17-41.9,17-41.8,17-41.8c0,0.1,0,0.2,0.1,0.2c0.1,0.1,0.4,0.1,0.5,0
					s0.1-0.2,0.1-0.2c0-0.1,0-0.2-0.1-0.2C17.5-42.1,17.5-42.1,17.3-42.1z"/>
				<path class="st1" d="M13.1-36.1c-0.1,0-0.2,0-0.2,0.1c-0.1,0.1-0.1,0.2-0.1,0.2c0,0.1,0,0.2,0.1,0.2c0.1,0.1,0.3,0.1,0.5,0
					c0.1-0.1,0.1-0.2,0.1-0.2c0-0.1,0-0.2-0.1-0.2C13.3-36.1,13.2-36.1,13.1-36.1z"/>
				<path class="st1" d="M26.8-30.3c-0.1,0-0.2,0-0.2,0.1c-0.1,0.1-0.1,0.2-0.1,0.2c0,0.1,0,0.2,0.1,0.2c0.1,0.1,0.4,0.1,0.5,0
					s0.1-0.2,0.1-0.2c0-0.1,0-0.2-0.1-0.2C27-30.3,26.9-30.3,26.8-30.3z"/>
				<path class="st1" d="M39.6-30.8c-0.1,0-0.2,0-0.2,0.1c-0.1,0.1-0.1,0.2-0.1,0.2c0,0.1,0,0.2,0.1,0.2c0.1,0.1,0.4,0.1,0.5,0
					s0.1-0.2,0.1-0.2c0-0.1,0-0.2-0.1-0.2C39.8-30.8,39.7-30.8,39.6-30.8z"/>
				<path class="st1" d="M38.6-32.8c-0.1,0-0.2,0-0.2,0.1c-0.1,0.1-0.1,0.2-0.1,0.2c0,0.1,0,0.2,0.1,0.2c0.1,0.1,0.4,0.1,0.5,0
					s0.1-0.2,0.1-0.2c0-0.1,0-0.2-0.1-0.2C38.8-32.8,38.7-32.8,38.6-32.8z"/>
				<path class="st1" d="M28.3-42.1c-0.1,0-0.2,0-0.2,0.1C28-41.9,28-41.8,28-41.8s0,0.2,0.1,0.2c0.1,0.1,0.4,0.1,0.5,0
					s0.1-0.2,0.1-0.2s0-0.2-0.1-0.2C28.5-42.1,28.4-42.1,28.3-42.1z"/>
				<path class="st1" d="M6.8-20.6c-0.1,0-0.2,0-0.2,0.1c-0.1,0.1-0.1,0.2-0.1,0.2c0,0.1,0,0.2,0.1,0.2C6.7-20,7-20,7.1-20.1
					s0.1-0.2,0.1-0.2c0-0.1,0-0.2-0.1-0.2C7-20.6,6.9-20.6,6.8-20.6z"/>
				<path class="st1" d="M10.1-18.8c-0.1,0-0.2,0-0.2,0.1c-0.1,0.1-0.1,0.2-0.1,0.2c0,0.1,0,0.2,0.1,0.2c0.1,0.1,0.4,0.1,0.5,0
					s0.1-0.2,0.1-0.2c0-0.1,0-0.2-0.1-0.2C10.3-18.8,10.2-18.8,10.1-18.8z"/>
				<path class="st1" d="M12.1-23.6c-0.1,0-0.2,0-0.2,0.1c-0.1,0.1-0.1,0.2-0.1,0.2c0,0.1,0,0.2,0.1,0.2c0.1,0.1,0.3,0.1,0.5,0
					c0.1-0.1,0.1-0.2,0.1-0.2c0-0.1,0-0.2-0.1-0.2C12.3-23.6,12.2-23.6,12.1-23.6z"/>
				<path class="st1" d="M3.3-25.8c-0.1,0-0.2,0-0.2,0.1C3-25.7,3-25.6,3-25.5s0,0.2,0.1,0.2c0.1,0.1,0.4,0.1,0.5,0s0.1-0.2,0.1-0.2
					c0-0.1,0-0.2-0.1-0.2C3.5-25.8,3.4-25.8,3.3-25.8z"/>
				<path class="st1" d="M64.6-29.6c-0.1,0-0.2,0-0.2,0.1c-0.1,0.1-0.1,0.2-0.1,0.2c0,0.1,0,0.2,0.1,0.2c0.1,0.1,0.4,0.1,0.5,0
					s0.1-0.2,0.1-0.2c0-0.1,0-0.2-0.1-0.2C64.8-29.6,64.7-29.6,64.6-29.6z"/>
				<path class="st1" d="M69.8-29.8c-0.1,0-0.2,0-0.2,0.1c-0.1,0.1-0.1,0.2-0.1,0.2c0,0.1,0,0.2,0.1,0.2c0.1,0.1,0.3,0.1,0.5,0
					c0.1-0.1,0.1-0.2,0.1-0.2c0-0.1,0-0.2-0.1-0.2C70-29.8,70-29.8,69.8-29.8z"/>
				<path class="st1" d="M1.8-9.1c-0.1,0-0.2,0-0.2,0.1C1.5-8.9,1.5-8.8,1.5-8.8c0,0.1,0,0.2,0.1,0.2c0.1,0.1,0.4,0.1,0.5,0
					c0.1-0.1,0.1-0.2,0.1-0.2c0-0.1,0-0.2-0.1-0.2C2-9.1,1.9-9.1,1.8-9.1z"/>
				<path class="st1" d="M16.8-6.1c-0.1,0-0.2,0-0.2,0.1c-0.1,0.1-0.1,0.2-0.1,0.2c0,0.1,0,0.2,0.1,0.2c0.1,0.1,0.4,0.1,0.5,0
					s0.1-0.2,0.1-0.2s0-0.2-0.1-0.2C17-6.1,16.9-6.1,16.8-6.1z"/>
				<path class="st1" d="M4.1-6.1C4-6.1,3.9-6.1,3.9-6C3.8-5.9,3.8-5.8,3.8-5.8s0,0.2,0.1,0.2c0.1,0.1,0.4,0.1,0.5,0
					s0.1-0.2,0.1-0.2S4.5-6,4.4-6C4.3-6.1,4.2-6.1,4.1-6.1z"/>
				<path class="st1" d="M13.1-14.3c-0.1,0-0.2,0-0.2,0.1c-0.1,0.1-0.1,0.2-0.1,0.2c0,0.1,0,0.2,0.1,0.2c0.1,0.1,0.4,0.1,0.5,0
					s0.1-0.2,0.1-0.2c0-0.1,0-0.2-0.1-0.2C13.3-14.3,13.2-14.3,13.1-14.3z"/>
				<path class="st1" d="M18.8-19.3c-0.1,0-0.2,0-0.2,0.1c-0.1,0.1-0.1,0.2-0.1,0.2c0,0.1,0,0.2,0.1,0.2c0.1,0.1,0.4,0.1,0.5,0
					s0.1-0.2,0.1-0.2c0-0.1,0-0.2-0.1-0.2C19-19.3,18.9-19.3,18.8-19.3z"/>
				<path class="st1" d="M21.6-37.1c-0.1,0-0.2,0-0.2,0.1c-0.1,0.1-0.1,0.2-0.1,0.2c0,0.1,0,0.2,0.1,0.2c0.1,0.1,0.4,0.1,0.5,0
					s0.1-0.2,0.1-0.2c0-0.1,0-0.2-0.1-0.2C21.8-37.1,21.7-37.1,21.6-37.1z"/>
				<path class="st1" d="M1.1-44.3c-0.1,0-0.2,0-0.3,0.1C0.7-44.1,0.7-44,0.7-44c0,0.1,0,0.2,0.1,0.2c0.1,0.1,0.3,0.1,0.5,0
					C1.4-43.9,1.4-44,1.4-44c0-0.1,0-0.2-0.1-0.2C1.3-44.3,1.2-44.3,1.1-44.3z"/>
				<path class="st1" d="M68.3-66.1c-0.1,0-0.2,0-0.2,0.1C68-65.9,68-65.8,68-65.7c0,0.1,0,0.2,0.1,0.2c0.1,0.1,0.3,0.1,0.5,0
					c0.1-0.1,0.1-0.2,0.1-0.2c0-0.1,0-0.2-0.1-0.2C68.5-66.1,68.4-66.1,68.3-66.1z"/>
				<path class="st1" d="M60.1-69.8c-0.1,0-0.2,0-0.2,0.1c-0.1,0.1-0.1,0.2-0.1,0.2s0,0.2,0.1,0.2c0.1,0.1,0.4,0.1,0.5,0
					c0.1-0.1,0.1-0.2,0.1-0.2c0-0.1,0-0.2-0.1-0.2C60.3-69.8,60.2-69.8,60.1-69.8z"/>
				<path class="st1" d="M40.8-68.1c-0.1,0-0.2,0-0.2,0.1c-0.1,0.1-0.1,0.2-0.1,0.2s0,0.2,0.1,0.2c0.1,0.1,0.4,0.1,0.5,0
					s0.1-0.2,0.1-0.2s0-0.2-0.1-0.2C41-68.1,41-68.1,40.8-68.1z"/>
				<path class="st1" d="M4.8-60.1c-0.1,0-0.2,0-0.2,0.1c-0.1,0.1-0.1,0.2-0.1,0.2c0,0.1,0,0.2,0.1,0.2c0.1,0.1,0.4,0.1,0.5,0
					c0.1-0.1,0.1-0.2,0.1-0.2c0-0.1,0-0.2-0.1-0.2C5-60.1,4.9-60.1,4.8-60.1z"/>
				<path class="st1" d="M26.8-59.6c-0.1,0-0.2,0-0.2,0.1c-0.1,0.1-0.1,0.2-0.1,0.2c0,0.1,0,0.2,0.1,0.2c0.1,0.1,0.4,0.1,0.5,0
					c0.1-0.1,0.1-0.2,0.1-0.2c0-0.1,0-0.2-0.1-0.2C27-59.6,26.9-59.6,26.8-59.6z"/>
				<path class="st1" d="M37.6-48.6c-0.1,0-0.2,0-0.2,0.1c-0.1,0.1-0.1,0.2-0.1,0.2c0,0.1,0,0.2,0.1,0.2c0.1,0.1,0.4,0.1,0.5,0
					s0.1-0.2,0.1-0.2s0-0.2-0.1-0.2C37.8-48.6,37.7-48.6,37.6-48.6z"/>
				<path class="st1" d="M9.1-40.3c-0.1,0-0.2,0-0.2,0.1C8.8-40.1,8.8-40,8.8-40c0,0.1,0,0.2,0.1,0.2c0.1,0.1,0.4,0.1,0.5,0
					S9.5-40,9.5-40c0-0.1,0-0.2-0.1-0.2C9.3-40.3,9.2-40.3,9.1-40.3z"/>
				<path class="st1" d="M52.6-38.1c-0.1,0-0.2,0-0.2,0.1c-0.1,0.1-0.1,0.2-0.1,0.2c0,0.1,0,0.2,0.1,0.2c0.1,0.1,0.3,0.1,0.5,0
					c0.1-0.1,0.1-0.2,0.1-0.2c0-0.1,0-0.2-0.1-0.2C52.8-38.1,52.7-38.1,52.6-38.1z"/>
				<path class="st1" d="M61.1-46.1c-0.1,0-0.2,0-0.2,0.1c-0.1,0.1-0.1,0.2-0.1,0.2c0,0.1,0,0.2,0.1,0.2c0.1,0.1,0.3,0.1,0.5,0
					c0.1-0.1,0.1-0.2,0.1-0.2c0-0.1,0-0.2-0.1-0.2C61.3-46.1,61.2-46.1,61.1-46.1z"/>
				<path class="st1" d="M51.6-66.3c-0.1,0-0.2,0-0.2,0.1c-0.1,0.1-0.1,0.2-0.1,0.2s0,0.2,0.1,0.2c0.1,0.1,0.4,0.1,0.5,0
					c0,0,0.1-0.1,0.1-0.2s0-0.2-0.1-0.2C51.8-66.3,51.7-66.3,51.6-66.3z"/>
				<path class="st1" d="M40.3-37.8c-0.1,0-0.2,0-0.2,0.1c-0.1,0-0.1,0.1-0.1,0.2s0,0.2,0.1,0.2c0.2,0.1,0.4,0.1,0.5,0
					s0.1-0.2,0.1-0.2c0-0.1,0-0.2-0.1-0.2C40.5-37.8,40.4-37.8,40.3-37.8z"/>
				<path class="st1" d="M27.8-13.6c-0.1,0-0.2,0-0.2,0.1c-0.1,0.1-0.1,0.2-0.1,0.2c0,0.1,0,0.2,0.1,0.2c0.1,0.1,0.4,0.1,0.5,0
					s0.1-0.2,0.1-0.2c0-0.1,0-0.2-0.1-0.2C28-13.6,27.9-13.6,27.8-13.6z"/>
				<path class="st1" d="M20.1-26.6c-0.1,0-0.2,0-0.2,0.1c-0.1,0.1-0.1,0.2-0.1,0.2c0,0.1,0,0.2,0.1,0.2c0.1,0.1,0.4,0.1,0.5,0
					s0.1-0.2,0.1-0.2c0-0.1,0-0.2-0.1-0.2C20.3-26.6,20.2-26.6,20.1-26.6z"/>
				<path class="st1" d="M12.1-1.8c-0.1,0-0.2,0-0.2,0.1c-0.1,0.1-0.1,0.2-0.1,0.2s0,0.2,0.1,0.2c0.1,0.1,0.4,0.1,0.5,0
					s0.1-0.2,0.1-0.2s0-0.2-0.1-0.2C12.3-1.8,12.2-1.8,12.1-1.8z"/>
				<path class="st1" d="M55.6-3.8c-0.1,0-0.2,0-0.2,0.1c-0.1,0.1-0.1,0.2-0.1,0.2c0,0.1,0,0.2,0.1,0.2c0.1,0.1,0.3,0.1,0.5,0
					C56-3.4,56-3.5,56-3.5c0-0.1,0-0.2-0.1-0.2C55.8-3.8,55.7-3.8,55.6-3.8z"/>
				<path class="st1" d="M47.6-69.8c-0.1,0-0.2,0-0.2,0.1c-0.1,0.1-0.1,0.2-0.1,0.2c0,0.1,0,0.2,0.1,0.2c0.1,0.1,0.4,0.1,0.5,0
					c0,0,0.1-0.1,0.1-0.2s0-0.2-0.1-0.2C47.8-69.8,47.7-69.8,47.6-69.8z"/>
				<path class="st1" d="M5.1-40.3c-0.1,0-0.2,0-0.2,0.1C4.8-40.1,4.8-40,4.8-40c0,0.1,0,0.2,0.1,0.2c0.1,0.1,0.3,0.1,0.5,0
					C5.5-39.9,5.5-40,5.5-40c0-0.1,0-0.2-0.1-0.2C5.3-40.3,5.2-40.3,5.1-40.3z"/>
				<path class="st1" d="M69.1-13.3c-0.1,0-0.2,0-0.2,0.1c-0.1,0.1-0.1,0.2-0.1,0.2c0,0.1,0,0.2,0.1,0.2c0.1,0.1,0.4,0.1,0.5,0
					s0.1-0.2,0.1-0.2c0-0.1,0-0.2-0.1-0.2C69.3-13.3,69.2-13.3,69.1-13.3z"/>
				<path class="st1" d="M23.6-14.1c-0.1,0-0.2,0-0.2,0.1c-0.1,0.1-0.1,0.2-0.1,0.2c0,0.1,0,0.2,0.1,0.2c0.1,0.1,0.4,0.1,0.5,0
					s0.1-0.2,0.1-0.2c0-0.1,0-0.2-0.1-0.2C23.8-14.1,23.7-14.1,23.6-14.1z"/>
				<path class="st1" d="M20.8-17.3c-0.1,0-0.2,0-0.2,0.1c-0.1,0.1-0.1,0.2-0.1,0.2c0,0.1,0,0.2,0.1,0.2c0.1,0.1,0.4,0.1,0.5,0
					s0.1-0.2,0.1-0.2c0-0.1,0-0.2-0.1-0.2C21-17.3,20.9-17.3,20.8-17.3z"/>
				<path class="st1" d="M15.1-17.3c-0.1,0-0.2,0-0.2,0.1c-0.1,0.1-0.1,0.2-0.1,0.2c0,0.1,0,0.2,0.1,0.2c0.1,0.1,0.3,0.1,0.5,0
					c0.1-0.1,0.1-0.2,0.1-0.2c0-0.1,0-0.2-0.1-0.2C15.3-17.3,15.2-17.3,15.1-17.3z"/>
				<path class="st1" d="M6.3-11.8c-0.1,0-0.2,0-0.2,0.1C6-11.7,6-11.6,6-11.5s0,0.2,0.1,0.2c0.1,0.1,0.4,0.1,0.5,0s0.1-0.2,0.1-0.2
					c0-0.1,0-0.2-0.1-0.2C6.5-11.8,6.4-11.8,6.3-11.8z"/>
				<path class="st1" d="M7.3-2.8c-0.1,0-0.2,0-0.2,0.1C7-2.7,7-2.6,7-2.5s0,0.2,0.1,0.2c0.1,0.1,0.4,0.1,0.5,0s0.1-0.2,0.1-0.2
					s0-0.2-0.1-0.2C7.5-2.8,7.4-2.8,7.3-2.8z"/>
				<path class="st1" d="M10.3-8.3c-0.1,0-0.2,0-0.2,0.1C10-8.2,10-8.1,10-8s0,0.2,0.1,0.2c0.1,0.1,0.4,0.1,0.5,0S10.7-8,10.7-8
					s0-0.2-0.1-0.2C10.5-8.3,10.4-8.3,10.3-8.3z"/>
				<path class="st1" d="M14.6-8.3c-0.1,0-0.2,0-0.2,0.1C14.3-8.1,14.3-8,14.3-8c0,0.1,0,0.2,0.1,0.2c0.1,0.1,0.3,0.1,0.5,0
					C15-7.9,15-8,15-8c0-0.1,0-0.2-0.1-0.2C14.8-8.3,14.7-8.3,14.6-8.3z"/>
				<path class="st1" d="M26.1-7.1c-0.1,0-0.2,0-0.2,0.1c-0.1,0.1-0.1,0.2-0.1,0.2s0,0.2,0.1,0.2c0.1,0.1,0.4,0.1,0.5,0
					s0.1-0.2,0.1-0.2s0-0.2-0.1-0.2C26.3-7.1,26.2-7.1,26.1-7.1z"/>
				<path class="st1" d="M37.3-7.6c-0.1,0-0.2,0-0.2,0.1C37-7.4,37-7.3,37-7.2S37-7,37.1-7c0.1,0.1,0.4,0.1,0.5,0s0.1-0.2,0.1-0.2
					s0-0.2-0.1-0.2C37.5-7.6,37.4-7.6,37.3-7.6z"/>
				<path class="st1" d="M37.8-4.3c-0.1,0-0.2,0-0.2,0.1C37.5-4.1,37.5-4,37.5-4c0,0.1,0,0.2,0.1,0.2c0.1,0.1,0.4,0.1,0.5,0
					S38.2-4,38.2-4c0-0.1,0-0.2-0.1-0.2C38-4.3,37.9-4.3,37.8-4.3z"/>
				<path class="st1" d="M43.6-2.3c-0.1,0-0.2,0-0.2,0.1C43.3-2.1,43.3-2,43.3-2s0,0.2,0.1,0.2c0.1,0.1,0.4,0.1,0.5,0S44-2,44-2
					s0-0.2-0.1-0.2C43.8-2.3,43.7-2.3,43.6-2.3z"/>
				<path class="st1" d="M49.8-8.3c-0.1,0-0.2,0-0.2,0.1C49.5-8.1,49.5-8,49.5-8s0,0.2,0.1,0.2c0.1,0.1,0.4,0.1,0.5,0S50.2-8,50.2-8
					s0-0.2-0.1-0.2C50-8.3,49.9-8.3,49.8-8.3z"/>
				<path class="st1" d="M46.3-9.3c-0.1,0-0.2,0-0.2,0.1C46-9.2,46-9.1,46-9s0,0.2,0.1,0.2c0.1,0.1,0.4,0.1,0.5,0S46.7-9,46.7-9
					c0-0.1,0-0.2-0.1-0.2C46.5-9.3,46.5-9.3,46.3-9.3z"/>
				<path class="st1" d="M36.1-11.1c-0.1,0-0.2,0-0.2,0.1c-0.1,0.1-0.1,0.2-0.1,0.2c0,0.1,0,0.2,0.1,0.2c0.1,0.1,0.4,0.1,0.5,0
					s0.1-0.2,0.1-0.2c0-0.1,0-0.2-0.1-0.2C36.3-11.1,36.2-11.1,36.1-11.1z"/>
				<path class="st1" d="M39.6-15.1c-0.1,0-0.2,0-0.2,0.1c-0.1,0.1-0.1,0.2-0.1,0.2c0,0.1,0,0.2,0.1,0.2c0.1,0.1,0.4,0.1,0.5,0
					s0.1-0.2,0.1-0.2c0-0.1,0-0.2-0.1-0.2C39.8-15.1,39.7-15.1,39.6-15.1z"/>
				<path class="st1" d="M25.1-18.1c-0.1,0-0.2,0-0.2,0.1c-0.1,0.1-0.1,0.2-0.1,0.2c0,0.1,0,0.2,0.1,0.2c0.1,0.1,0.4,0.1,0.5,0
					s0.1-0.2,0.1-0.2c0-0.1,0-0.2-0.1-0.2C25.3-18.1,25.2-18.1,25.1-18.1z"/>
				<path class="st1" d="M8.6-27.3c-0.1,0-0.2,0-0.2,0.1C8.3-27.1,8.3-27,8.3-27c0,0.1,0,0.2,0.1,0.2c0.1,0.1,0.4,0.1,0.5,0
					c0,0,0.1-0.1,0.1-0.2s0-0.2-0.1-0.2C8.8-27.3,8.7-27.3,8.6-27.3z"/>
				<path class="st1" d="M16.3-31.8c-0.1,0-0.2,0-0.2,0.1c-0.1,0-0.1,0.1-0.1,0.2s0,0.2,0.1,0.2c0.1,0.1,0.4,0.1,0.5,0
					s0.1-0.2,0.1-0.2c0-0.1,0-0.2-0.1-0.2C16.5-31.8,16.4-31.8,16.3-31.8z"/>
				<path class="st1" d="M10.8-33.6c-0.1,0-0.2,0-0.2,0.1c-0.1,0.1-0.1,0.2-0.1,0.2c0,0.1,0,0.2,0.1,0.2c0.1,0.1,0.3,0.1,0.5,0
					c0.1-0.1,0.1-0.2,0.1-0.2c0-0.1,0-0.2-0.1-0.2C11-33.6,10.9-33.6,10.8-33.6z"/>
				<path class="st1" d="M5.6-37.1c-0.1,0-0.2,0-0.2,0.1c-0.1,0.1-0.1,0.2-0.1,0.2c0,0.1,0,0.2,0.1,0.2c0.1,0.1,0.4,0.1,0.5,0
					c0,0,0.1-0.1,0.1-0.2S6-37,5.9-37C5.8-37.1,5.7-37.1,5.6-37.1z"/>
				<path class="st1" d="M3.6-20.6c-0.1,0-0.2,0-0.2,0.1c-0.1,0.1-0.1,0.2-0.1,0.2c0,0.1,0,0.2,0.1,0.2c0.1,0.1,0.4,0.1,0.5,0
					c0,0,0.1-0.1,0.1-0.1c0-0.1,0-0.2-0.1-0.2C3.8-20.6,3.7-20.6,3.6-20.6z"/>
				<path class="st1" d="M20.8-30.8c-0.1,0-0.2,0-0.2,0.1c-0.1,0.1-0.1,0.2-0.1,0.2c0,0.1,0,0.2,0.1,0.2c0.1,0.1,0.3,0.1,0.5,0
					c0.1-0.1,0.1-0.2,0.1-0.2c0-0.1,0-0.2-0.1-0.2C21-30.8,20.9-30.8,20.8-30.8z"/>
				<path class="st1" d="M17.8-35.6c-0.1,0-0.2,0-0.2,0.1c-0.1,0.1-0.1,0.2-0.1,0.2c0,0.1,0,0.2,0.1,0.2c0.1,0.1,0.4,0.1,0.5,0
					s0.1-0.2,0.1-0.2c0-0.1,0-0.2-0.1-0.2C18-35.6,17.9-35.6,17.8-35.6z"/>
				<path class="st1" d="M16.3-39.1c-0.1,0-0.2,0-0.2,0.1C16-38.9,16-38.8,16-38.8c0,0.1,0,0.2,0.1,0.2c0.1,0.1,0.3,0.1,0.5,0
					c0.1-0.1,0.1-0.2,0.1-0.2c0-0.1,0-0.2-0.1-0.2C16.5-39.1,16.5-39.1,16.3-39.1z"/>
				<path class="st1" d="M13.1-41.3c-0.1,0-0.2,0-0.2,0.1c-0.1,0.1-0.1,0.2-0.1,0.2c0,0.1,0,0.2,0.1,0.2c0.1,0.1,0.3,0.1,0.5,0
					c0.1-0.1,0.1-0.2,0.1-0.2c0-0.1,0-0.2-0.1-0.2C13.3-41.3,13.2-41.3,13.1-41.3z"/>
				<path class="st1" d="M13.1-46.6c-0.1,0-0.2,0-0.2,0.1c-0.1,0.1-0.1,0.2-0.1,0.2c0,0.1,0,0.2,0.1,0.2c0.1,0.1,0.3,0.1,0.5,0
					c0.1-0.1,0.1-0.2,0.1-0.2c0-0.1,0-0.2-0.1-0.2C13.3-46.6,13.2-46.6,13.1-46.6z"/>
				<path class="st1" d="M6.1-48.6c-0.1,0-0.2,0-0.2,0.1c-0.1,0.1-0.1,0.2-0.1,0.2s0,0.2,0.1,0.2C6-48,6.3-48,6.4-48.1
					s0.1-0.2,0.1-0.2s0-0.2-0.1-0.2C6.3-48.6,6.2-48.6,6.1-48.6z"/>
				<path class="st1" d="M11.3-54.6c-0.1,0-0.2,0-0.2,0.1C11-54.4,11-54.3,11-54.2s0,0.2,0.1,0.2c0.1,0.1,0.4,0.1,0.5,0
					s0.1-0.2,0.1-0.2s0-0.2-0.1-0.2C11.5-54.6,11.4-54.6,11.3-54.6z"/>
				<path class="st1" d="M15.8-58.6c-0.1,0-0.2,0-0.2,0.1c-0.1,0.1-0.1,0.2-0.1,0.2c0,0.1,0,0.2,0.1,0.2c0.1,0.1,0.4,0.1,0.5,0
					c0.1-0.1,0.1-0.2,0.1-0.2c0-0.1,0-0.2-0.1-0.2C16-58.6,15.9-58.6,15.8-58.6z"/>
				<path class="st1" d="M6.3-63.6c-0.1,0-0.2,0-0.2,0.1C6-63.4,6-63.3,6-63.2c0,0,0,0.1,0.1,0.2s0.4,0.1,0.5,0s0.1-0.2,0.1-0.2
					c0-0.1,0-0.2-0.1-0.2C6.5-63.6,6.4-63.6,6.3-63.6z"/>
				<path class="st1" d="M2.6-62.1c-0.1,0-0.2,0-0.2,0.1c-0.1,0.1-0.1,0.2-0.1,0.2c0,0.1,0,0.2,0.1,0.2c0.1,0.1,0.4,0.1,0.5,0
					c0,0,0.1-0.1,0.1-0.2C3-61.9,3-62,2.9-62C2.8-62.1,2.7-62.1,2.6-62.1z"/>
				<path class="st1" d="M9.3-68.1c-0.1,0-0.2,0-0.2,0.1C9-67.9,9-67.8,9-67.7c0,0.1,0,0.2,0.1,0.2c0.1,0.1,0.4,0.1,0.5,0
					s0.1-0.2,0.1-0.2s0-0.2-0.1-0.2C9.5-68.1,9.5-68.1,9.3-68.1z"/>
				<path class="st1" d="M13.8-69.6c-0.1,0-0.2,0-0.2,0.1c-0.1,0.1-0.1,0.2-0.1,0.2s0,0.2,0.1,0.2c0.1,0.1,0.4,0.1,0.5,0
					s0.1-0.2,0.1-0.2s0-0.2-0.1-0.2C14-69.6,13.9-69.6,13.8-69.6z"/>
				<path class="st1" d="M21.8-68.6c-0.1,0-0.2,0-0.2,0.1c-0.1,0.1-0.1,0.2-0.1,0.2c0,0.1,0,0.2,0.1,0.2c0.1,0.1,0.4,0.1,0.5,0
					s0.1-0.2,0.1-0.2c0-0.1,0-0.2-0.1-0.2C22-68.6,21.9-68.6,21.8-68.6z"/>
				<path class="st1" d="M23.3-65.8c-0.1,0-0.2,0-0.2,0.1c-0.1,0-0.1,0.1-0.1,0.2s0,0.2,0.1,0.2c0.1,0.1,0.4,0.1,0.5,0
					c0.1-0.1,0.1-0.2,0.1-0.2s0-0.2-0.1-0.2C23.5-65.8,23.5-65.8,23.3-65.8z"/>
				<path class="st1" d="M22.6-60.1c-0.1,0-0.2,0-0.2,0.1c-0.1,0.1-0.1,0.2-0.1,0.2c0,0.1,0,0.2,0.1,0.2c0.1,0.1,0.4,0.1,0.5,0
					c0.1-0.1,0.1-0.2,0.1-0.2c0-0.1,0-0.2-0.1-0.2C22.8-60.1,22.7-60.1,22.6-60.1z"/>
				<path class="st1" d="M24.6-57.6c-0.1,0-0.2,0-0.2,0.1c-0.1,0.1-0.1,0.2-0.1,0.2c0,0.1,0,0.2,0.1,0.2c0.1,0.1,0.4,0.1,0.5,0
					c0.1-0.1,0.1-0.2,0.1-0.2c0-0.1,0-0.2-0.1-0.2C24.8-57.6,24.7-57.6,24.6-57.6z"/>
				<path class="st1" d="M26.6-47.8c-0.1,0-0.2,0-0.2,0.1c-0.1,0.1-0.1,0.2-0.1,0.2s0,0.2,0.1,0.2c0.1,0.1,0.4,0.1,0.5,0
					c0.1-0.1,0.1-0.2,0.1-0.2s0-0.2-0.1-0.2C26.8-47.8,26.7-47.8,26.6-47.8z"/>
				<path class="st1" d="M26.1-43.6c-0.1,0-0.2,0-0.2,0.1c-0.1,0.1-0.1,0.2-0.1,0.2s0,0.2,0.1,0.2c0.1,0.1,0.4,0.1,0.5,0
					s0.1-0.2,0.1-0.2s0-0.2-0.1-0.2C26.3-43.6,26.2-43.6,26.1-43.6z"/>
				<path class="st1" d="M32.6-31.1c-0.1,0-0.2,0-0.2,0.1c-0.1,0.1-0.1,0.2-0.1,0.2c0,0.1,0,0.2,0.1,0.2c0.1,0.1,0.3,0.1,0.5,0
					c0.1-0.1,0.1-0.2,0.1-0.2c0-0.1,0-0.2-0.1-0.2C32.8-31.1,32.7-31.1,32.6-31.1z"/>
				<path class="st1" d="M34.6-27.8c-0.1,0-0.2,0-0.2,0.1c-0.1,0.1-0.1,0.2-0.1,0.2c0,0.1,0,0.2,0.1,0.2c0.1,0.1,0.4,0.1,0.5,0
					s0.1-0.2,0.1-0.2c0-0.1,0-0.2-0.1-0.2C34.8-27.8,34.7-27.8,34.6-27.8z"/>
				<path class="st1" d="M42.1-25.8c-0.1,0-0.2,0-0.2,0.1c-0.1,0.1-0.1,0.2-0.1,0.2c0,0.1,0,0.2,0.1,0.2c0.1,0.1,0.4,0.1,0.5,0
					s0.1-0.2,0.1-0.2c0-0.1,0-0.2-0.1-0.2C42.3-25.8,42.2-25.8,42.1-25.8z"/>
				<path class="st1" d="M43.3-20.8c-0.1,0-0.2,0-0.2,0.1c-0.1,0-0.1,0.1-0.1,0.2s0,0.2,0.1,0.2c0.1,0.1,0.4,0.1,0.5,0
					s0.1-0.2,0.1-0.2c0-0.1,0-0.2-0.1-0.2C43.5-20.8,43.4-20.8,43.3-20.8z"/>
				<path class="st1" d="M36.8-19.3c-0.1,0-0.2,0-0.2,0.1c-0.1,0.1-0.1,0.2-0.1,0.2c0,0.1,0,0.2,0.1,0.2c0.2,0.2,0.4,0.1,0.5,0
					s0.1-0.2,0.1-0.2c0-0.1,0-0.2-0.1-0.2C37-19.3,36.9-19.3,36.8-19.3z"/>
				<path class="st1" d="M28.1-22.3c-0.1,0-0.2,0-0.2,0.1c-0.1,0.1-0.1,0.2-0.1,0.2c0,0.1,0,0.2,0.1,0.2c0.1,0.1,0.4,0.1,0.5,0
					s0.1-0.2,0.1-0.2c0-0.1,0-0.2-0.1-0.2C28.3-22.3,28.2-22.3,28.1-22.3z"/>
				<path class="st1" d="M52.3-22.1c-0.1,0-0.2,0-0.2,0.1C52-21.9,52-21.8,52-21.8c0,0.1,0,0.2,0.1,0.2c0.1,0.1,0.4,0.1,0.5,0
					s0.1-0.2,0.1-0.2c0-0.1,0-0.2-0.1-0.2C52.5-22.1,52.5-22.1,52.3-22.1z"/>
				<path class="st1" d="M43.6-17.8c-0.1,0-0.2,0-0.2,0.1c-0.1,0.1-0.1,0.2-0.1,0.2c0,0.1,0,0.2,0.1,0.2c0.1,0.1,0.4,0.1,0.5,0
					s0.1-0.2,0.1-0.2c0-0.1,0-0.2-0.1-0.2C43.8-17.8,43.7-17.8,43.6-17.8z"/>
				<path class="st1" d="M50.8-18.1c-0.1,0-0.2,0-0.2,0.1c-0.1,0.1-0.1,0.2-0.1,0.2c0,0.1,0,0.2,0.1,0.2c0.1,0.1,0.4,0.1,0.5,0
					s0.1-0.2,0.1-0.2c0-0.1,0-0.2-0.1-0.2C51-18.1,50.9-18.1,50.8-18.1z"/>
				<path class="st1" d="M59.8-17.3c-0.1,0-0.2,0-0.2,0.1c-0.1,0.1-0.1,0.2-0.1,0.2c0,0.1,0,0.2,0.1,0.2c0.1,0.1,0.3,0.1,0.5,0
					c0.1-0.1,0.1-0.2,0.1-0.2c0-0.1,0-0.2-0.1-0.2C60-17.3,59.9-17.3,59.8-17.3z"/>
				<path class="st1" d="M58.6-14.1c-0.1,0-0.2,0-0.2,0.1c-0.1,0.1-0.1,0.2-0.1,0.2c0,0.1,0,0.2,0.1,0.2c0.1,0.1,0.4,0.1,0.5,0
					s0.1-0.2,0.1-0.2c0-0.1,0-0.2-0.1-0.2C58.8-14.1,58.7-14.1,58.6-14.1z"/>
				<path class="st1" d="M61.8-11.1c-0.1,0-0.2,0-0.2,0.1c-0.1,0.1-0.1,0.2-0.1,0.2c0,0.1,0,0.2,0.1,0.2c0.1,0.1,0.4,0.1,0.5,0
					s0.1-0.1,0.1-0.2c0-0.1,0-0.2-0.1-0.2C62-11.1,61.9-11.1,61.8-11.1z"/>
				<path class="st1" d="M59.1-7.6c-0.1,0-0.2,0-0.2,0.1c-0.1,0.1-0.1,0.2-0.1,0.2s0,0.2,0.1,0.2c0.2,0.2,0.4,0.1,0.5,0
					s0.1-0.2,0.1-0.2c0-0.1,0-0.2-0.1-0.2C59.3-7.6,59.2-7.6,59.1-7.6z"/>
				<path class="st1" d="M60.3-4.8c-0.1,0-0.2,0-0.2,0.1C60-4.7,60-4.6,60-4.5s0,0.2,0.1,0.2c0.1,0.1,0.3,0.1,0.5,0
					c0.1-0.1,0.1-0.2,0.1-0.2c0-0.1,0-0.2-0.1-0.2C60.5-4.8,60.4-4.8,60.3-4.8z"/>
				<path class="st1" d="M67.8-6.1c-0.1,0-0.2,0-0.2,0.1c-0.1,0.1-0.1,0.2-0.1,0.2s0,0.2,0.1,0.2c0.1,0.1,0.4,0.1,0.5,0
					s0.1-0.2,0.1-0.2s0-0.2-0.1-0.2C68-6.1,67.9-6.1,67.8-6.1z"/>
				<path class="st1" d="M71.1-8.6c-0.1,0-0.2,0-0.2,0.1c-0.1,0.1-0.1,0.2-0.1,0.2c0,0.1,0,0.2,0.1,0.2C71-8,71.3-8,71.4-8.1
					s0.1-0.2,0.1-0.2c0-0.1,0-0.2-0.1-0.2C71.3-8.6,71.2-8.6,71.1-8.6z"/>
				<path class="st1" d="M66.1-9.8c-0.1,0-0.2,0-0.2,0.1c-0.1,0.1-0.1,0.2-0.1,0.2c0,0.1,0,0.2,0.1,0.2c0.1,0.1,0.4,0.1,0.5,0
					s0.1-0.2,0.1-0.2c0-0.1,0-0.2-0.1-0.2C66.3-9.8,66.2-9.8,66.1-9.8z"/>
				<path class="st1" d="M60.6-23.8c-0.1,0-0.2,0-0.2,0.1c-0.1,0.1-0.1,0.2-0.1,0.2c0,0.1,0,0.2,0.1,0.2c0.1,0.1,0.4,0.1,0.5,0
					s0.1-0.2,0.1-0.2c0-0.1,0-0.2-0.1-0.2C60.8-23.8,60.7-23.8,60.6-23.8z"/>
				<path class="st1" d="M55.8-23.8c-0.1,0-0.2,0-0.2,0.1c-0.1,0.1-0.1,0.2-0.1,0.2c0,0.1,0,0.2,0.1,0.2c0.1,0.1,0.4,0.1,0.5,0
					s0.1-0.2,0.1-0.2c0-0.1,0-0.2-0.1-0.2C56-23.8,55.9-23.8,55.8-23.8z"/>
				<path class="st1" d="M55.8-18.8c-0.1,0-0.2,0-0.2,0.1c-0.1,0.1-0.1,0.2-0.1,0.2c0,0.1,0,0.2,0.1,0.2c0.1,0.1,0.3,0.1,0.5,0
					c0.1-0.1,0.1-0.2,0.1-0.2c0-0.1,0-0.2-0.1-0.2C56-18.8,55.9-18.8,55.8-18.8z"/>
				<path class="st1" d="M65.3-25.8c-0.1,0-0.2,0-0.2,0.1c-0.1,0-0.1,0.1-0.1,0.2s0,0.2,0.1,0.2c0.1,0.1,0.3,0.1,0.5,0
					c0.1-0.1,0.1-0.2,0.1-0.2c0-0.1,0-0.2-0.1-0.2C65.5-25.8,65.4-25.8,65.3-25.8z"/>
				<path class="st1" d="M58.1-30.8c-0.1,0-0.2,0-0.2,0.1c-0.1,0.1-0.1,0.2-0.1,0.2c0,0.1,0,0.2,0.1,0.2c0.1,0.1,0.3,0.1,0.5,0
					c0.1-0.1,0.1-0.2,0.1-0.2c0-0.1,0-0.2-0.1-0.2C58.3-30.8,58.2-30.8,58.1-30.8z"/>
				<path class="st1" d="M53.1-32.8c-0.1,0-0.2,0-0.2,0.1c-0.1,0.1-0.1,0.2-0.1,0.2c0,0.1,0,0.2,0.1,0.2c0.1,0.1,0.3,0.1,0.5,0
					c0.1-0.1,0.1-0.2,0.1-0.2c0-0.1,0-0.2-0.1-0.2C53.3-32.8,53.2-32.8,53.1-32.8z"/>
				<path class="st1" d="M47.8-33.8c-0.1,0-0.2,0-0.2,0.1c-0.1,0.1-0.1,0.2-0.1,0.2c0,0.1,0,0.2,0.1,0.2c0.1,0.1,0.3,0.1,0.5,0
					c0.1-0.1,0.1-0.2,0.1-0.2c0-0.1,0-0.2-0.1-0.2C48-33.8,47.9-33.8,47.8-33.8z"/>
				<path class="st1" d="M44.6-39.3c-0.1,0-0.2,0-0.2,0.1c-0.1,0.1-0.1,0.2-0.1,0.2c0,0.1,0,0.2,0.1,0.2c0.1,0.1,0.4,0.1,0.5,0
					S45-39,45-39c0-0.1,0-0.2-0.1-0.2C44.8-39.3,44.7-39.3,44.6-39.3z"/>
				<path class="st1" d="M34.3-41.6c-0.1,0-0.2,0-0.2,0.1C34-41.4,34-41.3,34-41.2s0,0.2,0.1,0.2c0.1,0.1,0.4,0.1,0.5,0
					s0.1-0.2,0.1-0.2s0-0.2-0.1-0.2C34.5-41.6,34.4-41.6,34.3-41.6z"/>
				<path class="st1" d="M41.1-48.1c-0.1,0-0.2,0-0.2,0.1c-0.1,0.1-0.1,0.2-0.1,0.2s0,0.2,0.1,0.2c0.1,0.1,0.4,0.1,0.5,0
					s0.1-0.2,0.1-0.2s0-0.2-0.1-0.2C41.3-48.1,41.2-48.1,41.1-48.1z"/>
				<path class="st1" d="M46.1-52.3c-0.1,0-0.2,0-0.2,0.1c-0.1,0.1-0.1,0.2-0.1,0.2c0,0.1,0,0.2,0.1,0.2c0.1,0.1,0.4,0.1,0.5,0
					c0.1-0.1,0.1-0.2,0.1-0.2c0-0.1,0-0.2-0.1-0.2C46.3-52.3,46.2-52.3,46.1-52.3z"/>
				<path class="st1" d="M46.8-56.8c-0.1,0-0.2,0-0.2,0.1c-0.1,0.1-0.1,0.2-0.1,0.2c0,0.1,0,0.2,0.1,0.2c0.2,0.1,0.4,0.1,0.5,0
					c0.1-0.1,0.1-0.2,0.1-0.2c0-0.1,0-0.2-0.1-0.2C47-56.8,46.9-56.8,46.8-56.8z"/>
				<path class="st1" d="M42.3-59.6c-0.1,0-0.2,0-0.2,0.1C42-59.4,42-59.3,42-59.2c0,0.1,0,0.2,0.1,0.2c0.1,0.1,0.4,0.1,0.5,0
					s0.1-0.2,0.1-0.2c0-0.1,0-0.2-0.1-0.2C42.5-59.6,42.4-59.6,42.3-59.6z"/>
				<path class="st1" d="M40.3-62.8c-0.1,0-0.2,0-0.2,0.1c-0.1,0-0.1,0.1-0.1,0.2s0,0.2,0.1,0.2c0.1,0.1,0.4,0.1,0.5,0
					c0.1-0.1,0.1-0.2,0.1-0.2c0-0.1,0-0.2-0.1-0.2C40.5-62.8,40.5-62.8,40.3-62.8z"/>
				<path class="st1" d="M36.3-62.8c-0.1,0-0.2,0-0.2,0.1c-0.1,0-0.1,0.1-0.1,0.2s0,0.2,0.1,0.2c0.1,0.1,0.3,0.1,0.5,0
					c0.1-0.1,0.1-0.2,0.1-0.2c0-0.1,0-0.2-0.1-0.2C36.5-62.8,36.4-62.8,36.3-62.8z"/>
				<path class="st1" d="M36.8-52.8c-0.1,0-0.2,0-0.2,0.1c-0.1,0.1-0.1,0.2-0.1,0.2s0,0.2,0.1,0.2c0.1,0.1,0.4,0.1,0.5,0
					c0.1-0.1,0.1-0.1,0.1-0.2c0-0.1,0-0.2-0.1-0.2C37-52.8,36.9-52.8,36.8-52.8z"/>
				<path class="st1" d="M30.3-63.6c-0.1,0-0.2,0-0.2,0.1C30-63.4,30-63.3,30-63.2c0,0.1,0,0.2,0.1,0.2c0.1,0.1,0.4,0.1,0.5,0
					s0.1-0.2,0.1-0.2c0-0.1,0-0.2-0.1-0.2C30.5-63.6,30.4-63.6,30.3-63.6z"/>
				<path class="st1" d="M31.8-68.6c-0.1,0-0.2,0-0.2,0.1c-0.1,0.1-0.1,0.2-0.1,0.2s0,0.2,0.1,0.2c0.1,0.1,0.4,0.1,0.5,0
					c0.1-0.1,0.1-0.2,0.1-0.2s0-0.2-0.1-0.2C32-68.6,31.9-68.6,31.8-68.6z"/>
				<path class="st1" d="M37.3-71.1c-0.1,0-0.2,0-0.2,0.1C37-70.9,37-70.8,37-70.7c0,0.1,0,0.2,0.1,0.2c0.1,0.1,0.4,0.1,0.5,0
					s0.1-0.2,0.1-0.2c0-0.1,0-0.2-0.1-0.2C37.5-71.1,37.4-71.1,37.3-71.1z"/>
				<path class="st1" d="M63.3-57.1c-0.1,0-0.2,0-0.2,0.1C63-56.9,63-56.8,63-56.8c0,0.1,0,0.2,0.1,0.2c0.1,0.1,0.3,0.1,0.5,0
					c0.1-0.1,0.1-0.2,0.1-0.2c0-0.1,0-0.2-0.1-0.2C63.5-57.1,63.4-57.1,63.3-57.1z"/>
				<path class="st1" d="M60.3-50.8c-0.1,0-0.2,0-0.2,0.1c-0.1,0-0.1,0.1-0.1,0.2s0,0.2,0.1,0.2c0.1,0.1,0.3,0.1,0.5,0
					c0.1-0.1,0.1-0.2,0.1-0.2s0-0.2-0.1-0.2C60.5-50.8,60.5-50.8,60.3-50.8z"/>
				<path class="st1" d="M54.8-50.6c-0.1,0-0.2,0-0.2,0.1c-0.1,0.1-0.1,0.2-0.1,0.2s0,0.2,0.1,0.2c0.1,0.1,0.4,0.1,0.5,0
					s0.1-0.2,0.1-0.2s0-0.2-0.1-0.2C55-50.6,55-50.6,54.8-50.6z"/>
				<path class="st1" d="M55.1-41.8c-0.1,0-0.2,0-0.2,0.1c-0.1,0.1-0.1,0.2-0.1,0.2s0,0.2,0.1,0.2c0.1,0.1,0.4,0.1,0.5,0
					c0.1-0.1,0.1-0.2,0.1-0.2s0-0.2-0.1-0.2C55.3-41.8,55.2-41.8,55.1-41.8z"/>
				<path class="st1" d="M62.8-42.3c-0.1,0-0.2,0-0.2,0.1c-0.1,0.1-0.1,0.2-0.1,0.2s0,0.2,0.1,0.2c0.1,0.1,0.4,0.1,0.5,0
					c0.1-0.1,0.1-0.2,0.1-0.2s0-0.2-0.1-0.2C63-42.3,62.9-42.3,62.8-42.3z"/>
				<path class="st1" d="M67.3-47.6c-0.1,0-0.2,0-0.2,0.1C67-47.4,67-47.3,67-47.2s0,0.2,0.1,0.2c0.1,0.1,0.4,0.1,0.5,0
					s0.1-0.2,0.1-0.2s0-0.2-0.1-0.2C67.5-47.6,67.4-47.6,67.3-47.6z"/>
				<path class="st1" d="M69.8-54.3c-0.1,0-0.2,0-0.2,0.1c-0.1,0.1-0.1,0.2-0.1,0.2s0,0.2,0.1,0.2c0.1,0.1,0.4,0.1,0.5,0
					c0.1-0.1,0.1-0.2,0.1-0.2s0-0.2-0.1-0.2C70-54.3,69.9-54.3,69.8-54.3z"/>
				<path class="st1" d="M63.8-61.8c-0.1,0-0.2,0-0.2,0.1c-0.1,0.1-0.1,0.2-0.1,0.2c0,0.1,0,0.2,0.1,0.2c0.1,0.1,0.4,0.1,0.5,0
					c0.1-0.1,0.1-0.2,0.1-0.2c0-0.1,0-0.2-0.1-0.2C64-61.8,63.9-61.8,63.8-61.8z"/>
				<path class="st1" d="M70.6-61.1c-0.1,0-0.2,0-0.2,0.1c-0.1,0.1-0.1,0.2-0.1,0.2c0,0.1,0,0.2,0.1,0.2c0.1,0.1,0.3,0.1,0.5,0
					c0.1-0.1,0.1-0.2,0.1-0.2c0-0.1,0-0.2-0.1-0.2C70.8-61.1,70.7-61.1,70.6-61.1z"/>
				<path class="st1" d="M65.1-65.6c-0.1,0-0.2,0-0.2,0.1c-0.1,0.1-0.1,0.2-0.1,0.2s0,0.2,0.1,0.2c0.1,0.1,0.4,0.1,0.5,0
					s0.1-0.2,0.1-0.2s0-0.2-0.1-0.2C65.3-65.6,65.2-65.6,65.1-65.6z"/>
				<path class="st1" d="M66.1-68.3c-0.1,0-0.2,0-0.2,0.1c-0.1,0.1-0.1,0.2-0.1,0.2s0,0.2,0.1,0.2c0.1,0.1,0.4,0.1,0.5,0
					c0.1-0.1,0.1-0.2,0.1-0.2s0-0.2-0.1-0.2C66.3-68.3,66.2-68.3,66.1-68.3z"/>
				<path class="st1" d="M62.8-70.3c-0.1,0-0.2,0-0.2,0.1c-0.1,0.1-0.1,0.2-0.1,0.2c0,0.1,0,0.2,0.1,0.2c0.1,0.1,0.4,0.1,0.5,0
					c0.1-0.1,0.1-0.1,0.1-0.2s0-0.2-0.1-0.2C63-70.3,62.9-70.3,62.8-70.3z"/>
				<path class="st1" d="M53.1-69.8c-0.1,0-0.2,0-0.2,0.1c-0.1,0.1-0.1,0.2-0.1,0.2s0,0.2,0.1,0.2c0.1,0.1,0.4,0.1,0.5,0
					c0.1-0.1,0.1-0.2,0.1-0.2s0-0.2-0.1-0.2C53.3-69.8,53.2-69.8,53.1-69.8z"/>
				<path class="st1" d="M45.1-66.6c-0.1,0-0.2,0-0.2,0.1c-0.1,0.1-0.1,0.2-0.1,0.2c0,0.1,0,0.2,0.1,0.2c0.1,0.1,0.3,0.1,0.5,0
					c0.1-0.1,0.1-0.2,0.1-0.2c0-0.1,0-0.2-0.1-0.2C45.3-66.6,45.2-66.6,45.1-66.6z"/>
				<path class="st1" d="M28.8-71.3c-0.1,0-0.2,0-0.2,0.1c-0.1,0.1-0.1,0.2-0.1,0.3s0,0.2,0.1,0.2c0.1,0.1,0.3,0.1,0.5,0
					c0.1-0.1,0.1-0.2,0.1-0.2c0-0.1,0-0.2-0.1-0.3C29-71.3,28.9-71.3,28.8-71.3z"/>
				<path class="st1" d="M3.3-29.6c-0.1,0-0.2,0-0.2,0.1C3-29.4,3-29.3,3-29.2S3-29,3.1-29c0.1,0.1,0.4,0.1,0.5,0s0.1-0.2,0.1-0.2
					c0-0.1,0-0.2-0.1-0.2C3.5-29.6,3.4-29.6,3.3-29.6z"/>
				<path class="st1" d="M13.6-5.1c-0.1,0-0.2,0-0.2,0.1c-0.1,0.1-0.1,0.1-0.1,0.2s0,0.2,0.1,0.2c0.1,0.1,0.4,0.1,0.5,0
					S14-4.8,14-4.8C14-4.9,14-5,13.9-5C13.8-5.1,13.7-5.1,13.6-5.1z"/>
				<path class="st1" d="M70.6-34.6c-0.1,0-0.2,0-0.2,0.1c-0.1,0.1-0.1,0.2-0.1,0.2c0,0.1,0,0.2,0.1,0.2c0.1,0.1,0.3,0.1,0.5,0
					c0.1-0.1,0.1-0.2,0.1-0.2c0-0.1,0-0.2-0.1-0.2C70.8-34.6,70.7-34.6,70.6-34.6z"/>
				<path class="st1" d="M71.6-41.3c-0.1,0-0.2,0-0.2,0.1c-0.1,0.1-0.1,0.2-0.1,0.2s0,0.2,0.1,0.2c0.1,0.1,0.4,0.1,0.5,0
					C72-40.9,72-41,72-41s0-0.2-0.1-0.2C71.8-41.3,71.7-41.3,71.6-41.3z"/>
				<path class="st1" d="M1.3-51.8c-0.1,0-0.2,0-0.2,0.1C1-51.7,1-51.6,1-51.5s0,0.2,0.1,0.2c0.1,0.1,0.3,0.1,0.5,0
					c0.1-0.1,0.1-0.2,0.1-0.2c0-0.1,0-0.2-0.1-0.2C1.5-51.8,1.4-51.8,1.3-51.8z"/>
				<path class="st1" d="M72.3-23.6c-0.1,0-0.2,0-0.2,0.1C72-23.4,72-23.3,72-23.2s0,0.2,0.1,0.2c0.1,0.1,0.4,0.1,0.5,0
					s0.1-0.2,0.1-0.2c0-0.1,0-0.2-0.1-0.2C72.5-23.6,72.4-23.6,72.3-23.6z"/>
				<path class="st1" d="M69.3-26.6c-0.1,0-0.2,0-0.2,0.1C69-26.4,69-26.3,69-26.2s0,0.2,0.1,0.2c0.1,0.1,0.4,0.1,0.5,0
					s0.1-0.2,0.1-0.2c0-0.1,0-0.2-0.1-0.2C69.5-26.6,69.4-26.6,69.3-26.6z"/>
				<path class="st1" d="M68.8-60.3c-0.1,0-0.2,0-0.2,0.1c-0.1,0.1-0.1,0.2-0.1,0.2c0,0.1,0,0.2,0.1,0.2c0.1,0.1,0.4,0.1,0.5,0
					c0.1-0.1,0.1-0.2,0.1-0.2c0-0.1,0-0.2-0.1-0.2C69-60.3,68.9-60.3,68.8-60.3z"/>
				<path class="st1" d="M71.8-68.3c-0.1,0-0.2,0-0.2,0.1c-0.1,0.1-0.1,0.2-0.1,0.2s0,0.2,0.1,0.2c0.1,0.1,0.4,0.1,0.5,0
					c0.1-0.1,0.1-0.2,0.1-0.2s0-0.2-0.1-0.2C72-68.3,71.9-68.3,71.8-68.3z"/>
				<path class="st1" d="M0.8-57.8c-0.1,0-0.2,0-0.2,0.1c-0.1,0.1-0.1,0.2-0.1,0.2c0,0.1,0,0.2,0.1,0.2c0.1,0.1,0.4,0.1,0.5,0
					c0.1-0.1,0.1-0.2,0.1-0.2c0-0.1,0-0.2-0.1-0.2C1-57.8,0.9-57.8,0.8-57.8z"/>
				<path class="st1" d="M3.1-71.3c-0.1,0-0.2,0-0.2,0.1c-0.1,0-0.1,0.1-0.1,0.2s0,0.2,0.1,0.2c0.1,0.1,0.4,0.1,0.5,0
					c0,0,0.1-0.1,0.1-0.2s0-0.2-0.1-0.3C3.3-71.3,3.2-71.3,3.1-71.3z"/>
				<path class="st1" d="M70.6-24.1c-0.1,0-0.2,0-0.2,0.1c-0.1,0.1-0.1,0.2-0.1,0.2c0,0.1,0,0.2,0.1,0.2c0.1,0.1,0.3,0.1,0.5,0
					c0.1-0.1,0.1-0.2,0.1-0.2c0-0.1,0-0.2-0.1-0.2C70.8-24.1,70.7-24.1,70.6-24.1z"/>
				<path class="st1" d="M1.6-16.8c-0.1,0-0.2,0-0.2,0.1c-0.1,0.1-0.1,0.2-0.1,0.2c0,0.1,0,0.2,0.1,0.2c0.1,0.1,0.4,0.1,0.5,0
					c0,0,0.1-0.1,0.1-0.2s0-0.2-0.1-0.2C1.8-16.8,1.7-16.8,1.6-16.8z"/>
				<path class="st1" d="M18.3-13.2c-0.2,0-0.3,0.1-0.5,0.2c-0.1,0.1-0.2,0.3-0.2,0.5s0.1,0.3,0.2,0.5c0.2,0.2,0.7,0.2,0.9,0
					c0.1-0.1,0.2-0.3,0.2-0.5s-0.1-0.3-0.2-0.5C18.7-13.1,18.5-13.2,18.3-13.2z"/>
				<path class="st1" d="M29.6-11.2c-0.2,0-0.3,0.1-0.5,0.2C29-10.8,29-10.7,29-10.5s0.1,0.3,0.2,0.5c0.2,0.2,0.7,0.2,0.9,0
					c0.1-0.1,0.2-0.3,0.2-0.5s-0.1-0.3-0.2-0.5C29.9-11.1,29.8-11.2,29.6-11.2z"/>
				<path class="st1" d="M29.6-3.7c-0.2,0-0.3,0.1-0.5,0.2C29-3.3,29-3.2,29-3s0.1,0.3,0.2,0.5c0.2,0.2,0.7,0.2,0.9,0
					c0.1-0.1,0.2-0.3,0.2-0.5s-0.1-0.3-0.2-0.5C29.9-3.6,29.8-3.7,29.6-3.7z"/>
				<path class="st1" d="M40.6-10.7c-0.2,0-0.3,0.1-0.5,0.2C40-10.3,40-10.2,40-10s0.1,0.3,0.2,0.5c0.2,0.2,0.7,0.2,0.9,0
					c0.1-0.1,0.2-0.3,0.2-0.5s-0.1-0.3-0.2-0.5C40.9-10.6,40.8-10.7,40.6-10.7z"/>
				<path class="st1" d="M45.3-12.2c-0.2,0-0.3,0.1-0.5,0.2c-0.1,0.1-0.2,0.3-0.2,0.4s0.1,0.3,0.2,0.5c0.2,0.2,0.7,0.2,0.9,0
					c0.1-0.1,0.2-0.3,0.2-0.5s-0.1-0.3-0.2-0.5C45.7-12.1,45.5-12.2,45.3-12.2z"/>
				<path class="st1" d="M47.6-23.2c-0.2,0-0.3,0.1-0.5,0.2C47-22.8,47-22.7,47-22.5s0.1,0.3,0.2,0.5c0.2,0.2,0.7,0.2,0.9,0
					c0.1-0.1,0.2-0.3,0.2-0.5s-0.1-0.3-0.2-0.5C47.9-23.1,47.8-23.2,47.6-23.2z"/>
				<path class="st1" d="M55.1-7.2c-0.2,0-0.3,0.1-0.5,0.2c-0.1,0.1-0.2,0.3-0.2,0.5s0.1,0.3,0.2,0.5c0.2,0.2,0.7,0.2,0.9,0
					c0.1-0.1,0.2-0.3,0.2-0.5S55.6-6.8,55.5-7C55.4-7.1,55.3-7.2,55.1-7.2z"/>
				<path class="st1" d="M64.3-6.9c-0.2,0-0.3,0.1-0.5,0.2c-0.1,0.1-0.2,0.3-0.2,0.5s0.1,0.3,0.2,0.5c0.2,0.2,0.7,0.2,0.9,0
					c0.1-0.1,0.2-0.3,0.2-0.5s-0.1-0.3-0.2-0.5C64.7-6.8,64.5-6.9,64.3-6.9z"/>
				<path class="st1" d="M65.3-2.9c-0.2,0-0.3,0.1-0.5,0.2c-0.1,0.1-0.2,0.3-0.2,0.5s0.1,0.3,0.2,0.5c0.2,0.2,0.7,0.2,0.9,0
					c0.1-0.1,0.2-0.3,0.2-0.5s-0.1-0.3-0.2-0.4C65.7-2.8,65.5-2.9,65.3-2.9z"/>
				<path class="st1" d="M69.8-18.4c-0.2,0-0.3,0.1-0.5,0.2c-0.1,0.1-0.2,0.3-0.2,0.5s0.1,0.3,0.2,0.5c0.2,0.2,0.7,0.2,0.9,0
					c0.1-0.1,0.2-0.3,0.2-0.5s-0.1-0.3-0.2-0.5C70.2-18.3,70-18.4,69.8-18.4z"/>
				<path class="st1" d="M8.3-47.4c-0.2,0-0.3,0.1-0.5,0.2c-0.1,0.1-0.2,0.3-0.2,0.5c0,0.2,0.1,0.3,0.2,0.5C8-46,8.5-46,8.7-46.2
					C8.9-46.4,9-46.6,9-46.8s-0.1-0.3-0.2-0.5C8.7-47.3,8.5-47.4,8.3-47.4z"/>
				<path class="st1" d="M5.3-57.2c-0.2,0-0.3,0.1-0.5,0.2c-0.1,0.1-0.2,0.3-0.2,0.5s0.1,0.3,0.2,0.5c0.2,0.3,0.7,0.2,0.9,0
					C5.9-56.2,6-56.3,6-56.5S5.9-56.8,5.8-57C5.7-57.1,5.5-57.2,5.3-57.2z"/>
				<path class="st1" d="M2.6-67.4c-0.2,0-0.3,0.1-0.5,0.2C2-67.1,2-66.9,2-66.7c0,0.2,0,0.3,0.1,0.4c0.3,0.3,0.7,0.3,1,0
					c0.1-0.1,0.2-0.3,0.2-0.5c0-0.2-0.1-0.3-0.2-0.4C2.9-67.3,2.8-67.4,2.6-67.4z"/>
				<path class="st1" d="M18.1-70.2c-0.2,0-0.3,0.1-0.5,0.2c-0.1,0.1-0.2,0.3-0.2,0.5s0.1,0.3,0.2,0.5c0.2,0.2,0.7,0.2,0.9,0
					c0.1-0.1,0.2-0.3,0.2-0.5s0-0.3-0.1-0.5C18.4-70.1,18.3-70.2,18.1-70.2z"/>
				<path class="st1" d="M19.6-62.7c-0.2,0-0.3,0.1-0.5,0.2C19-62.3,19-62.2,19-62s0.1,0.3,0.2,0.5c0.2,0.2,0.7,0.2,0.9,0
					c0.1-0.1,0.2-0.3,0.2-0.5s-0.1-0.3-0.2-0.5C19.9-62.6,19.8-62.7,19.6-62.7z"/>
				<path class="st1" d="M21.3-45.7c-0.2,0-0.3,0.1-0.5,0.2c-0.1,0.1-0.2,0.3-0.2,0.5s0.1,0.3,0.2,0.5c0.2,0.2,0.7,0.2,0.9,0
					c0.1-0.1,0.2-0.3,0.2-0.5s-0.1-0.3-0.2-0.5C21.7-45.6,21.5-45.7,21.3-45.7z"/>
				<path class="st1" d="M28.8-51.4c-0.2,0-0.3,0.1-0.5,0.2c-0.1,0.1-0.2,0.3-0.2,0.5c0,0.2,0.1,0.3,0.2,0.5c0.2,0.2,0.7,0.2,0.9,0
					c0.1-0.1,0.2-0.3,0.2-0.5c0-0.2-0.1-0.3-0.2-0.5C29.2-51.3,29-51.4,28.8-51.4z"/>
				<path class="st1" d="M34.3-60.7c-0.2,0-0.3,0.1-0.5,0.2c-0.1,0.1-0.2,0.3-0.2,0.5s0.1,0.3,0.2,0.5c0.2,0.2,0.7,0.2,0.9,0
					c0.1-0.1,0.2-0.3,0.2-0.5s-0.1-0.3-0.2-0.5C34.7-60.6,34.5-60.7,34.3-60.7z"/>
				<path class="st1" d="M34.6-67.2c-0.2,0-0.3,0.1-0.5,0.2C34-66.8,34-66.7,34-66.5s0,0.3,0.1,0.5c0.2,0.2,0.7,0.2,0.9,0
					c0.1-0.1,0.2-0.3,0.2-0.5s0-0.3-0.1-0.5C34.9-67.1,34.8-67.2,34.6-67.2z"/>
				<path class="st1" d="M42.1-55.4c-0.2,0-0.3,0.1-0.5,0.2c-0.1,0.1-0.2,0.3-0.2,0.5c0,0.2,0.1,0.3,0.2,0.5c0.2,0.2,0.7,0.2,0.9,0
					c0.1-0.1,0.2-0.3,0.2-0.5c0-0.2-0.1-0.3-0.2-0.5C42.4-55.3,42.3-55.4,42.1-55.4z"/>
				<path class="st1" d="M52.6-60.2c-0.2,0-0.3,0.1-0.5,0.2C52-59.8,52-59.7,52-59.5s0.1,0.3,0.2,0.5c0.2,0.2,0.7,0.2,0.9,0
					c0.1-0.1,0.2-0.3,0.2-0.5s-0.1-0.3-0.2-0.5C52.9-60.1,52.8-60.2,52.6-60.2z"/>
				<path class="st1" d="M55.3-65.7c-0.2,0-0.3,0.1-0.5,0.2c-0.1,0.1-0.2,0.3-0.2,0.5s0.1,0.3,0.2,0.5c0.2,0.2,0.7,0.2,0.9,0
					S56-64.8,56-65s-0.1-0.3-0.2-0.5C55.7-65.6,55.5-65.7,55.3-65.7z"/>
				<path class="st1" d="M25.6-24.9c-0.2,0-0.3,0.1-0.5,0.2C25-24.6,25-24.4,25-24.2s0.1,0.3,0.2,0.5c0.2,0.2,0.7,0.2,0.9,0
					c0.1-0.1,0.2-0.3,0.2-0.5s-0.1-0.3-0.2-0.5C25.9-24.8,25.8-24.9,25.6-24.9z"/>
				<path class="st1" d="M35.6-23.7c-0.2,0-0.3,0.1-0.5,0.2C35-23.3,35-23.2,35-23s0.1,0.3,0.2,0.5c0.2,0.2,0.7,0.2,0.9,0
					c0.1-0.1,0.2-0.3,0.2-0.5s-0.1-0.3-0.2-0.5C35.9-23.6,35.8-23.7,35.6-23.7z"/>
				<path class="st1" d="M45.3-29.9c-0.2,0-0.3,0.1-0.5,0.2c-0.1,0.1-0.2,0.3-0.2,0.5s0.1,0.3,0.2,0.5c0.2,0.2,0.7,0.2,0.9,0
					c0.1-0.1,0.2-0.3,0.2-0.5s-0.1-0.3-0.2-0.5C45.7-29.8,45.5-29.9,45.3-29.9z"/>
				<path class="st1" d="M52.3-43.4c-0.2,0-0.3,0.1-0.5,0.2c-0.1,0.1-0.2,0.3-0.2,0.5c0,0.2,0.1,0.3,0.2,0.5c0.2,0.2,0.7,0.2,0.9,0
					c0.1-0.1,0.2-0.3,0.2-0.5c0-0.2-0.1-0.3-0.2-0.5C52.7-43.3,52.5-43.4,52.3-43.4z"/>
				<path class="st1" d="M67.3-52.2c-0.2,0-0.3,0.1-0.5,0.2c-0.1,0.1-0.2,0.3-0.2,0.5s0.1,0.3,0.2,0.5c0.2,0.2,0.7,0.2,0.9,0
					c0.1-0.1,0.2-0.3,0.2-0.5s-0.1-0.3-0.2-0.5C67.7-52.1,67.5-52.2,67.3-52.2z"/>
				<path class="st1" d="M47.6-48.2c-0.2,0-0.3,0.1-0.5,0.2C47-47.8,47-47.7,47-47.5s0.1,0.3,0.2,0.5c0.2,0.2,0.7,0.2,0.9,0
					c0.1-0.1,0.2-0.3,0.2-0.5s-0.1-0.3-0.2-0.5C47.9-48.1,47.8-48.2,47.6-48.2z"/>
				<path class="st1" d="M37.3-44.9c-0.2,0-0.3,0.1-0.5,0.2c-0.1,0.1-0.2,0.3-0.2,0.5c0,0.2,0.1,0.3,0.2,0.5c0.2,0.2,0.7,0.2,0.9,0
					c0.1-0.1,0.2-0.3,0.2-0.5c0-0.2-0.1-0.3-0.2-0.5C37.7-44.8,37.5-44.9,37.3-44.9z"/>
				<path class="st1" d="M17.3-28.9c-0.2,0-0.3,0.1-0.5,0.2c-0.1,0.1-0.2,0.3-0.2,0.5s0.1,0.3,0.2,0.5c0.2,0.2,0.7,0.2,0.9,0
					c0.1-0.1,0.2-0.3,0.2-0.5s-0.1-0.3-0.2-0.5C17.7-28.8,17.5-28.9,17.3-28.9z"/>
				<path class="st1" d="M11.6-37.2c-0.2,0-0.3,0.1-0.5,0.2C11-36.8,11-36.7,11-36.5s0.1,0.3,0.2,0.5c0.2,0.2,0.7,0.2,0.9,0
					c0.1-0.1,0.2-0.3,0.2-0.5s-0.1-0.3-0.2-0.5C11.9-37.1,11.8-37.2,11.6-37.2z"/>
				<path class="st1" d="M67.8-31.2c-0.2,0-0.3,0.1-0.5,0.2c-0.1,0.1-0.2,0.3-0.2,0.5s0.1,0.3,0.2,0.5c0.2,0.2,0.7,0.2,0.9,0
					c0.1-0.1,0.2-0.3,0.2-0.5s-0.1-0.3-0.2-0.5C68.2-31.1,68-31.2,67.8-31.2z"/>
				<path class="st1" d="M7.6-16.2c-0.2,0-0.3,0.1-0.5,0.2C7-15.8,7-15.7,7-15.5s0,0.3,0.1,0.5c0.2,0.2,0.7,0.2,0.9,0
					c0.1-0.1,0.2-0.3,0.2-0.5s0-0.3-0.1-0.5C7.9-16.1,7.8-16.2,7.6-16.2z"/>
				<path class="st1" d="M8.8-5.7c-0.2,0-0.3,0.1-0.5,0.2C8.2-5.4,8.1-5.2,8.1-5s0.1,0.3,0.2,0.5c0.2,0.2,0.7,0.2,0.9,0
					C9.3-4.6,9.4-4.8,9.4-5S9.3-5.3,9.2-5.5C9.2-5.6,9-5.7,8.8-5.7z"/>
				<path class="st1" d="M3.8-2.9c-0.2,0-0.3,0.1-0.5,0.2C3.2-2.6,3.1-2.4,3.1-2.2s0.1,0.3,0.2,0.5c0.2,0.2,0.7,0.2,0.9,0
					C4.3-1.8,4.4-2,4.4-2.2S4.3-2.5,4.2-2.7C4.2-2.8,4-2.9,3.8-2.9z"/>
				<path class="st1" d="M66.8-37.7c-0.2,0-0.3,0.1-0.5,0.2c-0.1,0.1-0.2,0.3-0.2,0.5s0.1,0.3,0.2,0.5c0.2,0.2,0.7,0.2,0.9,0
					c0.1-0.1,0.2-0.3,0.2-0.5s-0.1-0.3-0.2-0.5C67.2-37.6,67-37.7,66.8-37.7z"/>
				<path class="st1" d="M44.3-63.4c-0.2,0-0.3,0.1-0.5,0.2c-0.1,0.1-0.2,0.3-0.2,0.5s0.1,0.3,0.2,0.5c0.2,0.2,0.7,0.2,0.9,0
					s0.3-0.4,0.3-0.6s-0.1-0.3-0.2-0.5C44.7-63.3,44.5-63.4,44.3-63.4z"/>
				<path class="st1" d="M26.1-70.4c-0.2,0-0.3,0.1-0.5,0.2c-0.1,0.1-0.2,0.3-0.2,0.5c0,0.2,0.1,0.3,0.2,0.5c0.2,0.2,0.7,0.2,0.9,0
					c0.1-0.1,0.2-0.3,0.2-0.5c0-0.2-0.1-0.3-0.2-0.5C26.4-70.3,26.3-70.4,26.1-70.4z"/>
				<path class="st1" d="M22.3-42.2c-0.2,0-0.3,0.1-0.5,0.2c-0.1,0.1-0.2,0.3-0.2,0.5s0.1,0.3,0.2,0.5c0.2,0.2,0.7,0.2,0.9,0
					c0.1-0.1,0.2-0.3,0.2-0.5s-0.1-0.3-0.2-0.5C22.7-42.1,22.5-42.2,22.3-42.2z"/>
				<path class="st1" d="M24.3-29.4c-0.2,0-0.3,0.1-0.5,0.2c-0.1,0.1-0.2,0.3-0.2,0.5s0.1,0.3,0.2,0.5c0.2,0.2,0.7,0.2,0.9,0
					c0.1-0.1,0.2-0.3,0.2-0.5s-0.1-0.3-0.2-0.5C24.7-29.3,24.5-29.4,24.3-29.4z"/>
				<path class="st1" d="M41.8-34.9c-0.2,0-0.3,0.1-0.5,0.2c-0.1,0.1-0.2,0.3-0.2,0.5s0.1,0.3,0.2,0.5c0.2,0.2,0.7,0.2,0.9,0
					c0.1-0.1,0.2-0.3,0.2-0.5s-0.1-0.3-0.2-0.5C42.2-34.8,42-34.9,41.8-34.9z"/>
				<path class="st1" d="M67.8-44.2c-0.2,0-0.3,0.1-0.5,0.2c-0.1,0.1-0.2,0.3-0.2,0.5s0.1,0.3,0.2,0.5c0.2,0.2,0.7,0.2,0.9,0
					c0.1-0.1,0.2-0.3,0.2-0.5s-0.1-0.3-0.2-0.5C68.2-44.1,68-44.2,67.8-44.2z"/>
				<path class="st1" d="M53.6-15.4c-0.2,0-0.3,0.1-0.5,0.2C53-15.1,53-14.9,53-14.8s0.1,0.3,0.2,0.5c0.2,0.2,0.7,0.2,0.9,0
					c0.1-0.1,0.2-0.3,0.2-0.5s-0.1-0.3-0.2-0.5C53.9-15.3,53.8-15.4,53.6-15.4z"/>
				<path class="st1" d="M34.3-16.4c-0.2,0-0.3,0.1-0.5,0.2c-0.1,0.1-0.2,0.3-0.2,0.5s0.1,0.3,0.2,0.5c0.2,0.2,0.7,0.2,0.9,0
					c0.1-0.1,0.2-0.3,0.2-0.5s-0.1-0.3-0.2-0.5C34.7-16.3,34.5-16.4,34.3-16.4z"/>
				<path class="st1" d="M13.1-19.7c-0.2,0-0.3,0.1-0.5,0.2c-0.1,0.1-0.2,0.3-0.2,0.5s0.1,0.3,0.2,0.5c0.2,0.2,0.7,0.2,0.9,0
					c0.1-0.1,0.2-0.3,0.2-0.5s-0.1-0.3-0.2-0.5C13.4-19.6,13.3-19.7,13.1-19.7z"/>
				<path class="st1" d="M49.8-4.9c-0.2,0-0.3,0.1-0.5,0.2c-0.1,0.1-0.2,0.3-0.2,0.5s0.1,0.3,0.2,0.5c0.2,0.2,0.7,0.2,0.9,0
					c0.1-0.1,0.2-0.3,0.2-0.5s-0.1-0.3-0.2-0.5C50.2-4.8,50-4.9,49.8-4.9z"/>
				<path class="st1" d="M59.3-21.2c-0.2,0-0.3,0.1-0.5,0.2c-0.1,0.1-0.2,0.3-0.2,0.5s0.1,0.3,0.2,0.5c0.2,0.2,0.7,0.2,0.9,0
					c0.1-0.1,0.2-0.3,0.2-0.5s-0.1-0.3-0.2-0.5C59.7-21.1,59.5-21.2,59.3-21.2z"/>
				<path class="st1" d="M67.8-57.7c-0.2,0-0.3,0.1-0.5,0.2c-0.1,0.1-0.2,0.3-0.2,0.5s0.1,0.3,0.2,0.5c0.2,0.2,0.7,0.2,0.9,0
					c0.1-0.1,0.2-0.3,0.2-0.5s-0.1-0.3-0.2-0.5C68.2-57.6,68-57.7,67.8-57.7z"/>
				<path class="st1" d="M5.6-70.2c-0.2,0-0.3,0.1-0.5,0.2S5-69.7,5-69.5s0,0.3,0.1,0.5c0.2,0.2,0.7,0.2,0.9,0
					c0.1-0.1,0.2-0.3,0.2-0.5s0-0.3-0.1-0.5C5.9-70.1,5.8-70.2,5.6-70.2z"/>
				<path class="st1" d="M3.1-13.7c-0.2,0-0.3,0.1-0.5,0.2c-0.1,0.1-0.2,0.3-0.2,0.4s0.1,0.3,0.2,0.5c0.2,0.2,0.7,0.2,0.9,0
					c0.1-0.1,0.2-0.3,0.2-0.5s-0.1-0.3-0.2-0.5C3.4-13.6,3.3-13.7,3.1-13.7z"/>
				<path class="st1" d="M16.8-3.7c-0.2,0-0.3,0.1-0.5,0.2c-0.1,0.1-0.2,0.3-0.2,0.5s0.1,0.3,0.2,0.5c0.2,0.2,0.7,0.2,0.9,0
					c0.1-0.1,0.2-0.3,0.2-0.5s-0.1-0.3-0.2-0.5C17.2-3.6,17-3.7,16.8-3.7z"/>
				<path class="st1" d="M40.8-4.9c-0.2,0-0.3,0.1-0.5,0.2c-0.1,0.1-0.2,0.3-0.2,0.5s0.1,0.3,0.2,0.5c0.2,0.2,0.7,0.2,0.9,0
					c0.1-0.1,0.2-0.3,0.2-0.5s-0.1-0.3-0.2-0.5C41.2-4.8,41-4.9,40.8-4.9z"/>
				<path class="st1" d="M3.1-32.4c-0.2,0-0.3,0.1-0.5,0.2c-0.1,0.1-0.2,0.3-0.2,0.5s0.1,0.3,0.2,0.5c0.2,0.2,0.7,0.2,0.9,0
					c0.1-0.1,0.2-0.3,0.2-0.5S3.6-32,3.5-32.2C3.4-32.3,3.3-32.4,3.1-32.4z"/>
				<path class="st1" d="M7.8-25.4c-0.2,0-0.3,0.1-0.5,0.2c-0.1,0.1-0.2,0.3-0.2,0.5s0.1,0.3,0.2,0.5C7.5-24,8-24,8.2-24.2
					c0.1-0.1,0.2-0.3,0.2-0.5S8.3-25,8.2-25.2C8.2-25.3,8-25.4,7.8-25.4z"/>
				<path class="st1" d="M4.3-47.2c-0.2,0-0.3,0.1-0.5,0.2c-0.1,0.1-0.2,0.3-0.2,0.5s0.1,0.3,0.2,0.5c0.2,0.2,0.7,0.2,0.9,0
					C4.9-46.2,5-46.3,5-46.5S4.9-46.8,4.8-47C4.7-47.1,4.5-47.2,4.3-47.2z"/>
				<path class="st1" d="M11.3-50.9c-0.2,0-0.3,0.1-0.5,0.2c-0.1,0.1-0.2,0.3-0.2,0.5c0,0.2,0.1,0.3,0.2,0.5c0.2,0.2,0.7,0.2,0.9,0
					c0.1-0.1,0.2-0.3,0.2-0.5c0-0.2-0.1-0.3-0.2-0.5C11.7-50.8,11.5-50.9,11.3-50.9z"/>
				<path class="st1" d="M10.3-60.2c-0.2,0-0.3,0.1-0.5,0.2c-0.1,0.1-0.2,0.3-0.2,0.5s0.1,0.3,0.2,0.5c0.2,0.2,0.7,0.2,0.9,0
					c0.1-0.1,0.2-0.3,0.2-0.5s-0.1-0.3-0.2-0.5C10.7-60.1,10.5-60.2,10.3-60.2z"/>
				<path class="st1" d="M13.8-66.2c-0.2,0-0.3,0.1-0.5,0.2c-0.1,0.1-0.2,0.3-0.2,0.5s0.1,0.3,0.2,0.5c0.2,0.2,0.7,0.2,0.9,0
					c0.1-0.1,0.2-0.3,0.2-0.5s0-0.3-0.1-0.5C14.2-66.1,14-66.2,13.8-66.2z"/>
				<path class="st1" d="M22.3-53.7c-0.2,0-0.3,0.1-0.5,0.2c-0.1,0.1-0.2,0.3-0.2,0.5s0.1,0.3,0.2,0.5c0.2,0.2,0.7,0.2,0.9,0
					c0.1-0.1,0.2-0.3,0.2-0.5s-0.1-0.3-0.2-0.5C22.7-53.6,22.5-53.7,22.3-53.7z"/>
				<path class="st1" d="M31.6-37.9c-0.2,0-0.3,0.1-0.5,0.2C31-37.6,31-37.4,31-37.2s0.1,0.3,0.2,0.5c0.2,0.2,0.7,0.2,0.9,0
					c0.1-0.1,0.2-0.3,0.2-0.5s-0.1-0.3-0.2-0.5C31.9-37.8,31.8-37.9,31.6-37.9z"/>
				<path class="st1" d="M26.3-34.4c-0.2,0-0.3,0.1-0.5,0.2c-0.1,0.1-0.2,0.3-0.2,0.5s0.1,0.3,0.2,0.5c0.2,0.2,0.7,0.2,0.9,0
					c0.1-0.1,0.2-0.3,0.2-0.5s-0.1-0.3-0.2-0.5C26.7-34.3,26.5-34.4,26.3-34.4z"/>
				<path class="st1" d="M37.6-28.9c-0.2,0-0.3,0.1-0.5,0.2C37-28.6,37-28.4,37-28.2s0.1,0.3,0.2,0.5c0.2,0.2,0.7,0.2,0.9,0
					c0.1-0.1,0.2-0.3,0.2-0.5s-0.1-0.3-0.2-0.5C37.9-28.8,37.8-28.9,37.6-28.9z"/>
				<path class="st1" d="M62.1-16.9c-0.2,0-0.3,0.1-0.5,0.2c-0.1,0.1-0.2,0.3-0.2,0.5s0.1,0.3,0.2,0.5c0.2,0.2,0.7,0.2,0.9,0
					c0.1-0.1,0.2-0.3,0.2-0.5s-0.1-0.3-0.2-0.5C62.4-16.8,62.3-16.9,62.1-16.9z"/>
				<path class="st1" d="M61.6-27.4c-0.2,0-0.3,0.1-0.5,0.2C61-27.1,61-26.9,61-26.8s0.1,0.3,0.2,0.5c0.2,0.2,0.7,0.2,0.9,0
					c0.1-0.1,0.2-0.3,0.2-0.5s-0.1-0.3-0.2-0.5C61.9-27.3,61.8-27.4,61.6-27.4z"/>
				<path class="st1" d="M59.1-57.4c-0.2,0-0.3,0.1-0.5,0.2c-0.1,0.1-0.2,0.3-0.2,0.5s0.1,0.3,0.2,0.5c0.2,0.2,0.7,0.2,0.9,0
					c0.1-0.1,0.2-0.3,0.2-0.5s-0.1-0.3-0.2-0.5C59.4-57.3,59.3-57.4,59.1-57.4z"/>
				<path class="st1" d="M59.6-44.7c-0.2,0-0.3,0.1-0.5,0.2C59-44.3,59-44.2,59-44s0.1,0.3,0.2,0.5c0.2,0.2,0.7,0.2,0.9,0
					c0.1-0.1,0.2-0.3,0.2-0.5s-0.1-0.3-0.2-0.5C59.9-44.6,59.8-44.7,59.6-44.7z"/>
				<path class="st1" d="M56.1-35.9c-0.2,0-0.3,0.1-0.5,0.2c-0.1,0.1-0.2,0.3-0.2,0.5s0.1,0.3,0.2,0.5c0.2,0.2,0.7,0.2,0.9,0
					c0.1-0.1,0.2-0.3,0.2-0.5s-0.1-0.3-0.2-0.5C56.4-35.8,56.3-35.9,56.1-35.9z"/>
				<path class="st1" d="M69.6-70.9c-0.2,0-0.3,0.1-0.5,0.2C69-70.6,69-70.4,69-70.2c0,0.2,0.1,0.3,0.2,0.5c0.2,0.2,0.7,0.2,0.9,0
					c0.1-0.1,0.2-0.3,0.2-0.5c0-0.2-0.1-0.3-0.2-0.5C69.9-70.8,69.8-70.9,69.6-70.9z"/>
				<path class="st1" d="M61.1-66.2c-0.2,0-0.3,0.1-0.5,0.2c-0.1,0.1-0.2,0.3-0.2,0.5s0.1,0.3,0.2,0.5c0.2,0.2,0.7,0.2,0.9,0
					c0.1-0.1,0.2-0.3,0.2-0.5s-0.1-0.3-0.2-0.5C61.4-66.1,61.3-66.2,61.1-66.2z"/>
				<path class="st1" d="M44.8-71.7c-0.2,0-0.3,0.1-0.5,0.2c-0.1,0.1-0.2,0.3-0.2,0.5s0.1,0.3,0.2,0.5c0.2,0.2,0.7,0.2,0.9,0
					c0.1-0.1,0.2-0.3,0.2-0.5s-0.1-0.3-0.2-0.5C45.2-71.6,45-71.7,44.8-71.7z"/>
				<path class="st1" d="M24.8-1.4c-0.2,0-0.3,0.1-0.5,0.2c-0.1,0.1-0.2,0.3-0.2,0.5s0.1,0.3,0.2,0.5C24.5,0,25,0,25.2-0.2
					c0.1-0.1,0.2-0.3,0.2-0.5S25.3-1,25.2-1.2C25.2-1.3,25-1.4,24.8-1.4z"/>
			</g>
			<g>
				<path class="st1" d="M0.3-23.6c-0.1,0-0.2,0-0.2,0.1C0-23.4,0-23.3,0-23.2S0-23,0.1-23c0.1,0.1,0.4,0.1,0.5,0s0.1-0.2,0.1-0.2
					c0-0.1,0-0.2-0.1-0.2C0.5-23.6,0.4-23.6,0.3-23.6z"/>
			</g>
		</g>
	</g>
</pattern>
<path class="st2" d="M80.9,92.9H19.1c-6.6,0-12-5.4-12-12V19.1c0-6.6,5.4-12,12-12h61.7c6.6,0,12,5.4,12,12v61.7
	C92.9,87.5,87.5,92.9,80.9,92.9z"/>
<g id="Calque_5" class="st3">
	<g class="st4">
		<path class="st5" d="M80.9,92.9H19.1c-6.6,0-12-5.4-12-12V19.1c0-6.6,5.4-12,12-12h61.7c6.6,0,12,5.4,12,12v61.7
			C92.9,87.5,87.5,92.9,80.9,92.9z"/>
		<g>
			<path class="st1" d="M30.9,38.1h38.3c0.7,0,1.2-0.6,1.2-1.2s-0.6-1.2-1.2-1.2H30.9c-0.7,0-1.2,0.6-1.2,1.2S30.2,38.1,30.9,38.1z"
				/>
			<path class="st1" d="M69.1,44.4H30.9c-0.7,0-1.2,0.6-1.2,1.2s0.6,1.2,1.2,1.2h38.3c0.7,0,1.2-0.6,1.2-1.2S69.8,44.4,69.1,44.4z"
				/>
			<path class="st1" d="M69.1,53.1H30.9c-0.7,0-1.2,0.6-1.2,1.2s0.6,1.2,1.2,1.2h38.3c0.7,0,1.2-0.6,1.2-1.2S69.8,53.1,69.1,53.1z"
				/>
			<path class="st1" d="M69.1,61.9H30.9c-0.7,0-1.2,0.6-1.2,1.2s0.6,1.2,1.2,1.2h38.3c0.7,0,1.2-0.6,1.2-1.2S69.8,61.9,69.1,61.9z"
				/>
		</g>
	</g>
</g>
<g id="Calque_4" class="st3">
	<g class="st4">
		<path class="st6" d="M80.9,92.9H19.1c-6.6,0-12-5.4-12-12V19.1c0-6.6,5.4-12,12-12h61.7c6.6,0,12,5.4,12,12v61.7
			C92.9,87.5,87.5,92.9,80.9,92.9z"/>
		<path class="st1" d="M66.9,34.8c-3.1-3.5-6.9-5.8-11.4-6.9c-0.8-0.2-1.7-0.3-2.5-0.4c-0.4-0.1-0.8-0.1-1.2-0.2
			c-0.1,0-0.2,0-0.3-0.1h-3.1l-0.6,0.1c-0.4,0.1-0.8,0.1-1.3,0.2c-5.4,0.9-10,3.4-13.7,7.5c-3,3.4-4.8,7.3-5.3,11.7
			c-0.8,6.4,0.7,12.1,4.7,17.1c3.5,4.4,8.1,7.2,13.5,8.2c6.7,1.2,12.9-0.3,18.2-4.5c4.3-3.4,7.1-8,8.2-13.5c0.1-0.5,0.2-1,0.2-1.5
			c0-0.3,0.1-0.5,0.1-0.8c0-0.1,0-0.2,0.1-0.3v-3.1l-0.1-0.7c-0.1-0.6-0.2-1.1-0.3-1.7C71.6,41.8,69.8,38,66.9,34.8z M51,29.7
			c0-0.1,0.1-0.3,0.2-0.4c0.1-0.1,0.2-0.1,0.4-0.1c4.5,0.4,8.5,2,12,5c0.1,0.1,0.2,0.2,0.2,0.4c0,0.1,0,0.3-0.1,0.4l-7.3,7
			c-0.1,0.1-0.2,0.1-0.4,0.1c-0.1,0-0.2,0-0.3-0.1c-1.3-1-2.8-1.6-4.4-1.8c-0.2,0-0.4-0.3-0.4-0.5L51,29.7
			C50.9,29.7,51,29.7,51,29.7z M36.5,34.2c3.4-2.9,7.5-4.6,12-4.9c0.1,0,0.3,0,0.4,0.1c0.1,0.1,0.2,0.2,0.2,0.4v10
			c0,0.2-0.1,0.4-0.4,0.5c-0.3,0.1-0.5,0.2-0.8,0.2c-0.6,0.2-1.1,0.3-1.6,0.5s-1,0.5-1.5,0.8c-0.2,0.1-0.4,0.3-0.7,0.4
			c-0.1,0-0.2,0.1-0.2,0.1c-0.1,0-0.3-0.1-0.4-0.1l-7-7.1c-0.1-0.1-0.2-0.2-0.1-0.4S36.4,34.3,36.5,34.2z M34.3,36.4
			c0.1-0.1,0.2-0.2,0.4-0.2c0.1,0,0.3,0,0.4,0.1l7.1,7c0.2,0.2,0.2,0.4,0.1,0.6c-0.1,0.2-0.2,0.4-0.4,0.7c-0.3,0.5-0.6,1-0.8,1.5
			s-0.4,1-0.5,1.6c-0.1,0.3-0.1,0.5-0.2,0.8c-0.1,0.2-0.3,0.4-0.5,0.4h-10c-0.1,0-0.3-0.1-0.4-0.2c-0.1-0.1-0.1-0.2-0.1-0.4
			C29.7,43.9,31.4,39.8,34.3,36.4z M34.6,63.5L34.6,63.5c-0.2,0-0.3-0.1-0.4-0.2c-2.9-3.4-4.6-7.5-4.9-12c0-0.1,0-0.3,0.1-0.4
			c0.1-0.1,0.2-0.2,0.4-0.2h10c0.2,0,0.5,0.2,0.5,0.4c0.3,1.6,0.9,3.1,1.8,4.3c0.1,0.2,0.1,0.5,0,0.7L35,63.4
			C34.9,63.5,34.8,63.5,34.6,63.5z M49,70c0,0.1-0.1,0.3-0.2,0.4c-0.1,0.1-0.2,0.1-0.3,0.1l0,0c-4.5-0.4-8.5-2-12-4.9
			c-0.1-0.1-0.2-0.2-0.2-0.4c0-0.1,0-0.3,0.1-0.4l7.1-7.1c0.2-0.2,0.4-0.2,0.6-0.1c0.2,0.1,0.4,0.2,0.6,0.4c0.5,0.3,1,0.6,1.5,0.8
			s1,0.4,1.6,0.5c0.3,0.1,0.5,0.1,0.8,0.2c0.2,0.1,0.4,0.3,0.4,0.5C49,60,49,70,49,70z M49.9,57.7L49.9,57.7c-2.1,0-4-0.8-5.5-2.3
			s-2.3-3.4-2.3-5.5c0-4.5,3.5-7.8,8-7.8c0,0,0,0,0.1,0c4.1,0,7.6,3.6,7.6,7.8l0,0C57.8,54.3,54.3,57.7,49.9,57.7z M63.5,65.6
			c-3.4,2.9-7.4,4.6-12,5l0,0c-0.1,0-0.2,0-0.3-0.1C51,70.3,51,70.2,51,70V60c0-0.2,0.2-0.5,0.4-0.5c1.6-0.2,3.1-0.9,4.4-1.8
			c0.2-0.1,0.5-0.1,0.7,0.1l7.1,7.1c0.1,0.1,0.2,0.2,0.1,0.4C63.7,65.4,63.6,65.5,63.5,65.6z M65.6,63.5c-0.1,0.1-0.2,0.1-0.4,0.1
			c-0.1,0-0.3-0.1-0.4-0.1l-7-7.1c-0.2-0.2-0.2-0.5,0-0.7c1-1.4,1.6-2.8,1.8-4.5c0-0.2,0.2-0.4,0.5-0.4h10c0.3,0,0.5,0.2,0.5,0.4
			C71,54.2,68.3,60.8,65.6,63.5z M70.5,48.8c-0.1,0.1-0.2,0.2-0.4,0.2h-10c-0.2,0-0.5-0.2-0.5-0.4c-0.3-1.6-0.9-3.1-1.8-4.4
			c-0.1-0.2-0.1-0.5,0-0.7l7.1-7.1c0.1-0.1,0.2-0.2,0.4-0.1c0.1,0,0.3,0.1,0.4,0.2c2.9,3.4,4.6,7.5,4.9,12
			C70.7,48.5,70.6,48.7,70.5,48.8z"/>
	</g>
</g>
<g id="Calque_3" class="st3">
	<g class="st4">
		<path class="st7" d="M80.9,92.9H19.1c-6.6,0-12-5.4-12-12V19.1c0-6.6,5.4-12,12-12h61.7c6.6,0,12,5.4,12,12v61.7
			C92.9,87.5,87.5,92.9,80.9,92.9z"/>
		<g>
			<circle class="st1" cx="31.9" cy="35.5" r="3"/>
			<circle class="st1" cx="43.8" cy="35.5" r="3"/>
			<circle class="st1" cx="56" cy="35.5" r="3"/>
			<circle class="st1" cx="68.1" cy="35.5" r="3"/>
			<circle class="st1" cx="37.8" cy="46.4" r="3"/>
			<circle class="st1" cx="50" cy="46.4" r="3"/>
			<circle class="st1" cx="62.2" cy="46.4" r="3"/>
			<circle class="st1" cx="31.9" cy="57.2" r="3"/>
			<circle class="st1" cx="43.8" cy="57.2" r="3"/>
			<circle class="st1" cx="56" cy="57.2" r="3"/>
			<circle class="st1" cx="68.1" cy="57.2" r="3"/>
			<circle class="st1" cx="37.8" cy="68" r="3"/>
			<circle class="st1" cx="50" cy="68" r="3"/>
			<circle class="st1" cx="62.2" cy="68" r="3"/>
		</g>
	</g>
</g>
<g class="st3">
	<g class="st4">
		<path class="st8" d="M80.9,92.9H19.1c-6.6,0-12-5.4-12-12V19.1c0-6.6,5.4-12,12-12h61.7c6.6,0,12,5.4,12,12v61.7
			C92.9,87.5,87.5,92.9,80.9,92.9z"/>
		<path class="st9" d="M48.5,28.6c1,0,2,0,3,0c0.4,0.1,0.8,0.2,1.3,0.3c8.6,1.8,13.8,9.9,12,18.7c-1.2,5.6-3.7,10.5-7.1,14.9
			c-2.4,3.1-5.1,6-7.7,8.9c-0.1,0-0.1,0-0.2,0c-0.7-0.9-1.4-1.9-2.2-2.8c-3.3-3.6-6.2-7.4-8.6-11.7c-2.1-3.8-3.8-7.6-4.1-12
			c-0.5-6.6,3.4-12.8,9.6-15.2C45.8,29.2,47.1,28.9,48.5,28.6z M50.1,36.9c-3.7-0.1-6.9,2.9-7,6.5c-0.1,3.9,2.8,7.2,6.5,7.3
			c3.9,0.1,7.1-2.8,7.2-6.6C56.9,40.1,54,37,50.1,36.9z"/>
	</g>
</g>
<pattern  id="SVGID_1_" xlink:href="#Plage_de_gravier_USGS_22" patternTransform="matrix(1 0 0 -1 9.6 -16171.1729)">
</pattern>
<rect x="7.1" y="23.7" class="st10" width="85.7" height="32.5"/>
<path class="st11" d="M80.8,7.1H19.1c-6.6,0-12,5.4-12,12v8.3c8.5,1.8,15.7,0.2,31.8,1.9C54,31,52.9,33,63.2,33.2
	c6.4,0.1,21.4,0.4,29.6-5.2v-8.9C92.8,12.5,87.4,7.1,80.8,7.1z"/>
<g>
	<g>
		<path class="st12" d="M46.5,55.4c0,1,0.3,1.8,1,2.5s1.8,1,3.4,1c1.3,0,2.4-0.4,3.1-1.1l0,0c0.3-0.3,0.8-0.5,1.3-0.5
			s0.9,0.2,1.3,0.5c0.4,0.4,0.5,0.8,0.5,1.3s-0.2,0.9-0.5,1.3c0,0,0,0-0.1,0l0,0c-1.4,1.4-3.3,2.1-5.6,2.1c-2.6,0-4.6-0.7-6-2.1
			s-2.1-3.1-2.1-5.1V44.6c0-2,0.7-3.7,2.1-5.1c1.4-1.4,3.4-2.1,6-2.1c2.3,0,4.2,0.7,5.6,2.1l0,0c0,0,0,0,0.1,0
			c0.3,0.4,0.5,0.8,0.5,1.3s-0.2,0.9-0.5,1.3c-0.4,0.4-0.8,0.5-1.3,0.5s-0.9-0.2-1.3-0.5l0,0c-0.7-0.7-1.7-1.1-3.1-1.1
			c-1.6,0-2.7,0.3-3.4,1s-1,1.5-1,2.5V55.4z"/>
	</g>
</g>
<g class="st3">
	<path class="st13" d="M80.9,92.9H19.1c-6.6,0-12-5.4-12-12V19.1c0-6.6,5.4-12,12-12h61.7c6.6,0,12,5.4,12,12v61.7
		C92.9,87.5,87.5,92.9,80.9,92.9z"/>
	<path class="st14" d="M80.9,7.1H19.1c-6.6,0-12,5.4-12,12v47.7c2.6,0.4,4.3,0.5,4.3,0.5c7.1,0.4,8.5-0.9,14.5-0.6
		c9.6,0.5,11.6,4.1,20.2,5.7c8.8,1.7,11.6-1.2,23.7-2.5c11.4-1.3,18,0.3,23,1.3v-52C92.9,12.5,87.5,7.1,80.9,7.1z"/>
	<pattern  id="SVGID_2_" xlink:href="#Plage_de_gravier_USGS_22" patternTransform="matrix(1 0 0 -1 9.6 -16171.1729)">
	</pattern>
	<rect x="7.1" y="23.7" class="st15" width="85.7" height="32.5"/>
	<g class="st4">
		<g>
			<path class="st1" d="M46.5,55.4c0,1,0.3,1.8,1,2.5s1.8,1,3.4,1c1.3,0,2.4-0.4,3.1-1.1l0,0c0.3-0.3,0.8-0.5,1.3-0.5
				s0.9,0.2,1.3,0.5c0.4,0.4,0.5,0.8,0.5,1.3s-0.2,0.9-0.5,1.3c0,0,0,0-0.1,0l0,0c-1.4,1.4-3.3,2.1-5.6,2.1c-2.6,0-4.6-0.7-6-2.1
				s-2.1-3.1-2.1-5.1V44.6c0-2,0.7-3.7,2.1-5.1c1.4-1.4,3.4-2.1,6-2.1c2.3,0,4.2,0.7,5.6,2.1l0,0c0,0,0,0,0.1,0
				c0.3,0.4,0.5,0.8,0.5,1.3s-0.2,0.9-0.5,1.3c-0.4,0.4-0.8,0.5-1.3,0.5s-0.9-0.2-1.3-0.5l0,0c-0.7-0.7-1.7-1.1-3.1-1.1
				c-1.6,0-2.7,0.3-3.4,1s-1,1.5-1,2.5V55.4z"/>
		</g>
	</g>
</g>
</svg>
